AnekDevanagari-CondensedThin.ufo
<glyph name="asterisk" format="2">
  <advance width="601"/>
  <unicode hex="002A"/>
  <outline>
    <contour>
      <point x="302" y="991" type="line"/>
      <point x="298" y="991" type="line"/>
      <point x="442" y="772" type="line"/>
      <point x="475" y="792" type="line"/>
      <point x="319" y="1009" type="line"/>
      <point x="315" y="1000" type="line"/>
      <point x="549" y="1065" type="line"/>
      <point x="539" y="1101" type="line"/>
      <point x="307" y="1026" type="line"/>
      <point x="315" y="1019" type="line"/>
      <point x="319" y="1278" type="line"/>
      <point x="282" y="1278" type="line"/>
      <point x="285" y="1019" type="line"/>
      <point x="293" y="1026" type="line"/>
      <point x="61" y="1101" type="line"/>
      <point x="52" y="1065" type="line"/>
      <point x="285" y="1000" type="line"/>
      <point x="282" y="1009" type="line"/>
      <point x="125" y="792" type="line"/>
      <point x="158" y="772" type="line"/>
    </contour>
  </outline>
</glyph>
<glyph name="E" format="2">
  <advance width="542"/>
  <unicode hex="0045"/>
  <anchor x="303" y="0" name="bottom"/>
  <anchor x="531" y="0" name="ogonek"/>
  <anchor x="303" y="1278" name="top"/>
  <anchor x="20" y="1278" name="topleft"/>
  <outline>
    <contour>
      <point x="160" y="0" type="line"/>
      <point x="160" y="1278" type="line"/>
      <point x="121" y="1278" type="line"/>
      <point x="121" y="0" type="line"/>
    </contour>
    <contour>
      <point x="476" y="0" type="line"/>
      <point x="476" y="35" type="line"/>
      <point x="125" y="35" type="line"/>
      <point x="125" y="0" type="line"/>
    </contour>
    <contour>
      <point x="472" y="641" type="line"/>
      <point x="472" y="675" type="line"/>
      <point x="139" y="675" type="line"/>
      <point x="139" y="641" type="line"/>
    </contour>
    <contour>
      <point x="476" y="1243" type="line"/>
      <point x="476" y="1278" type="line"/>
      <point x="121" y="1278" type="line"/>
      <point x="121" y="1243" type="line"/>
    </contour>
  </outline>
</glyph>
<glyph name="H" format="2">
  <advance width="696"/>
  <unicode hex="0048"/>
  <anchor x="348" y="0" name="bottom"/>
  <anchor x="348" y="639" name="center"/>
  <anchor x="348" y="1278" name="top"/>
  <anchor x="20" y="1278" name="topleft"/>
  <outline>
    <contour>
      <point x="160" y="1278" type="line"/>
      <point x="121" y="1278" type="line"/>
      <point x="121" y="0" type="line"/>
      <point x="160" y="0" type="line"/>
    </contour>
    <contour>
      <point x="575" y="1278" type="line"/>
      <point x="536" y="1278" type="line"/>
      <point x="536" y="0" type="line"/>
      <point x="575" y="0" type="line"/>
    </contour>
    <contour>
      <point x="143" y="647" type="line"/>
      <point x="559" y="647" type="line"/>
      <point x="559" y="681" type="line"/>
      <point x="143" y="681" type="line"/>
    </contour>
  </outline>
</glyph>
<glyph name="M" format="2">
  <advance width="843"/>
  <unicode hex="004D"/>
  <anchor x="422" y="0" name="bottom"/>
  <anchor x="422" y="1278" name="top"/>
  <outline>
    <contour>
      <point x="155" y="0" type="line"/>
      <point x="158" y="643" type="line"/>
      <point x="160" y="1245" type="line"/>
      <point x="175" y="1245" type="line"/>
      <point x="386" y="129" type="line"/>
      <point x="457" y="129" type="line"/>
      <point x="668" y="1245" type="line"/>
      <point x="683" y="1245" type="line"/>
      <point x="685" y="643" type="line"/>
      <point x="688" y="0" type="line"/>
      <point x="727" y="0" type="line"/>
      <point x="718" y="1278" type="line"/>
      <point x="638" y="1278" type="line"/>
      <point x="427" y="162" type="line"/>
      <point x="416" y="162" type="line"/>
      <point x="205" y="1278" type="line"/>
      <point x="125" y="1278" type="line"/>
      <point x="116" y="0" type="line"/>
    </contour>
  </outline>
</glyph>
<glyph name="j" format="2">
  <advance width="275"/>
  <unicode hex="006A"/>
  <outline>
    <contour>
      <point x="159" y="233" type="line"/>
      <point x="159" y="990" type="line"/>
      <point x="122" y="990" type="line"/>
      <point x="122" y="234" type="line"/>
    </contour>
    <contour>
      <point x="141" y="1171" type="curve" smooth="yes"/>
      <point x="162" y="1171"/>
      <point x="169" y="1190"/>
      <point x="169" y="1230" type="curve" smooth="yes"/>
      <point x="169" y="1244" type="line" smooth="yes"/>
      <point x="169" y="1284"/>
      <point x="162" y="1302"/>
      <point x="141" y="1302" type="curve" smooth="yes"/>
      <point x="120" y="1302"/>
      <point x="112" y="1284"/>
      <point x="112" y="1244" type="curve" smooth="yes"/>
      <point x="112" y="1230" type="line" smooth="yes"/>
      <point x="112" y="1190"/>
      <point x="120" y="1171"/>
    </contour>
    <contour>
      <point x="0" y="-355" type="curve" smooth="yes"/>
      <point x="115" y="-355"/>
      <point x="159" y="-285"/>
      <point x="159" y="-167" type="curve" smooth="yes"/>
      <point x="159" y="300" type="line"/>
      <point x="122" y="300" type="line"/>
      <point x="122" y="-166" type="line" smooth="yes"/>
      <point x="122" y="-265"/>
      <point x="92" y="-320"/>
      <point x="2" y="-320" type="curve" smooth="yes"/>
      <point x="-37" y="-320"/>
      <point x="-68" y="-311"/>
      <point x="-101" y="-293" type="curve"/>
      <point x="-95" y="-331" type="line"/>
      <point x="-72" y="-346"/>
      <point x="-35" y="-355"/>
    </contour>
  </outline>
</glyph>
<glyph name="w" format="2">
  <advance width="900"/>
  <unicode hex="0077"/>
  <anchor x="450" y="0" name="bottom"/>
  <anchor x="450" y="990" name="top"/>
  <outline>
    <contour>
      <point x="289" y="0" type="line"/>
      <point x="422" y="786" type="line"/>
      <point x="446" y="931" type="line"/>
      <point x="454" y="931" type="line"/>
      <point x="479" y="786" type="line"/>
      <point x="612" y="0" type="line"/>
      <point x="681" y="0" type="line"/>
      <point x="840" y="990" type="line"/>
      <point x="801" y="990" type="line"/>
      <point x="652" y="33" type="line"/>
      <point x="641" y="33" type="line"/>
      <point x="483" y="960" type="line"/>
      <point x="417" y="960" type="line"/>
      <point x="260" y="33" type="line"/>
      <point x="249" y="33" type="line"/>
      <point x="99" y="990" type="line"/>
      <point x="60" y="990" type="line"/>
      <point x="219" y="0" type="line"/>
    </contour>
  </outline>
</glyph>
<glyph name="dieresis" format="2">
  <advance width="442"/>
  <unicode hex="00A8"/>
  <anchor x="221" y="990" name="_top"/>
  <anchor x="221" y="1278" name="top"/>
  <outline>
    <contour>
      <point x="129" y="1171" type="curve" smooth="yes"/>
      <point x="151" y="1171"/>
      <point x="158" y="1190"/>
      <point x="158" y="1230" type="curve" smooth="yes"/>
      <point x="158" y="1238" type="line" smooth="yes"/>
      <point x="158" y="1278"/>
      <point x="151" y="1296"/>
      <point x="129" y="1296" type="curve" smooth="yes"/>
      <point x="107" y="1296"/>
      <point x="100" y="1278"/>
      <point x="100" y="1238" type="curve" smooth="yes"/>
      <point x="100" y="1230" type="line" smooth="yes"/>
      <point x="100" y="1190"/>
      <point x="107" y="1171"/>
    </contour>
    <contour>
      <point x="313" y="1171" type="curve" smooth="yes"/>
      <point x="335" y="1171"/>
      <point x="342" y="1190"/>
      <point x="342" y="1230" type="curve" smooth="yes"/>
      <point x="342" y="1238" type="line" smooth="yes"/>
      <point x="342" y="1278"/>
      <point x="335" y="1296"/>
      <point x="313" y="1296" type="curve" smooth="yes"/>
      <point x="291" y="1296"/>
      <point x="284" y="1278"/>
      <point x="284" y="1238" type="curve" smooth="yes"/>
      <point x="284" y="1230" type="line" smooth="yes"/>
      <point x="284" y="1190"/>
      <point x="291" y="1171"/>
    </contour>
  </outline>
</glyph>
<glyph name="macron" format="2">
  <advance width="533"/>
  <unicode hex="00AF"/>
  <anchor x="266" y="990" name="_top"/>
  <anchor x="267" y="1258" name="top"/>
  <outline>
    <contour>
      <point x="425" y="1198" type="line"/>
      <point x="425" y="1229" type="line"/>
      <point x="108" y="1229" type="line"/>
      <point x="108" y="1198" type="line"/>
    </contour>
  </outline>
</glyph>
<glyph name="plusminus" format="2">
  <advance width="654"/>
  <unicode hex="00B1"/>
  <outline>
    <contour>
      <point x="570" y="274" type="line"/>
      <point x="570" y="307" type="line"/>
      <point x="84" y="307" type="line"/>
      <point x="84" y="274" type="line"/>
    </contour>
    <contour>
      <point x="344" y="975" type="line"/>
      <point x="309" y="975" type="line"/>
      <point x="309" y="438" type="line"/>
      <point x="344" y="438" type="line"/>
    </contour>
    <contour>
      <point x="570" y="690" type="line"/>
      <point x="570" y="723" type="line"/>
      <point x="84" y="723" type="line"/>
      <point x="84" y="690" type="line"/>
    </contour>
  </outline>
</glyph>
<glyph name="acute" format="2">
  <advance width="364"/>
  <unicode hex="00B4"/>
  <anchor x="116" y="990" name="_top"/>
  <anchor x="126" y="1268" name="top"/>
  <outline>
    <contour>
      <point x="100" y="1108" type="line"/>
      <point x="100" y="1108" type="line"/>
      <point x="133" y="1108" type="line"/>
      <point x="264" y="1331" type="line"/>
      <point x="264" y="1331" type="line"/>
      <point x="222" y="1331" type="line"/>
    </contour>
  </outline>
</glyph>
<glyph name="periodcentered" format="2">
  <advance width="195"/>
  <unicode hex="00B7"/>
  <anchor x="98" y="301" name="_top"/>
  <anchor x="98" y="579" name="top"/>
  <outline>
    <contour>
      <point x="97" y="482" type="curve" smooth="yes"/>
      <point x="119" y="482"/>
      <point x="127" y="501"/>
      <point x="127" y="541" type="curve" smooth="yes"/>
      <point x="127" y="549" type="line" smooth="yes"/>
      <point x="127" y="589"/>
      <point x="119" y="607"/>
      <point x="97" y="607" type="curve" smooth="yes"/>
      <point x="75" y="607"/>
      <point x="68" y="589"/>
      <point x="68" y="549" type="curve" smooth="yes"/>
      <point x="68" y="541" type="line" smooth="yes"/>
      <point x="68" y="501"/>
      <point x="75" y="482"/>
    </contour>
  </outline>
</glyph>
<glyph name="onequarter" format="2">
  <advance width="733"/>
  <unicode hex="00BC"/>
  <outline>
    <contour>
      <point x="189" y="595" type="line"/>
      <point x="189" y="1278" type="line"/>
      <point x="143" y="1278" type="line"/>
      <point x="16" y="1159" type="line"/>
      <point x="16" y="1119" type="line"/>
      <point x="152" y="1245" type="line"/>
      <point x="156" y="1245" type="line"/>
      <point x="156" y="595" type="line"/>
    </contour>
    <contour>
      <point x="166" y="0" type="line"/>
      <point x="574" y="1278" type="line"/>
      <point x="537" y="1278" type="line"/>
      <point x="129" y="0" type="line"/>
    </contour>
    <contour>
      <point x="653" y="0" type="line"/>
      <point x="653" y="683" type="line"/>
      <point x="586" y="683" type="line"/>
      <point x="415" y="170" type="line"/>
      <point x="415" y="136" type="line"/>
      <point x="718" y="136" type="line"/>
      <point x="718" y="165" type="line"/>
      <point x="433" y="165" type="line"/>
      <point x="447" y="151" type="line"/>
      <point x="447" y="168" type="line"/>
      <point x="609" y="657" type="line"/>
      <point x="622" y="657" type="line"/>
      <point x="620" y="509" type="line"/>
      <point x="620" y="0" type="line"/>
    </contour>
  </outline>
</glyph>
<glyph name="threequarters" format="2">
  <advance width="781"/>
  <unicode hex="00BE"/>
  <outline>
    <contour>
      <point x="129" y="584" type="curve" smooth="yes"/>
      <point x="245" y="584"/>
      <point x="260" y="668"/>
      <point x="260" y="740" type="curve" smooth="yes"/>
      <point x="260" y="816" type="line" smooth="yes"/>
      <point x="260" y="894"/>
      <point x="231" y="947"/>
      <point x="169" y="951" type="curve"/>
      <point x="168" y="949" type="line"/>
      <point x="169" y="950" type="line"/>
      <point x="234" y="958"/>
      <point x="256" y="1010"/>
      <point x="256" y="1082" type="curve" smooth="yes"/>
      <point x="256" y="1140" type="line" smooth="yes"/>
      <point x="256" y="1230"/>
      <point x="223" y="1286"/>
      <point x="131" y="1286" type="curve" smooth="yes"/>
      <point x="88" y="1286"/>
      <point x="55" y="1269"/>
      <point x="33" y="1250" type="curve"/>
      <point x="29" y="1215" type="line"/>
      <point x="57" y="1237"/>
      <point x="90" y="1256"/>
      <point x="129" y="1256" type="curve" smooth="yes"/>
      <point x="197" y="1256"/>
      <point x="222" y="1210"/>
      <point x="222" y="1137" type="curve" smooth="yes"/>
      <point x="222" y="1081" type="line" smooth="yes"/>
      <point x="222" y="984"/>
      <point x="181" y="965"/>
      <point x="130" y="964" type="curve" smooth="yes"/>
      <point x="67" y="963" type="line"/>
      <point x="67" y="935" type="line"/>
      <point x="139" y="934" type="line" smooth="yes"/>
      <point x="204" y="933"/>
      <point x="225" y="886"/>
      <point x="225" y="817" type="curve" smooth="yes"/>
      <point x="225" y="742" type="line" smooth="yes"/>
      <point x="225" y="674"/>
      <point x="210" y="614"/>
      <point x="131" y="614" type="curve" smooth="yes"/>
      <point x="89" y="614"/>
      <point x="50" y="634"/>
      <point x="24" y="656" type="curve"/>
      <point x="28" y="620" type="line"/>
      <point x="49" y="603"/>
      <point x="78" y="584"/>
    </contour>
    <contour>
      <point x="214" y="0" type="line"/>
      <point x="622" y="1278" type="line"/>
      <point x="585" y="1278" type="line"/>
      <point x="177" y="0" type="line"/>
    </contour>
    <contour>
      <point x="701" y="0" type="line"/>
      <point x="701" y="683" type="line"/>
      <point x="634" y="683" type="line"/>
      <point x="463" y="170" type="line"/>
      <point x="463" y="136" type="line"/>
      <point x="766" y="136" type="line"/>
      <point x="766" y="165" type="line"/>
      <point x="481" y="165" type="line"/>
      <point x="495" y="151" type="line"/>
      <point x="495" y="168" type="line"/>
      <point x="657" y="657" type="line"/>
      <point x="670" y="657" type="line"/>
      <point x="668" y="509" type="line"/>
      <point x="668" y="0" type="line"/>
    </contour>
  </outline>
</glyph>
<glyph name="Acircumflex" format="2">
  <advance width="639"/>
  <unicode hex="00C2"/>
  <anchor x="320" y="0" name="bottom"/>
  <anchor x="635" y="0" name="ogonek"/>
  <anchor x="320" y="1516" name="top"/>
  <outline>
    <contour>
      <point x="98" y="0" type="line"/>
      <point x="307" y="1245" type="line"/>
      <point x="328" y="1245" type="line"/>
      <point x="541" y="0" type="line"/>
      <point x="581" y="0" type="line"/>
      <point x="357" y="1278" type="line"/>
      <point x="278" y="1278" type="line"/>
      <point x="58" y="0" type="line"/>
    </contour>
    <contour>
      <point x="476" y="452" type="line"/>
      <point x="476" y="485" type="line"/>
      <point x="161" y="485" type="line"/>
      <point x="161" y="452" type="line"/>
    </contour>
    <contour>
      <point x="146" y="1386" type="line"/>
      <point x="146" y="1386" type="line"/>
      <point x="180" y="1386" type="line"/>
      <point x="316" y="1559" type="line"/>
      <point x="323" y="1559" type="line"/>
      <point x="459" y="1386" type="line"/>
      <point x="493" y="1386" type="line"/>
      <point x="493" y="1386" type="line"/>
      <point x="344" y="1589" type="line"/>
      <point x="295" y="1589" type="line"/>
    </contour>
  </outline>
</glyph>
<glyph name="Ccedilla" format="2">
  <advance width="526"/>
  <unicode hex="00C7"/>
  <anchor x="321" y="-326" name="bottom"/>
  <anchor x="293" y="1278" name="top"/>
  <outline>
    <contour>
      <point x="311" y="-15" type="curve" smooth="yes"/>
      <point x="381" y="-15"/>
      <point x="437" y="15"/>
      <point x="470" y="47" type="curve"/>
      <point x="476" y="90" type="line"/>
      <point x="429" y="49"/>
      <point x="379" y="21"/>
      <point x="313" y="21" type="curve" smooth="yes"/>
      <point x="187" y="21"/>
      <point x="139" y="110"/>
      <point x="139" y="266" type="curve" smooth="yes"/>
      <point x="139" y="1012" type="line" smooth="yes"/>
      <point x="139" y="1170"/>
      <point x="185" y="1257"/>
      <point x="306" y="1257" type="curve" smooth="yes"/>
      <point x="373" y="1257"/>
      <point x="423" y="1229"/>
      <point x="469" y="1188" type="curve"/>
      <point x="463" y="1229" type="line"/>
      <point x="427" y="1265"/>
      <point x="374" y="1293"/>
      <point x="306" y="1293" type="curve" smooth="yes"/>
      <point x="159" y="1293"/>
      <point x="100" y="1191"/>
      <point x="100" y="1012" type="curve" smooth="yes"/>
      <point x="100" y="266" type="line" smooth="yes"/>
      <point x="100" y="89"/>
      <point x="159" y="-15"/>
    </contour>
    <contour>
      <point x="279" y="4" type="line"/>
      <point x="270" y="-118" type="line"/>
      <point x="270" y="-118"/>
      <point x="270" y="-118"/>
      <point x="270" y="-118" type="curve"/>
      <point x="364" y="-123"/>
      <point x="395" y="-151"/>
      <point x="395" y="-210" type="curve" smooth="yes"/>
      <point x="395" y="-215" type="line" smooth="yes"/>
      <point x="395" y="-265"/>
      <point x="365" y="-294"/>
      <point x="301" y="-294" type="curve" smooth="yes"/>
      <point x="268" y="-294"/>
      <point x="237" y="-285"/>
      <point x="214" y="-276" type="curve"/>
      <point x="220" y="-309" type="line"/>
      <point x="242" y="-318"/>
      <point x="272" y="-326"/>
      <point x="299" y="-326" type="curve" smooth="yes"/>
      <point x="378" y="-326"/>
      <point x="428" y="-287"/>
      <point x="428" y="-215" type="curve" smooth="yes"/>
      <point x="428" y="-210" type="line" smooth="yes"/>
      <point x="428" y="-136"/>
      <point x="387" y="-99"/>
      <point x="292" y="-92" type="curve"/>
      <point x="286" y="-92"/>
      <point x="281" y="-92"/>
      <point x="275" y="-92" type="curve"/>
      <point x="299" y="-109" type="line"/>
      <point x="308" y="4" type="line"/>
    </contour>
  </outline>
</glyph>
<glyph name="Eacute" format="2">
  <advance width="542"/>
  <unicode hex="00C9"/>
  <anchor x="303" y="0" name="bottom"/>
  <anchor x="531" y="0" name="ogonek"/>
  <anchor x="303" y="1516" name="top"/>
  <anchor x="20" y="1278" name="topleft"/>
  <outline>
    <contour>
      <point x="160" y="0" type="line"/>
      <point x="160" y="1278" type="line"/>
      <point x="121" y="1278" type="line"/>
      <point x="121" y="0" type="line"/>
    </contour>
    <contour>
      <point x="476" y="0" type="line"/>
      <point x="476" y="35" type="line"/>
      <point x="125" y="35" type="line"/>
      <point x="125" y="0" type="line"/>
    </contour>
    <contour>
      <point x="472" y="641" type="line"/>
      <point x="472" y="675" type="line"/>
      <point x="139" y="675" type="line"/>
      <point x="139" y="641" type="line"/>
    </contour>
    <contour>
      <point x="476" y="1243" type="line"/>
      <point x="476" y="1278" type="line"/>
      <point x="121" y="1278" type="line"/>
      <point x="121" y="1243" type="line"/>
    </contour>
    <contour>
      <point x="284" y="1386" type="line"/>
      <point x="284" y="1386" type="line"/>
      <point x="321" y="1386" type="line"/>
      <point x="506" y="1589" type="line"/>
      <point x="506" y="1589" type="line"/>
      <point x="460" y="1589" type="line"/>
    </contour>
  </outline>
</glyph>
<glyph name="Ecircumflex" format="2">
  <advance width="542"/>
  <unicode hex="00CA"/>
  <anchor x="303" y="0" name="bottom"/>
  <anchor x="531" y="0" name="ogonek"/>
  <anchor x="303" y="1516" name="top"/>
  <anchor x="20" y="1278" name="topleft"/>
  <outline>
    <contour>
      <point x="160" y="0" type="line"/>
      <point x="160" y="1278" type="line"/>
      <point x="121" y="1278" type="line"/>
      <point x="121" y="0" type="line"/>
    </contour>
    <contour>
      <point x="476" y="0" type="line"/>
      <point x="476" y="35" type="line"/>
      <point x="125" y="35" type="line"/>
      <point x="125" y="0" type="line"/>
    </contour>
    <contour>
      <point x="472" y="641" type="line"/>
      <point x="472" y="675" type="line"/>
      <point x="139" y="675" type="line"/>
      <point x="139" y="641" type="line"/>
    </contour>
    <contour>
      <point x="476" y="1243" type="line"/>
      <point x="476" y="1278" type="line"/>
      <point x="121" y="1278" type="line"/>
      <point x="121" y="1243" type="line"/>
    </contour>
    <contour>
      <point x="129" y="1386" type="line"/>
      <point x="129" y="1386" type="line"/>
      <point x="163" y="1386" type="line"/>
      <point x="299" y="1559" type="line"/>
      <point x="306" y="1559" type="line"/>
      <point x="442" y="1386" type="line"/>
      <point x="476" y="1386" type="line"/>
      <point x="476" y="1386" type="line"/>
      <point x="327" y="1589" type="line"/>
      <point x="278" y="1589" type="line"/>
    </contour>
  </outline>
</glyph>
<glyph name="Iacute" format="2">
  <advance width="287"/>
  <unicode hex="00CD"/>
  <anchor x="144" y="0" name="bottom"/>
  <anchor x="218" y="0" name="ogonek"/>
  <anchor x="144" y="1516" name="top"/>
  <anchor x="20" y="1278" name="topleft"/>
  <outline>
    <contour>
      <point x="163" y="1278" type="line"/>
      <point x="124" y="1278" type="line"/>
      <point x="124" y="0" type="line"/>
      <point x="163" y="0" type="line"/>
    </contour>
    <contour>
      <point x="125" y="1386" type="line"/>
      <point x="125" y="1386" type="line"/>
      <point x="162" y="1386" type="line"/>
      <point x="347" y="1589" type="line"/>
      <point x="347" y="1589" type="line"/>
      <point x="301" y="1589" type="line"/>
    </contour>
  </outline>
</glyph>
<glyph name="Icircumflex" format="2">
  <advance width="287"/>
  <unicode hex="00CE"/>
  <anchor x="144" y="0" name="bottom"/>
  <anchor x="218" y="0" name="ogonek"/>
  <anchor x="144" y="1516" name="top"/>
  <anchor x="20" y="1278" name="topleft"/>
  <outline>
    <contour>
      <point x="163" y="1278" type="line"/>
      <point x="124" y="1278" type="line"/>
      <point x="124" y="0" type="line"/>
      <point x="163" y="0" type="line"/>
    </contour>
    <contour>
      <point x="-30" y="1386" type="line"/>
      <point x="-30" y="1386" type="line"/>
      <point x="4" y="1386" type="line"/>
      <point x="140" y="1559" type="line"/>
      <point x="147" y="1559" type="line"/>
      <point x="283" y="1386" type="line"/>
      <point x="317" y="1386" type="line"/>
      <point x="317" y="1386" type="line"/>
      <point x="168" y="1589" type="line"/>
      <point x="119" y="1589" type="line"/>
    </contour>
  </outline>
</glyph>
<glyph name="Idieresis" format="2">
  <advance width="287"/>
  <unicode hex="00CF"/>
  <anchor x="144" y="0" name="bottom"/>
  <anchor x="218" y="0" name="ogonek"/>
  <anchor x="144" y="1536" name="top"/>
  <anchor x="20" y="1278" name="topleft"/>
  <outline>
    <contour>
      <point x="163" y="1278" type="line"/>
      <point x="124" y="1278" type="line"/>
      <point x="124" y="0" type="line"/>
      <point x="163" y="0" type="line"/>
    </contour>
    <contour>
      <point x="52" y="1444" type="curve" smooth="yes"/>
      <point x="74" y="1444"/>
      <point x="81" y="1463"/>
      <point x="81" y="1503" type="curve" smooth="yes"/>
      <point x="81" y="1511" type="line" smooth="yes"/>
      <point x="81" y="1551"/>
      <point x="74" y="1569"/>
      <point x="52" y="1569" type="curve" smooth="yes"/>
      <point x="30" y="1569"/>
      <point x="23" y="1551"/>
      <point x="23" y="1511" type="curve" smooth="yes"/>
      <point x="23" y="1503" type="line" smooth="yes"/>
      <point x="23" y="1463"/>
      <point x="30" y="1444"/>
    </contour>
    <contour>
      <point x="236" y="1444" type="curve" smooth="yes"/>
      <point x="258" y="1444"/>
      <point x="265" y="1463"/>
      <point x="265" y="1503" type="curve" smooth="yes"/>
      <point x="265" y="1511" type="line" smooth="yes"/>
      <point x="265" y="1551"/>
      <point x="258" y="1569"/>
      <point x="236" y="1569" type="curve" smooth="yes"/>
      <point x="214" y="1569"/>
      <point x="207" y="1551"/>
      <point x="207" y="1511" type="curve" smooth="yes"/>
      <point x="207" y="1503" type="line" smooth="yes"/>
      <point x="207" y="1463"/>
      <point x="214" y="1444"/>
    </contour>
  </outline>
</glyph>
<glyph name="Oacute" format="2">
  <advance width="664"/>
  <unicode hex="00D3"/>
  <anchor x="332" y="0" name="bottom"/>
  <anchor x="332" y="639" name="center"/>
  <anchor x="481" y="10" name="ogonek"/>
  <anchor x="332" y="1516" name="top"/>
  <anchor x="20" y="1278" name="topleft"/>
  <anchor x="568" y="1278" name="topright"/>
  <outline>
    <contour>
      <point x="332" y="-15" type="curve" smooth="yes"/>
      <point x="485" y="-15"/>
      <point x="564" y="89"/>
      <point x="564" y="291" type="curve" smooth="yes"/>
      <point x="564" y="985" type="line" smooth="yes"/>
      <point x="564" y="1187"/>
      <point x="485" y="1293"/>
      <point x="332" y="1293" type="curve" smooth="yes"/>
      <point x="178" y="1293"/>
      <point x="100" y="1187"/>
      <point x="100" y="985" type="curve" smooth="yes"/>
      <point x="100" y="291" type="line" smooth="yes"/>
      <point x="100" y="89"/>
      <point x="178" y="-15"/>
    </contour>
    <contour>
      <point x="332" y="21" type="curve" smooth="yes"/>
      <point x="201" y="21"/>
      <point x="139" y="116"/>
      <point x="139" y="290" type="curve" smooth="yes"/>
      <point x="139" y="987" type="line" smooth="yes"/>
      <point x="139" y="1162"/>
      <point x="201" y="1257"/>
      <point x="332" y="1257" type="curve" smooth="yes"/>
      <point x="463" y="1257"/>
      <point x="525" y="1162"/>
      <point x="525" y="987" type="curve" smooth="yes"/>
      <point x="525" y="290" type="line" smooth="yes"/>
      <point x="525" y="116"/>
      <point x="463" y="21"/>
    </contour>
    <contour>
      <point x="313" y="1386" type="line"/>
      <point x="313" y="1386" type="line"/>
      <point x="350" y="1386" type="line"/>
      <point x="535" y="1589" type="line"/>
      <point x="535" y="1589" type="line"/>
      <point x="489" y="1589" type="line"/>
    </contour>
  </outline>
</glyph>
<glyph name="Otilde" format="2">
  <advance width="664"/>
  <unicode hex="00D5"/>
  <anchor x="332" y="0" name="bottom"/>
  <anchor x="332" y="639" name="center"/>
  <anchor x="481" y="10" name="ogonek"/>
  <anchor x="332" y="1529" name="top"/>
  <anchor x="20" y="1278" name="topleft"/>
  <anchor x="568" y="1278" name="topright"/>
  <outline>
    <contour>
      <point x="332" y="-15" type="curve" smooth="yes"/>
      <point x="485" y="-15"/>
      <point x="564" y="89"/>
      <point x="564" y="291" type="curve" smooth="yes"/>
      <point x="564" y="985" type="line" smooth="yes"/>
      <point x="564" y="1187"/>
      <point x="485" y="1293"/>
      <point x="332" y="1293" type="curve" smooth="yes"/>
      <point x="178" y="1293"/>
      <point x="100" y="1187"/>
      <point x="100" y="985" type="curve" smooth="yes"/>
      <point x="100" y="291" type="line" smooth="yes"/>
      <point x="100" y="89"/>
      <point x="178" y="-15"/>
    </contour>
    <contour>
      <point x="332" y="21" type="curve" smooth="yes"/>
      <point x="201" y="21"/>
      <point x="139" y="116"/>
      <point x="139" y="290" type="curve" smooth="yes"/>
      <point x="139" y="987" type="line" smooth="yes"/>
      <point x="139" y="1162"/>
      <point x="201" y="1257"/>
      <point x="332" y="1257" type="curve" smooth="yes"/>
      <point x="463" y="1257"/>
      <point x="525" y="1162"/>
      <point x="525" y="987" type="curve" smooth="yes"/>
      <point x="525" y="290" type="line" smooth="yes"/>
      <point x="525" y="116"/>
      <point x="463" y="21"/>
    </contour>
    <contour>
      <point x="422" y="1433" type="curve" smooth="yes"/>
      <point x="482" y="1433"/>
      <point x="502" y="1464"/>
      <point x="502" y="1522" type="curve" smooth="yes"/>
      <point x="502" y="1550" type="line"/>
      <point x="470" y="1550" type="line"/>
      <point x="470" y="1526" type="line" smooth="yes"/>
      <point x="470" y="1481"/>
      <point x="460" y="1464"/>
      <point x="424" y="1464" type="curve" smooth="yes"/>
      <point x="368" y="1464"/>
      <point x="309" y="1543"/>
      <point x="241" y="1543" type="curve" smooth="yes"/>
      <point x="180" y="1543"/>
      <point x="161" y="1512"/>
      <point x="161" y="1454" type="curve" smooth="yes"/>
      <point x="161" y="1425" type="line"/>
      <point x="192" y="1425" type="line"/>
      <point x="192" y="1450" type="line" smooth="yes"/>
      <point x="192" y="1494"/>
      <point x="203" y="1512"/>
      <point x="239" y="1512" type="curve" smooth="yes"/>
      <point x="295" y="1512"/>
      <point x="352" y="1433"/>
    </contour>
  </outline>
</glyph>
<glyph name="Ucircumflex" format="2">
  <advance width="686"/>
  <unicode hex="00DB"/>
  <anchor x="343" y="0" name="bottom"/>
  <anchor x="491" y="10" name="ogonek"/>
  <anchor x="343" y="1516" name="top"/>
  <anchor x="665" y="1278" name="topright"/>
  <outline>
    <contour>
      <point x="343" y="-15" type="curve" smooth="yes"/>
      <point x="497" y="-15"/>
      <point x="572" y="86"/>
      <point x="572" y="281" type="curve" smooth="yes"/>
      <point x="572" y="1278" type="line"/>
      <point x="533" y="1278" type="line"/>
      <point x="533" y="281" type="line" smooth="yes"/>
      <point x="533" y="113"/>
      <point x="474" y="21"/>
      <point x="343" y="21" type="curve" smooth="yes"/>
      <point x="212" y="21"/>
      <point x="153" y="113"/>
      <point x="153" y="281" type="curve" smooth="yes"/>
      <point x="153" y="1278" type="line"/>
      <point x="114" y="1278" type="line"/>
      <point x="114" y="281" type="line" smooth="yes"/>
      <point x="114" y="86"/>
      <point x="189" y="-15"/>
    </contour>
    <contour>
      <point x="169" y="1386" type="line"/>
      <point x="169" y="1386" type="line"/>
      <point x="203" y="1386" type="line"/>
      <point x="339" y="1559" type="line"/>
      <point x="346" y="1559" type="line"/>
      <point x="482" y="1386" type="line"/>
      <point x="516" y="1386" type="line"/>
      <point x="516" y="1386" type="line"/>
      <point x="367" y="1589" type="line"/>
      <point x="318" y="1589" type="line"/>
    </contour>
  </outline>
</glyph>
<glyph name="Udieresis" format="2">
  <advance width="686"/>
  <unicode hex="00DC"/>
  <anchor x="343" y="0" name="bottom"/>
  <anchor x="491" y="10" name="ogonek"/>
  <anchor x="343" y="1536" name="top"/>
  <anchor x="665" y="1278" name="topright"/>
  <outline>
    <contour>
      <point x="343" y="-15" type="curve" smooth="yes"/>
      <point x="497" y="-15"/>
      <point x="572" y="86"/>
      <point x="572" y="281" type="curve" smooth="yes"/>
      <point x="572" y="1278" type="line"/>
      <point x="533" y="1278" type="line"/>
      <point x="533" y="281" type="line" smooth="yes"/>
      <point x="533" y="113"/>
      <point x="474" y="21"/>
      <point x="343" y="21" type="curve" smooth="yes"/>
      <point x="212" y="21"/>
      <point x="153" y="113"/>
      <point x="153" y="281" type="curve" smooth="yes"/>
      <point x="153" y="1278" type="line"/>
      <point x="114" y="1278" type="line"/>
      <point x="114" y="281" type="line" smooth="yes"/>
      <point x="114" y="86"/>
      <point x="189" y="-15"/>
    </contour>
    <contour>
      <point x="251" y="1444" type="curve" smooth="yes"/>
      <point x="273" y="1444"/>
      <point x="280" y="1463"/>
      <point x="280" y="1503" type="curve" smooth="yes"/>
      <point x="280" y="1511" type="line" smooth="yes"/>
      <point x="280" y="1551"/>
      <point x="273" y="1569"/>
      <point x="251" y="1569" type="curve" smooth="yes"/>
      <point x="229" y="1569"/>
      <point x="222" y="1551"/>
      <point x="222" y="1511" type="curve" smooth="yes"/>
      <point x="222" y="1503" type="line" smooth="yes"/>
      <point x="222" y="1463"/>
      <point x="229" y="1444"/>
    </contour>
    <contour>
      <point x="435" y="1444" type="curve" smooth="yes"/>
      <point x="457" y="1444"/>
      <point x="464" y="1463"/>
      <point x="464" y="1503" type="curve" smooth="yes"/>
      <point x="464" y="1511" type="line" smooth="yes"/>
      <point x="464" y="1551"/>
      <point x="457" y="1569"/>
      <point x="435" y="1569" type="curve" smooth="yes"/>
      <point x="413" y="1569"/>
      <point x="406" y="1551"/>
      <point x="406" y="1511" type="curve" smooth="yes"/>
      <point x="406" y="1503" type="line" smooth="yes"/>
      <point x="406" y="1463"/>
      <point x="413" y="1444"/>
    </contour>
  </outline>
</glyph>
<glyph name="atilde" format="2">
  <advance width="553"/>
  <unicode hex="00E3"/>
  <anchor x="263" y="0" name="bottom"/>
  <anchor x="498" y="0" name="ogonek"/>
  <anchor x="263" y="1268" name="top"/>
  <outline>
    <contour>
      <point x="451" y="0" type="line"/>
      <point x="451" y="756" type="line" smooth="yes"/>
      <point x="451" y="918"/>
      <point x="392" y="1003"/>
      <point x="263" y="1003" type="curve" smooth="yes"/>
      <point x="189" y="1003"/>
      <point x="124" y="969"/>
      <point x="78" y="930" type="curve"/>
      <point x="73" y="887" type="line"/>
      <point x="130" y="935"/>
      <point x="196" y="968"/>
      <point x="263" y="968" type="curve" smooth="yes"/>
      <point x="367" y="968"/>
      <point x="414" y="897"/>
      <point x="414" y="754" type="curve" smooth="yes"/>
      <point x="414" y="595" type="line"/>
      <point x="414" y="172" type="line"/>
      <point x="418" y="172" type="line"/>
      <point x="414" y="0" type="line"/>
    </contour>
    <contour>
      <point x="243" y="-13" type="curve" smooth="yes"/>
      <point x="351" y="-13"/>
      <point x="405" y="70"/>
      <point x="423" y="179" type="curve"/>
      <point x="436" y="179" type="line"/>
      <point x="416" y="225" type="line"/>
      <point x="396" y="105"/>
      <point x="346" y="20"/>
      <point x="248" y="20" type="curve" smooth="yes"/>
      <point x="142" y="20"/>
      <point x="101" y="96"/>
      <point x="101" y="231" type="curve" smooth="yes"/>
      <point x="101" y="305" type="line" smooth="yes"/>
      <point x="101" y="418"/>
      <point x="138" y="475"/>
      <point x="255" y="515" type="curve" smooth="yes"/>
      <point x="433" y="576" type="line"/>
      <point x="430" y="611" type="line"/>
      <point x="246" y="546" type="line" smooth="yes"/>
      <point x="104" y="496"/>
      <point x="64" y="427"/>
      <point x="64" y="305" type="curve" smooth="yes"/>
      <point x="64" y="229" type="line" smooth="yes"/>
      <point x="64" y="72"/>
      <point x="119" y="-13"/>
    </contour>
    <contour>
      <point x="356" y="1155" type="curve" smooth="yes"/>
      <point x="411" y="1155"/>
      <point x="432" y="1187"/>
      <point x="432" y="1247" type="curve" smooth="yes"/>
      <point x="432" y="1278" type="line"/>
      <point x="400" y="1278" type="line"/>
      <point x="400" y="1251" type="line" smooth="yes"/>
      <point x="400" y="1204"/>
      <point x="390" y="1186"/>
      <point x="356" y="1186" type="curve" smooth="yes"/>
      <point x="304" y="1186"/>
      <point x="253" y="1271"/>
      <point x="187" y="1271" type="curve" smooth="yes"/>
      <point x="132" y="1271"/>
      <point x="111" y="1238"/>
      <point x="111" y="1179" type="curve" smooth="yes"/>
      <point x="111" y="1147" type="line"/>
      <point x="142" y="1147" type="line"/>
      <point x="142" y="1175" type="line" smooth="yes"/>
      <point x="142" y="1221"/>
      <point x="153" y="1240"/>
      <point x="187" y="1240" type="curve" smooth="yes"/>
      <point x="239" y="1240"/>
      <point x="288" y="1155"/>
    </contour>
  </outline>
</glyph>
<glyph name="ccedilla" format="2">
  <advance width="468"/>
  <unicode hex="00E7"/>
  <anchor x="294" y="-326" name="bottom"/>
  <anchor x="266" y="990" name="top"/>
  <outline>
    <contour>
      <point x="280" y="-13" type="curve" smooth="yes"/>
      <point x="342" y="-13"/>
      <point x="391" y="13"/>
      <point x="423" y="47" type="curve"/>
      <point x="428" y="90" type="line"/>
      <point x="386" y="49"/>
      <point x="341" y="22"/>
      <point x="282" y="22" type="curve" smooth="yes"/>
      <point x="170" y="22"/>
      <point x="126" y="103"/>
      <point x="126" y="247" type="curve" smooth="yes"/>
      <point x="126" y="743" type="line" smooth="yes"/>
      <point x="126" y="887"/>
      <point x="170" y="968"/>
      <point x="281" y="968" type="curve" smooth="yes"/>
      <point x="341" y="968"/>
      <point x="386" y="941"/>
      <point x="426" y="901" type="curve"/>
      <point x="421" y="943" type="line"/>
      <point x="389" y="977"/>
      <point x="340" y="1003"/>
      <point x="281" y="1003" type="curve" smooth="yes"/>
      <point x="146" y="1003"/>
      <point x="89" y="907"/>
      <point x="89" y="743" type="curve" smooth="yes"/>
      <point x="89" y="245" type="line" smooth="yes"/>
      <point x="89" y="80"/>
      <point x="146" y="-13"/>
    </contour>
    <contour>
      <point x="252" y="4" type="line"/>
      <point x="243" y="-118" type="line"/>
      <point x="243" y="-118"/>
      <point x="243" y="-118"/>
      <point x="243" y="-118" type="curve"/>
      <point x="337" y="-123"/>
      <point x="368" y="-151"/>
      <point x="368" y="-210" type="curve" smooth="yes"/>
      <point x="368" y="-215" type="line" smooth="yes"/>
      <point x="368" y="-265"/>
      <point x="338" y="-294"/>
      <point x="274" y="-294" type="curve" smooth="yes"/>
      <point x="241" y="-294"/>
      <point x="210" y="-285"/>
      <point x="187" y="-276" type="curve"/>
      <point x="193" y="-309" type="line"/>
      <point x="215" y="-318"/>
      <point x="245" y="-326"/>
      <point x="272" y="-326" type="curve" smooth="yes"/>
      <point x="351" y="-326"/>
      <point x="401" y="-287"/>
      <point x="401" y="-215" type="curve" smooth="yes"/>
      <point x="401" y="-210" type="line" smooth="yes"/>
      <point x="401" y="-136"/>
      <point x="360" y="-99"/>
      <point x="265" y="-92" type="curve"/>
      <point x="259" y="-92"/>
      <point x="254" y="-92"/>
      <point x="248" y="-92" type="curve"/>
      <point x="272" y="-109" type="line"/>
      <point x="281" y="4" type="line"/>
    </contour>
  </outline>
</glyph>
<glyph name="ecircumflex" format="2">
  <advance width="553"/>
  <unicode hex="00EA"/>
  <anchor x="300" y="0" name="bottom"/>
  <anchor x="458" y="10" name="ogonek"/>
  <anchor x="286" y="1268" name="top"/>
  <outline>
    <contour>
      <point x="303" y="-13" type="curve" smooth="yes"/>
      <point x="374" y="-13"/>
      <point x="431" y="16"/>
      <point x="469" y="49" type="curve"/>
      <point x="474" y="93" type="line"/>
      <point x="427" y="53"/>
      <point x="372" y="22"/>
      <point x="305" y="22" type="curve" smooth="yes"/>
      <point x="192" y="22"/>
      <point x="126" y="99"/>
      <point x="126" y="252" type="curve" smooth="yes"/>
      <point x="126" y="469" type="line"/>
      <point x="126" y="480" type="line"/>
      <point x="126" y="749" type="line" smooth="yes"/>
      <point x="126" y="892"/>
      <point x="178" y="970"/>
      <point x="286" y="970" type="curve" smooth="yes"/>
      <point x="395" y="970"/>
      <point x="446" y="892"/>
      <point x="446" y="749" type="curve" smooth="yes"/>
      <point x="446" y="650"/>
      <point x="446" y="565"/>
      <point x="446" y="460" type="curve"/>
      <point x="479" y="460" type="line"/>
      <point x="483" y="517"/>
      <point x="483" y="559"/>
      <point x="483" y="609" type="curve" smooth="yes"/>
      <point x="483" y="749" type="line" smooth="yes"/>
      <point x="483" y="914"/>
      <point x="417" y="1003"/>
      <point x="286" y="1003" type="curve" smooth="yes"/>
      <point x="156" y="1003"/>
      <point x="89" y="914"/>
      <point x="89" y="749" type="curve" smooth="yes"/>
      <point x="89" y="251" type="line" smooth="yes"/>
      <point x="89" y="75"/>
      <point x="167" y="-13"/>
    </contour>
    <contour>
      <point x="465" y="460" type="line"/>
      <point x="465" y="493" type="line"/>
      <point x="106" y="493" type="line"/>
      <point x="106" y="460" type="line"/>
    </contour>
    <contour>
      <point x="142" y="1108" type="line"/>
      <point x="142" y="1108" type="line"/>
      <point x="173" y="1108" type="line"/>
      <point x="282" y="1300" type="line"/>
      <point x="289" y="1300" type="line"/>
      <point x="398" y="1108" type="line"/>
      <point x="429" y="1108" type="line"/>
      <point x="429" y="1108" type="line"/>
      <point x="311" y="1331" type="line"/>
      <point x="260" y="1331" type="line"/>
    </contour>
  </outline>
</glyph>
<glyph name="igrave" format="2">
  <advance width="269"/>
  <unicode hex="00EC"/>
  <anchor x="135" y="0" name="bottom"/>
  <anchor x="200" y="0" name="ogonek"/>
  <anchor x="69" y="1268" name="top"/>
  <outline>
    <contour>
      <point x="153" y="0" type="line"/>
      <point x="153" y="990" type="line"/>
      <point x="116" y="990" type="line"/>
      <point x="116" y="0" type="line"/>
    </contour>
    <contour>
      <point x="42" y="1331" type="line"/>
      <point x="42" y="1331" type="line"/>
      <point x="119" y="1108" type="line"/>
      <point x="149" y="1108" type="line"/>
      <point x="149" y="1108" type="line"/>
      <point x="81" y="1331" type="line"/>
    </contour>
  </outline>
</glyph>
<glyph name="iacute" format="2">
  <advance width="269"/>
  <unicode hex="00ED"/>
  <anchor x="135" y="0" name="bottom"/>
  <anchor x="200" y="0" name="ogonek"/>
  <anchor x="145" y="1268" name="top"/>
  <outline>
    <contour>
      <point x="153" y="0" type="line"/>
      <point x="153" y="990" type="line"/>
      <point x="116" y="990" type="line"/>
      <point x="116" y="0" type="line"/>
    </contour>
    <contour>
      <point x="121" y="1108" type="line"/>
      <point x="121" y="1108" type="line"/>
      <point x="151" y="1108" type="line"/>
      <point x="228" y="1331" type="line"/>
      <point x="228" y="1331" type="line"/>
      <point x="189" y="1331" type="line"/>
    </contour>
  </outline>
</glyph>
<glyph name="icircumflex" format="2">
  <advance width="269"/>
  <unicode hex="00EE"/>
  <anchor x="135" y="0" name="bottom"/>
  <anchor x="200" y="0" name="ogonek"/>
  <anchor x="135" y="1268" name="top"/>
  <outline>
    <contour>
      <point x="153" y="0" type="line"/>
      <point x="153" y="990" type="line"/>
      <point x="116" y="990" type="line"/>
      <point x="116" y="0" type="line"/>
    </contour>
    <contour>
      <point x="11" y="1108" type="line"/>
      <point x="11" y="1108" type="line"/>
      <point x="41" y="1108" type="line"/>
      <point x="131" y="1300" type="line"/>
      <point x="138" y="1300" type="line"/>
      <point x="228" y="1108" type="line"/>
      <point x="258" y="1108" type="line"/>
      <point x="258" y="1108" type="line"/>
      <point x="160" y="1331" type="line"/>
      <point x="109" y="1331" type="line"/>
    </contour>
  </outline>
</glyph>
<glyph name="ugrave" format="2">
  <advance width="623"/>
  <unicode hex="00F9"/>
  <anchor x="312" y="0" name="bottom"/>
  <anchor x="560" y="0" name="ogonek"/>
  <anchor x="246" y="1268" name="top"/>
  <anchor x="605" y="990" name="topright"/>
  <outline>
    <contour>
      <point x="102" y="990" type="line"/>
      <point x="102" y="250" type="line" smooth="yes"/>
      <point x="102" y="79"/>
      <point x="161" y="-13"/>
      <point x="290" y="-13" type="curve" smooth="yes"/>
      <point x="402" y="-13"/>
      <point x="464" y="61"/>
      <point x="485" y="185" type="curve"/>
      <point x="498" y="185" type="line"/>
      <point x="478" y="230" type="line"/>
      <point x="453" y="93"/>
      <point x="396" y="20"/>
      <point x="296" y="20" type="curve" smooth="yes"/>
      <point x="183" y="20"/>
      <point x="139" y="103"/>
      <point x="139" y="252" type="curve" smooth="yes"/>
      <point x="139" y="990" type="line"/>
    </contour>
    <contour>
      <point x="476" y="990" type="line"/>
      <point x="476" y="168" type="line"/>
      <point x="479" y="168" type="line"/>
      <point x="475" y="0" type="line"/>
      <point x="513" y="0" type="line"/>
      <point x="513" y="990" type="line"/>
    </contour>
    <contour>
      <point x="164" y="1331" type="line"/>
      <point x="164" y="1331" type="line"/>
      <point x="295" y="1108" type="line"/>
      <point x="328" y="1108" type="line"/>
      <point x="328" y="1108" type="line"/>
      <point x="206" y="1331" type="line"/>
    </contour>
  </outline>
</glyph>
<glyph name="ringcomb" format="2">
  <advance width="456"/>
  <unicode hex="030A"/>
  <anchor x="228" y="990" name="_top"/>
  <anchor x="231" y="1323" name="top"/>
  <outline>
    <contour>
      <point x="100" y="1224" type="line"/>
      <point x="100" y="1147"/>
      <point x="151" y="1099"/>
      <point x="228" y="1099" type="curve" smooth="yes"/>
      <point x="305" y="1099"/>
      <point x="356" y="1147"/>
      <point x="356" y="1224" type="curve"/>
      <point x="356" y="1226" type="line"/>
      <point x="356" y="1305"/>
      <point x="305" y="1353"/>
      <point x="228" y="1353" type="curve" smooth="yes"/>
      <point x="151" y="1353"/>
      <point x="100" y="1305"/>
      <point x="100" y="1226" type="curve"/>
    </contour>
    <contour>
      <point x="133" y="1226" type="line"/>
      <point x="133" y="1287"/>
      <point x="168" y="1323"/>
      <point x="228" y="1323" type="curve" smooth="yes"/>
      <point x="288" y="1323"/>
      <point x="323" y="1287"/>
      <point x="323" y="1226" type="curve"/>
      <point x="323" y="1224" type="line"/>
      <point x="323" y="1165"/>
      <point x="288" y="1129"/>
      <point x="228" y="1129" type="curve" smooth="yes"/>
      <point x="168" y="1129"/>
      <point x="133" y="1165"/>
      <point x="133" y="1224" type="curve"/>
    </contour>
  </outline>
</glyph>
<glyph name="uni0900" format="2">
  <unicode hex="0900"/>
  <anchor x="-169" y="1262" name="_top"/>
  <outline>
    <contour>
      <point x="-170" y="1568" type="curve" smooth="yes"/>
      <point x="-150" y="1568"/>
      <point x="-142" y="1547"/>
      <point x="-142" y="1503" type="curve" smooth="yes"/>
      <point x="-142" y="1489" type="line" smooth="yes"/>
      <point x="-142" y="1444"/>
      <point x="-150" y="1424"/>
      <point x="-170" y="1424" type="curve" smooth="yes"/>
      <point x="-190" y="1424"/>
      <point x="-197" y="1444"/>
      <point x="-197" y="1489" type="curve" smooth="yes"/>
      <point x="-197" y="1503" type="line" smooth="yes"/>
      <point x="-197" y="1547"/>
      <point x="-190" y="1568"/>
    </contour>
    <contour>
      <point x="-339" y="1507" type="line"/>
      <point x="-339" y="1525"/>
      <point x="-339" y="1537"/>
      <point x="-339" y="1549" type="curve" smooth="yes"/>
      <point x="-339" y="1721"/>
      <point x="-283" y="1785"/>
      <point x="-170" y="1785" type="curve" smooth="yes"/>
      <point x="-58" y="1785"/>
      <point x="-1" y="1721"/>
      <point x="-1" y="1549" type="curve" smooth="yes"/>
      <point x="-1" y="1537"/>
      <point x="-1" y="1525"/>
      <point x="-1" y="1507" type="curve"/>
      <point x="-34" y="1507" type="line"/>
      <point x="-34" y="1544" type="line" smooth="yes"/>
      <point x="-34" y="1700"/>
      <point x="-81" y="1753"/>
      <point x="-170" y="1753" type="curve" smooth="yes"/>
      <point x="-261" y="1753"/>
      <point x="-306" y="1700"/>
      <point x="-306" y="1544" type="curve" smooth="yes"/>
      <point x="-306" y="1507" type="line"/>
    </contour>
  </outline>
  <guideline angle="90" x="-169" y="0"/>
  <guideline angle="0" x="0" y="1262"/>
</glyph>
<glyph name="Chandrabindu.dv" format="2">
  <unicode hex="0901"/>
  <anchor x="-169" y="1262" name="_top"/>
  <outline>
    <contour>
      <point x="-169" y="1641" type="curve" smooth="yes"/>
      <point x="-189" y="1641"/>
      <point x="-197" y="1662"/>
      <point x="-197" y="1706" type="curve" smooth="yes"/>
      <point x="-197" y="1720" type="line" smooth="yes"/>
      <point x="-197" y="1765"/>
      <point x="-189" y="1785"/>
      <point x="-169" y="1785" type="curve" smooth="yes"/>
      <point x="-149" y="1785"/>
      <point x="-142" y="1765"/>
      <point x="-142" y="1720" type="curve" smooth="yes"/>
      <point x="-142" y="1706" type="line" smooth="yes"/>
      <point x="-142" y="1662"/>
      <point x="-149" y="1641"/>
    </contour>
    <contour>
      <point x="0" y="1702" type="line"/>
      <point x="0" y="1684"/>
      <point x="0" y="1672"/>
      <point x="0" y="1660" type="curve" smooth="yes"/>
      <point x="0" y="1488"/>
      <point x="-56" y="1424"/>
      <point x="-169" y="1424" type="curve" smooth="yes"/>
      <point x="-281" y="1424"/>
      <point x="-338" y="1488"/>
      <point x="-338" y="1660" type="curve" smooth="yes"/>
      <point x="-338" y="1672"/>
      <point x="-338" y="1684"/>
      <point x="-338" y="1702" type="curve"/>
      <point x="-305" y="1702" type="line"/>
      <point x="-305" y="1665" type="line" smooth="yes"/>
      <point x="-305" y="1509"/>
      <point x="-258" y="1456"/>
      <point x="-169" y="1456" type="curve" smooth="yes"/>
      <point x="-78" y="1456"/>
      <point x="-33" y="1509"/>
      <point x="-33" y="1665" type="curve" smooth="yes"/>
      <point x="-33" y="1702" type="line"/>
    </contour>
  </outline>
  <guideline angle="90" x="-169" y="0"/>
  <guideline angle="0" x="0" y="1262"/>
</glyph>
<glyph name="Bindu.dv" format="2">
  <unicode hex="0902"/>
  <anchor x="-169" y="1262" name="_top"/>
  <outline>
    <contour>
      <point x="-169" y="1463" type="curve" smooth="yes"/>
      <point x="-191" y="1463"/>
      <point x="-198" y="1483"/>
      <point x="-198" y="1529" type="curve" smooth="yes"/>
      <point x="-198" y="1544" type="line" smooth="yes"/>
      <point x="-198" y="1590"/>
      <point x="-191" y="1610"/>
      <point x="-169" y="1610" type="curve" smooth="yes"/>
      <point x="-146" y="1610"/>
      <point x="-139" y="1590"/>
      <point x="-139" y="1544" type="curve" smooth="yes"/>
      <point x="-139" y="1529" type="line" smooth="yes"/>
      <point x="-139" y="1483"/>
      <point x="-146" y="1463"/>
    </contour>
  </outline>
</glyph>
<glyph name="Visarga.dv" format="2">
  <advance width="228"/>
  <unicode hex="0903"/>
  <outline>
    <contour>
      <point x="-18" y="1242" type="line"/>
      <point x="-24" y="1271" type="line"/>
      <point x="247" y="1271" type="line"/>
      <point x="252" y="1242" type="line"/>
    </contour>
    <contour>
      <point x="109" y="793" type="curve" smooth="yes"/>
      <point x="131" y="793"/>
      <point x="138" y="813"/>
      <point x="138" y="859" type="curve" smooth="yes"/>
      <point x="138" y="874" type="line" smooth="yes"/>
      <point x="138" y="920"/>
      <point x="131" y="940"/>
      <point x="109" y="940" type="curve" smooth="yes"/>
      <point x="87" y="940"/>
      <point x="79" y="920"/>
      <point x="79" y="874" type="curve" smooth="yes"/>
      <point x="79" y="859" type="line" smooth="yes"/>
      <point x="79" y="813"/>
      <point x="87" y="793"/>
    </contour>
    <contour>
      <point x="109" y="234" type="curve" smooth="yes"/>
      <point x="131" y="234"/>
      <point x="138" y="254"/>
      <point x="138" y="300" type="curve" smooth="yes"/>
      <point x="138" y="315" type="line" smooth="yes"/>
      <point x="138" y="361"/>
      <point x="131" y="381"/>
      <point x="109" y="381" type="curve" smooth="yes"/>
      <point x="87" y="381"/>
      <point x="79" y="361"/>
      <point x="79" y="315" type="curve" smooth="yes"/>
      <point x="79" y="300" type="line" smooth="yes"/>
      <point x="79" y="254"/>
      <point x="87" y="234"/>
    </contour>
  </outline>
</glyph>
<glyph name="vowelShortA.dv" format="2">
  <advance width="861"/>
  <unicode hex="0904"/>
  <anchor x="752" y="1262" name="top"/>
  <outline>
    <contour>
      <point x="350" y="1726" type="curve" smooth="yes"/>
      <point x="350" y="1608"/>
      <point x="381" y="1566"/>
      <point x="501" y="1559" type="curve" smooth="yes"/>
      <point x="533" y="1557" type="line" smooth="yes"/>
      <point x="665" y="1549"/>
      <point x="709" y="1485"/>
      <point x="709" y="1351" type="curve" smooth="yes"/>
      <point x="709" y="1262" type="line"/>
      <point x="676" y="1262" type="line"/>
      <point x="676" y="1351" type="line" smooth="yes"/>
      <point x="676" y="1466"/>
      <point x="641" y="1517"/>
      <point x="531" y="1524" type="curve" smooth="yes"/>
      <point x="499" y="1526" type="line" smooth="yes"/>
      <point x="363" y="1534"/>
      <point x="317" y="1592"/>
      <point x="317" y="1713" type="curve" smooth="yes"/>
      <point x="317" y="1726"/>
      <point x="318" y="1741"/>
      <point x="320" y="1754" type="curve"/>
      <point x="350" y="1754" type="line"/>
      <point x="350" y="1749.45"/>
      <point x="350" y="1730.84"/>
    </contour>
    <contour>
      <point x="885" y="1242" type="line"/>
      <point x="523" y="1242" type="line"/>
      <point x="517" y="1271" type="line"/>
      <point x="880" y="1271" type="line"/>
    </contour>
    <contour>
      <point x="675" y="0" type="line"/>
      <point x="675" y="1253" type="line"/>
      <point x="710" y="1253" type="line"/>
      <point x="710" y="0" type="line"/>
    </contour>
    <contour>
      <point x="29" y="137" type="line"/>
      <point x="79" y="95"/>
      <point x="134" y="73"/>
      <point x="196" y="73" type="curve" smooth="yes"/>
      <point x="323" y="73"/>
      <point x="377" y="150"/>
      <point x="377" y="312" type="curve" smooth="yes"/>
      <point x="377" y="418" type="line" smooth="yes"/>
      <point x="377" y="585"/>
      <point x="320" y="657"/>
      <point x="178" y="662" type="curve" smooth="yes"/>
      <point x="116" y="664" type="line"/>
      <point x="116" y="694" type="line"/>
      <point x="178" y="696" type="line" smooth="yes"/>
      <point x="318" y="699"/>
      <point x="375" y="771"/>
      <point x="375" y="935" type="curve" smooth="yes"/>
      <point x="375" y="1029" type="line" smooth="yes"/>
      <point x="375" y="1178"/>
      <point x="328" y="1248"/>
      <point x="219" y="1248" type="curve" smooth="yes"/>
      <point x="162" y="1248"/>
      <point x="118" y="1233"/>
      <point x="68" y="1192" type="curve"/>
      <point x="72" y="1235" type="line"/>
      <point x="110" y="1264"/>
      <point x="158" y="1281"/>
      <point x="219" y="1281" type="curve" smooth="yes"/>
      <point x="349" y="1281"/>
      <point x="410" y="1201"/>
      <point x="410" y="1030" type="curve" smooth="yes"/>
      <point x="410" y="935" type="line" smooth="yes"/>
      <point x="410" y="767"/>
      <point x="351" y="684"/>
      <point x="224" y="679" type="curve"/>
      <point x="224" y="673" type="line"/>
      <point x="346" y="664"/>
      <point x="412" y="594"/>
      <point x="412" y="418" type="curve" smooth="yes"/>
      <point x="412" y="309" type="line" smooth="yes"/>
      <point x="412" y="123"/>
      <point x="342" y="40"/>
      <point x="196" y="40" type="curve" smooth="yes"/>
      <point x="129" y="40"/>
      <point x="75" y="60"/>
      <point x="33" y="95" type="curve"/>
    </contour>
    <contour>
      <point x="213" y="683" type="line"/>
      <point x="261" y="686" type="line"/>
      <point x="261" y="684" type="line"/>
      <point x="335" y="686"/>
      <point x="410" y="688"/>
      <point x="493" y="688" type="curve" smooth="yes"/>
      <point x="692" y="688" type="line"/>
      <point x="692" y="657" type="line"/>
      <point x="493" y="657" type="line" smooth="yes"/>
      <point x="410" y="657"/>
      <point x="337" y="657"/>
      <point x="261" y="664" type="curve"/>
      <point x="261" y="661" type="line"/>
      <point x="213" y="668" type="line"/>
    </contour>
  </outline>
</glyph>
<glyph name="vowelIi.dv" format="2">
  <advance width="602"/>
  <unicode hex="0908"/>
  <anchor x="536" y="-191" name="bottom3"/>
  <anchor x="452" y="1262" name="top"/>
  <outline>
    <contour>
      <point x="335" y="1242" type="line"/>
      <point x="329" y="1271" type="line"/>
      <point x="589" y="1271" type="line"/>
      <point x="595" y="1242" type="line"/>
    </contour>
    <contour>
      <point x="470" y="1252" type="line"/>
      <point x="470" y="1016" type="line"/>
      <point x="436" y="1016" type="line"/>
      <point x="436" y="1252" type="line"/>
    </contour>
    <contour>
      <point x="626" y="1242" type="line"/>
      <point x="-18" y="1242" type="line"/>
      <point x="-24" y="1271" type="line"/>
      <point x="620" y="1271" type="line"/>
    </contour>
    <contour>
      <point x="435" y="1253" type="line"/>
      <point x="470" y="1253" type="line"/>
      <point x="470" y="951" type="line"/>
      <point x="435" y="970" type="line"/>
    </contour>
    <contour>
      <point x="398" y="-328" type="line"/>
      <point x="361" y="-328" type="line"/>
      <point x="179" y="31" type="line"/>
      <point x="85" y="88" type="line"/>
      <point x="208" y="46" type="line"/>
      <point x="208" y="41" type="line"/>
      <point x="236" y="-12"/>
      <point x="259" y="-57"/>
      <point x="289" y="-116" type="curve" smooth="yes"/>
      <point x="398" y="-326" type="line"/>
    </contour>
    <contour>
      <point x="81" y="132" type="line"/>
      <point x="153" y="80"/>
      <point x="209" y="46"/>
      <point x="288" y="46" type="curve" smooth="yes"/>
      <point x="414" y="46"/>
      <point x="477" y="120"/>
      <point x="477" y="289" type="curve" smooth="yes"/>
      <point x="477" y="315" type="line" smooth="yes"/>
      <point x="477" y="460"/>
      <point x="431" y="543"/>
      <point x="324" y="543" type="curve" smooth="yes"/>
      <point x="265" y="543"/>
      <point x="223" y="526"/>
      <point x="177" y="500" type="curve"/>
      <point x="122" y="563"/>
      <point x="98" y="620"/>
      <point x="98" y="740" type="curve" smooth="yes"/>
      <point x="98" y="760" type="line" smooth="yes"/>
      <point x="98" y="924"/>
      <point x="173" y="1003"/>
      <point x="328" y="1003" type="curve" smooth="yes"/>
      <point x="379" y="1003"/>
      <point x="425" y="995"/>
      <point x="470" y="981" type="curve"/>
      <point x="470" y="951" type="line"/>
      <point x="424" y="964"/>
      <point x="379" y="970"/>
      <point x="330" y="970" type="curve" smooth="yes"/>
      <point x="195" y="970"/>
      <point x="134" y="903"/>
      <point x="134" y="758" type="curve" smooth="yes"/>
      <point x="134" y="740" type="line" smooth="yes"/>
      <point x="134" y="635"/>
      <point x="148" y="593"/>
      <point x="186" y="542" type="curve"/>
      <point x="221" y="560"/>
      <point x="269" y="576"/>
      <point x="322" y="576" type="curve" smooth="yes"/>
      <point x="451" y="576"/>
      <point x="512" y="484"/>
      <point x="512" y="316" type="curve" smooth="yes"/>
      <point x="512" y="287" type="line" smooth="yes"/>
      <point x="512" y="94"/>
      <point x="436" y="13"/>
      <point x="289" y="13" type="curve" smooth="yes"/>
      <point x="232" y="13"/>
      <point x="186" y="28"/>
      <point x="155" y="53" type="curve"/>
      <point x="85" y="88" type="line"/>
    </contour>
    <contour>
      <point x="466" y="1259" type="line"/>
      <point x="429" y="1259" type="line"/>
      <point x="429" y="1268" type="line"/>
      <point x="358" y="1319"/>
      <point x="315" y="1389"/>
      <point x="315" y="1509" type="curve" smooth="yes"/>
      <point x="315" y="1544" type="line" smooth="yes"/>
      <point x="315" y="1678"/>
      <point x="369" y="1742"/>
      <point x="477" y="1742" type="curve" smooth="yes"/>
      <point x="505" y="1742"/>
      <point x="527" y="1739"/>
      <point x="549" y="1733" type="curve"/>
      <point x="554" y="1700" type="line"/>
      <point x="525" y="1707"/>
      <point x="505" y="1709"/>
      <point x="479" y="1709" type="curve" smooth="yes"/>
      <point x="394" y="1709"/>
      <point x="350" y="1662"/>
      <point x="350" y="1542" type="curve" smooth="yes"/>
      <point x="350" y="1511" type="line" smooth="yes"/>
      <point x="350" y="1397"/>
      <point x="380" y="1336"/>
      <point x="466" y="1268" type="curve"/>
    </contour>
  </outline>
  <guideline angle="90" x="429" y="0"/>
  <guideline angle="0" x="0" y="-178"/>
  <guideline angle="90" x="452" y="0"/>
  <guideline angle="90" x="466" y="0"/>
  <guideline angle="90" x="448" y="0"/>
</glyph>
<glyph name="vowelUu.dv" format="2">
  <advance width="817"/>
  <unicode hex="090A"/>
  <anchor x="437" y="9" name="bottom3"/>
  <anchor x="236" y="30" name="bottom5"/>
  <anchor x="369" y="1262" name="top"/>
  <outline>
    <contour>
      <point x="462" y="1242" type="line"/>
      <point x="456" y="1271" type="line"/>
      <point x="839" y="1271" type="line"/>
      <point x="845" y="1242" type="line"/>
    </contour>
    <contour>
      <point x="593" y="18" type="line"/>
      <point x="669" y="98"/>
      <point x="695" y="193"/>
      <point x="695" y="340" type="curve" smooth="yes"/>
      <point x="695" y="437" type="line" smooth="yes"/>
      <point x="695" y="603"/>
      <point x="656" y="675"/>
      <point x="559" y="675" type="curve" smooth="yes"/>
      <point x="482" y="675"/>
      <point x="420" y="624"/>
      <point x="407" y="458" type="curve"/>
      <point x="388" y="495" type="line"/>
      <point x="395" y="642"/>
      <point x="462" y="708"/>
      <point x="559" y="708" type="curve" smooth="yes"/>
      <point x="675" y="708"/>
      <point x="730" y="627"/>
      <point x="730" y="437" type="curve" smooth="yes"/>
      <point x="730" y="340" type="line" smooth="yes"/>
      <point x="730" y="184"/>
      <point x="701" y="90"/>
      <point x="638" y="18" type="curve"/>
    </contour>
    <contour>
      <point x="-24" y="1242" type="line"/>
      <point x="-29" y="1271" type="line"/>
      <point x="543" y="1271" type="line"/>
      <point x="548" y="1242" type="line"/>
    </contour>
    <contour>
      <point x="350" y="1249" type="line"/>
      <point x="388" y="1192"/>
      <point x="405" y="1113"/>
      <point x="405" y="992" type="curve" smooth="yes"/>
      <point x="405" y="962" type="line" smooth="yes"/>
      <point x="405" y="771"/>
      <point x="362" y="699"/>
      <point x="243" y="677" type="curve"/>
      <point x="243" y="675" type="line"/>
      <point x="364" y="657"/>
      <point x="412" y="576"/>
      <point x="412" y="397" type="curve" smooth="yes"/>
      <point x="412" y="283" type="line" smooth="yes"/>
      <point x="412" y="85"/>
      <point x="333" y="11"/>
      <point x="204" y="11" type="curve" smooth="yes"/>
      <point x="136" y="11"/>
      <point x="83" y="31"/>
      <point x="42" y="63" type="curve"/>
      <point x="39" y="103" type="line"/>
      <point x="88" y="66"/>
      <point x="140" y="44"/>
      <point x="204" y="44" type="curve" smooth="yes"/>
      <point x="309" y="44"/>
      <point x="377" y="105"/>
      <point x="377" y="283" type="curve" smooth="yes"/>
      <point x="377" y="399" type="line" smooth="yes"/>
      <point x="377" y="592"/>
      <point x="322" y="655"/>
      <point x="178" y="659" type="curve" smooth="yes"/>
      <point x="114" y="661" type="line"/>
      <point x="114" y="692" type="line"/>
      <point x="178" y="694" type="line" smooth="yes"/>
      <point x="328" y="697"/>
      <point x="370" y="776"/>
      <point x="370" y="962" type="curve" smooth="yes"/>
      <point x="370" y="990" type="line" smooth="yes"/>
      <point x="370" y="1110"/>
      <point x="357" y="1190"/>
      <point x="311" y="1249" type="curve"/>
    </contour>
  </outline>
</glyph>
<glyph name="vowelRu.dv" format="2">
  <advance width="972"/>
  <unicode hex="090B"/>
  <anchor x="721" y="9" name="bottom3"/>
  <anchor x="507" y="30" name="bottom5"/>
  <anchor x="506" y="1262" name="top"/>
  <outline>
    <contour>
      <point x="990" y="1242" type="line"/>
      <point x="-19" y="1242" type="line"/>
      <point x="-24" y="1271" type="line"/>
      <point x="984" y="1271" type="line"/>
    </contour>
    <contour>
      <point x="782" y="699" type="line"/>
      <point x="788" y="664" type="line"/>
      <point x="517" y="456" type="line"/>
      <point x="510" y="491" type="line"/>
    </contour>
    <contour>
      <point x="788" y="1010" type="line"/>
      <point x="798" y="916"/>
      <point x="803" y="863"/>
      <point x="813" y="769" type="curve"/>
      <point x="793" y="670" type="line"/>
      <point x="756" y="662" type="line"/>
      <point x="756" y="1010" type="line"/>
    </contour>
    <contour>
      <point x="664" y="109" type="curve"/>
      <point x="661" y="145" type="line"/>
      <point x="681" y="134"/>
      <point x="703" y="125"/>
      <point x="736" y="125" type="curve" smooth="yes"/>
      <point x="810" y="125"/>
      <point x="848" y="167"/>
      <point x="848" y="322" type="curve" smooth="yes"/>
      <point x="848" y="394" type="line" smooth="yes"/>
      <point x="848" y="532"/>
      <point x="821" y="600"/>
      <point x="760" y="661" type="curve"/>
      <point x="789" y="675" type="line"/>
      <point x="855" y="609"/>
      <point x="883" y="528"/>
      <point x="883" y="397" type="curve" smooth="yes"/>
      <point x="883" y="320" type="line" smooth="yes"/>
      <point x="883" y="145"/>
      <point x="828" y="92"/>
      <point x="736" y="92" type="curve" smooth="yes"/>
      <point x="706" y="92"/>
      <point x="681" y="100"/>
    </contour>
    <contour>
      <point x="524" y="0" type="line"/>
      <point x="489" y="0" type="line"/>
      <point x="489" y="1248" type="line"/>
      <point x="524" y="1248" type="line"/>
    </contour>
    <contour>
      <point x="504" y="443" type="line"/>
      <point x="63" y="110" type="line"/>
      <point x="63" y="151" type="line"/>
      <point x="204" y="259" type="line"/>
      <point x="221" y="263" type="line"/>
      <point x="252" y="294"/>
      <point x="279" y="315"/>
      <point x="318" y="344" type="curve" smooth="yes"/>
      <point x="499" y="480" type="line"/>
    </contour>
    <contour>
      <point x="230" y="258" type="line"/>
      <point x="193" y="245" type="line"/>
      <point x="252" y="333"/>
      <point x="265" y="408"/>
      <point x="265" y="583" type="curve" smooth="yes"/>
      <point x="265" y="745" type="line" smooth="yes"/>
      <point x="265" y="918"/>
      <point x="228" y="975"/>
      <point x="151" y="975" type="curve" smooth="yes"/>
      <point x="113" y="975"/>
      <point x="84" y="963"/>
      <point x="52" y="942" type="curve"/>
      <point x="55" y="982" type="line"/>
      <point x="81" y="998"/>
      <point x="114" y="1008"/>
      <point x="151" y="1008" type="curve" smooth="yes"/>
      <point x="252" y="1008"/>
      <point x="300" y="939"/>
      <point x="300" y="749" type="curve" smooth="yes"/>
      <point x="300" y="581" type="line" smooth="yes"/>
      <point x="300" y="386"/>
      <point x="272" y="320"/>
      <point x="230" y="263" type="curve"/>
    </contour>
  </outline>
  <guideline angle="90" x="-260" y="0"/>
  <guideline angle="90" x="-29" y="0"/>
  <guideline angle="90" x="506" y="0"/>
</glyph>
<glyph name="vowelChandraE.dv" format="2">
  <advance width="678"/>
  <unicode hex="090D"/>
  <outline>
    <contour>
      <point x="506" y="1702" type="line"/>
      <point x="506" y="1684"/>
      <point x="506" y="1672"/>
      <point x="506" y="1660" type="curve" smooth="yes"/>
      <point x="506" y="1488"/>
      <point x="449" y="1424"/>
      <point x="337" y="1424" type="curve" smooth="yes"/>
      <point x="224" y="1424"/>
      <point x="168" y="1488"/>
      <point x="168" y="1660" type="curve" smooth="yes"/>
      <point x="168" y="1672"/>
      <point x="168" y="1684"/>
      <point x="168" y="1702" type="curve"/>
      <point x="201" y="1702" type="line"/>
      <point x="201" y="1697.72"/>
      <point x="201" y="1667.49"/>
      <point x="201" y="1665" type="curve" smooth="yes"/>
      <point x="201" y="1509"/>
      <point x="247" y="1456"/>
      <point x="337" y="1456" type="curve" smooth="yes"/>
      <point x="427" y="1456"/>
      <point x="473" y="1509"/>
      <point x="473" y="1665" type="curve" smooth="yes"/>
      <point x="473" y="1667.72"/>
      <point x="473" y="1698.67"/>
      <point x="473" y="1702" type="curve"/>
    </contour>
    <contour>
      <point x="-19" y="1242" type="line"/>
      <point x="-24" y="1271" type="line"/>
      <point x="696" y="1271" type="line"/>
      <point x="702" y="1242" type="line"/>
    </contour>
    <contour>
      <point x="177" y="461" type="line" smooth="yes"/>
      <point x="177" y="142"/>
      <point x="266" y="33"/>
      <point x="443" y="33" type="curve" smooth="yes"/>
      <point x="474" y="33"/>
      <point x="504" y="37"/>
      <point x="538" y="48" type="curve"/>
      <point x="533" y="13" type="line"/>
      <point x="506" y="4"/>
      <point x="474" y="0"/>
      <point x="443" y="0" type="curve" smooth="yes"/>
      <point x="247" y="0"/>
      <point x="142" y="116"/>
      <point x="142" y="456" type="curve" smooth="yes"/>
      <point x="142" y="1249" type="line"/>
      <point x="177" y="1249" type="line"/>
    </contour>
    <contour>
      <point x="547" y="721" type="line" smooth="yes"/>
      <point x="547" y="479"/>
      <point x="497" y="395"/>
      <point x="364" y="395" type="curve" smooth="yes"/>
      <point x="360" y="395"/>
      <point x="358" y="395"/>
      <point x="354" y="395" type="curve"/>
      <point x="354" y="427" type="line"/>
      <point x="354.55" y="427"/>
      <point x="360.347" y="427"/>
      <point x="361" y="427" type="curve"/>
      <point x="474" y="427"/>
      <point x="512" y="499"/>
      <point x="512" y="727" type="curve" smooth="yes"/>
      <point x="512" y="1255" type="line"/>
      <point x="547" y="1257" type="line"/>
    </contour>
  </outline>
  <guideline angle="90" x="171" y="0"/>
</glyph>
<glyph name="vowelAi.dv" format="2">
  <advance width="678"/>
  <unicode hex="0910"/>
  <anchor x="569" y="9" name="bottom3"/>
  <anchor x="478" y="1262" name="top"/>
  <outline>
    <contour>
      <point x="-19" y="1242" type="line"/>
      <point x="-24" y="1271" type="line"/>
      <point x="696" y="1271" type="line"/>
      <point x="702" y="1242" type="line"/>
    </contour>
    <contour>
      <point x="177" y="461" type="line" smooth="yes"/>
      <point x="177" y="142"/>
      <point x="266" y="33"/>
      <point x="443" y="33" type="curve" smooth="yes"/>
      <point x="474" y="33"/>
      <point x="504" y="37"/>
      <point x="538" y="48" type="curve"/>
      <point x="533" y="13" type="line"/>
      <point x="506" y="4"/>
      <point x="474" y="0"/>
      <point x="443" y="0" type="curve" smooth="yes"/>
      <point x="247" y="0"/>
      <point x="142" y="116"/>
      <point x="142" y="456" type="curve" smooth="yes"/>
      <point x="142" y="1249" type="line"/>
      <point x="177" y="1249" type="line"/>
    </contour>
    <contour>
      <point x="547" y="721" type="line" smooth="yes"/>
      <point x="547" y="479"/>
      <point x="497" y="395"/>
      <point x="364" y="395" type="curve" smooth="yes"/>
      <point x="360" y="395"/>
      <point x="358" y="395"/>
      <point x="354" y="395" type="curve"/>
      <point x="354" y="427" type="line"/>
      <point x="354.55" y="427"/>
      <point x="360.347" y="427"/>
      <point x="361" y="427" type="curve"/>
      <point x="474" y="427"/>
      <point x="512" y="499"/>
      <point x="512" y="727" type="curve" smooth="yes"/>
      <point x="512" y="1255" type="line"/>
      <point x="547" y="1257" type="line"/>
    </contour>
    <contour>
      <point x="138" y="1746" type="line"/>
      <point x="176" y="1746" type="line"/>
      <point x="252.212" y="1647.42"/>
      <point x="469.14" y="1366.83"/>
      <point x="544" y="1270" type="curve"/>
      <point x="544" y="1262" type="line"/>
      <point x="514" y="1262" type="line"/>
      <point x="514" y="1266" type="line"/>
      <point x="443" y="1353"/>
      <point x="365" y="1448"/>
      <point x="310" y="1519" type="curve" smooth="yes"/>
      <point x="138" y="1741" type="line"/>
    </contour>
  </outline>
</glyph>
<glyph name="Ga.dv" format="2">
  <advance width="709"/>
  <unicode hex="0917"/>
  <anchor x="540" y="9" name="bottom"/>
  <anchor x="535" y="9" name="bottom2"/>
  <anchor x="558" y="9" name="bottom3"/>
  <anchor x="540" y="30" name="bottom5"/>
  <anchor x="540" y="1262" name="top"/>
  <outline>
    <contour>
      <point x="558" y="1251" type="line"/>
      <point x="558" y="0" type="line"/>
      <point x="523" y="0" type="line"/>
      <point x="523" y="1251" type="line"/>
    </contour>
    <contour>
      <point x="423" y="1242" type="line"/>
      <point x="417" y="1271" type="line"/>
      <point x="727" y="1271" type="line"/>
      <point x="733" y="1242" type="line"/>
    </contour>
    <contour>
      <point x="-12" y="1242" type="line"/>
      <point x="-18" y="1271" type="line"/>
      <point x="727" y="1271" type="line"/>
      <point x="733" y="1242" type="line"/>
    </contour>
    <contour>
      <point x="190" y="1253" type="line"/>
      <point x="230" y="1187"/>
      <point x="243" y="1097"/>
      <point x="243" y="881" type="curve" smooth="yes"/>
      <point x="243" y="711" type="line" smooth="yes"/>
      <point x="243" y="429.653"/>
      <point x="191.615" y="346"/>
      <point x="76" y="346" type="curve" smooth="yes"/>
      <point x="60.2308" y="346"/>
      <point x="46.4615" y="348.4"/>
      <point x="35" y="352" type="curve"/>
      <point x="32" y="384" type="line"/>
      <point x="45.5525" y="380.453"/>
      <point x="58" y="379"/>
      <point x="72" y="379" type="curve" smooth="yes"/>
      <point x="168.785" y="379"/>
      <point x="208" y="457.601"/>
      <point x="208" y="715" type="curve" smooth="yes"/>
      <point x="208" y="885" type="line" smooth="yes"/>
      <point x="208" y="1089"/>
      <point x="196" y="1187"/>
      <point x="153" y="1253" type="curve"/>
    </contour>
  </outline>
  <guideline angle="0" x="0" y="119"/>
  <guideline angle="90" x="50" y="0"/>
  <guideline angle="90" x="535" y="0"/>
  <guideline angle="0" x="0" y="9"/>
  <guideline angle="90" x="540" y="0"/>
  <guideline angle="90" x="523" y="0"/>
  <guideline angle="0" x="0" y="1262"/>
  <guideline angle="90" x="558" y="0"/>
  <guideline angle="0" x="0" y="-125"/>
</glyph>
<glyph name="Gha.dv" format="2">
  <advance width="736"/>
  <unicode hex="0918"/>
  <anchor x="567" y="9" name="bottom"/>
  <anchor x="562" y="9" name="bottom2"/>
  <anchor x="585" y="9" name="bottom3"/>
  <anchor x="567" y="30" name="bottom5"/>
  <anchor x="567" y="1262" name="top"/>
  <outline>
    <contour>
      <point x="585" y="1251" type="line"/>
      <point x="585" y="0" type="line"/>
      <point x="550" y="0" type="line"/>
      <point x="550" y="1251" type="line"/>
    </contour>
    <contour>
      <point x="450" y="1242" type="line"/>
      <point x="444" y="1271" type="line"/>
      <point x="754" y="1271" type="line"/>
      <point x="760" y="1242" type="line"/>
    </contour>
    <contour>
      <point x="-18" y="1242" type="line"/>
      <point x="-24" y="1271" type="line"/>
      <point x="754" y="1271" type="line"/>
      <point x="760" y="1242" type="line"/>
    </contour>
    <contour>
      <point x="294" y="764" type="line"/>
      <point x="175" y="778"/>
      <point x="114" y="850"/>
      <point x="114" y="1029" type="curve" smooth="yes"/>
      <point x="114" y="1075" type="line" smooth="yes"/>
      <point x="114" y="1159"/>
      <point x="129" y="1214"/>
      <point x="155" y="1255" type="curve"/>
      <point x="193" y="1255" type="line"/>
      <point x="162" y="1211"/>
      <point x="149" y="1152"/>
      <point x="149" y="1073" type="curve" smooth="yes"/>
      <point x="149" y="1029" type="line" smooth="yes"/>
      <point x="149" y="854"/>
      <point x="204" y="786"/>
      <point x="348" y="781" type="curve" smooth="yes"/>
      <point x="397" y="779" type="line"/>
      <point x="397" y="748" type="line"/>
      <point x="348" y="746" type="line" smooth="yes"/>
      <point x="202" y="741"/>
      <point x="142" y="675"/>
      <point x="142" y="515" type="curve" smooth="yes"/>
      <point x="142" y="469" type="line" smooth="yes"/>
      <point x="142" y="309"/>
      <point x="210" y="228"/>
      <point x="344" y="228" type="curve" smooth="yes"/>
      <point x="447" y="228"/>
      <point x="530" y="278"/>
      <point x="554" y="405" type="curve"/>
      <point x="559" y="344" type="line"/>
      <point x="555" y="344" type="line"/>
      <point x="535" y="256"/>
      <point x="461" y="195"/>
      <point x="344" y="195" type="curve" smooth="yes"/>
      <point x="190" y="195"/>
      <point x="107" y="285"/>
      <point x="107" y="469" type="curve" smooth="yes"/>
      <point x="107" y="515" type="line" smooth="yes"/>
      <point x="107" y="679"/>
      <point x="173" y="753"/>
      <point x="294" y="762" type="curve"/>
    </contour>
  </outline>
</glyph>
<glyph name="Nga.dv" format="2">
  <advance width="705"/>
  <unicode hex="0919"/>
  <anchor x="328" y="22" name="bottom"/>
  <anchor x="275" y="22" name="bottom2"/>
  <anchor x="518" y="22" name="bottom3"/>
  <anchor x="316" y="43" name="bottom5"/>
  <anchor x="451" y="1262" name="top"/>
  <outline>
    <contour>
      <point x="631" y="596" type="curve" smooth="yes"/>
      <point x="607" y="596"/>
      <point x="600" y="616"/>
      <point x="600" y="666" type="curve" smooth="yes"/>
      <point x="600" y="681" type="line" smooth="yes"/>
      <point x="600" y="731"/>
      <point x="607" y="751"/>
      <point x="631" y="751" type="curve" smooth="yes"/>
      <point x="655" y="751"/>
      <point x="662" y="731"/>
      <point x="662" y="681" type="curve" smooth="yes"/>
      <point x="662" y="666" type="line" smooth="yes"/>
      <point x="662" y="616"/>
      <point x="655" y="596"/>
    </contour>
    <contour>
      <point x="729" y="1242" type="line"/>
      <point x="543" y="1242" type="line"/>
      <point x="537" y="1271" type="line"/>
      <point x="723" y="1271" type="line"/>
    </contour>
    <contour>
      <point x="334" y="1242" type="line"/>
      <point x="328" y="1271" type="line"/>
      <point x="588" y="1271" type="line"/>
      <point x="594" y="1242" type="line"/>
    </contour>
    <contour>
      <point x="469" y="1252" type="line"/>
      <point x="469" y="1016" type="line"/>
      <point x="435" y="1016" type="line"/>
      <point x="435" y="1252" type="line"/>
    </contour>
    <contour>
      <point x="626" y="1242" type="line"/>
      <point x="-18" y="1242" type="line"/>
      <point x="-24" y="1271" type="line"/>
      <point x="620" y="1271" type="line"/>
    </contour>
    <contour>
      <point x="434" y="1253" type="line"/>
      <point x="469" y="1253" type="line"/>
      <point x="469" y="951" type="line"/>
      <point x="455" y="958"/>
      <point x="436" y="954"/>
      <point x="434" y="970" type="curve"/>
    </contour>
    <contour>
      <point x="88" y="131" type="line"/>
      <point x="145" y="77"/>
      <point x="202" y="46"/>
      <point x="289" y="46" type="curve" smooth="yes"/>
      <point x="420" y="46"/>
      <point x="477" y="123"/>
      <point x="477" y="287" type="curve" smooth="yes"/>
      <point x="477" y="315" type="line" smooth="yes"/>
      <point x="477" y="460"/>
      <point x="432" y="543"/>
      <point x="328" y="543" type="curve" smooth="yes"/>
      <point x="267" y="543"/>
      <point x="226" y="526"/>
      <point x="180" y="500" type="curve"/>
      <point x="121" y="563"/>
      <point x="98" y="622"/>
      <point x="98" y="742" type="curve" smooth="yes"/>
      <point x="98" y="760" type="line" smooth="yes"/>
      <point x="98" y="924"/>
      <point x="173" y="1003"/>
      <point x="326" y="1003" type="curve" smooth="yes"/>
      <point x="379" y="1003"/>
      <point x="425" y="995"/>
      <point x="469" y="981" type="curve"/>
      <point x="469" y="951" type="line"/>
      <point x="423" y="964"/>
      <point x="379" y="970"/>
      <point x="328" y="970" type="curve" smooth="yes"/>
      <point x="195" y="970"/>
      <point x="133" y="903"/>
      <point x="133" y="758" type="curve" smooth="yes"/>
      <point x="133" y="742" type="line" smooth="yes"/>
      <point x="133" y="637"/>
      <point x="149" y="590"/>
      <point x="190" y="542" type="curve"/>
      <point x="224" y="560"/>
      <point x="270" y="576"/>
      <point x="324" y="576" type="curve" smooth="yes"/>
      <point x="453" y="576"/>
      <point x="512" y="484"/>
      <point x="512" y="316" type="curve" smooth="yes"/>
      <point x="512" y="285" type="line" smooth="yes"/>
      <point x="512" y="98"/>
      <point x="440" y="13"/>
      <point x="289" y="13" type="curve" smooth="yes"/>
      <point x="195" y="13"/>
      <point x="136" y="44"/>
      <point x="92" y="85" type="curve"/>
    </contour>
  </outline>
</glyph>
<glyph name="Ca.dv" format="2">
  <advance width="723"/>
  <unicode hex="091A"/>
  <anchor x="554" y="9" name="bottom"/>
  <anchor x="549" y="9" name="bottom2"/>
  <anchor x="572" y="9" name="bottom3"/>
  <anchor x="554" y="30" name="bottom5"/>
  <anchor x="554" y="1262" name="top"/>
  <outline>
    <contour>
      <point x="572" y="1251" type="line"/>
      <point x="572" y="0" type="line"/>
      <point x="537" y="0" type="line"/>
      <point x="537" y="1251" type="line"/>
    </contour>
    <contour>
      <point x="437" y="1242" type="line"/>
      <point x="431" y="1271" type="line"/>
      <point x="741" y="1271" type="line"/>
      <point x="747" y="1242" type="line"/>
    </contour>
    <contour>
      <point x="-18" y="1242" type="line"/>
      <point x="-24" y="1271" type="line"/>
      <point x="742" y="1271" type="line"/>
      <point x="747" y="1242" type="line"/>
    </contour>
    <contour>
      <point x="421" y="964" type="line"/>
      <point x="421" y="936" type="line"/>
      <point x="270" y="935" type="line"/>
      <point x="186" y="933" type="line"/>
      <point x="35" y="933" type="line"/>
      <point x="35" y="964" type="line"/>
    </contour>
    <contour>
      <point x="353" y="195" type="curve" smooth="yes"/>
      <point x="215" y="195"/>
      <point x="144" y="284"/>
      <point x="144" y="477" type="curve" smooth="yes"/>
      <point x="144" y="666" type="line" smooth="yes"/>
      <point x="144" y="844"/>
      <point x="184" y="915"/>
      <point x="274" y="937" type="curve"/>
      <point x="274" y="948" type="line"/>
      <point x="421" y="948" type="line"/>
      <point x="421" y="936" type="line"/>
      <point x="352" y="931" type="line" smooth="yes"/>
      <point x="230" y="922"/>
      <point x="179" y="874"/>
      <point x="179" y="670" type="curve" smooth="yes"/>
      <point x="179" y="482" type="line" smooth="yes"/>
      <point x="179" y="309"/>
      <point x="233" y="228"/>
      <point x="353" y="228" type="curve" smooth="yes"/>
      <point x="439" y="228"/>
      <point x="519" y="278"/>
      <point x="541" y="401" type="curve"/>
      <point x="546" y="344" type="line"/>
      <point x="543" y="344" type="line"/>
      <point x="526" y="254"/>
      <point x="454" y="195"/>
    </contour>
  </outline>
  <guideline angle="0" x="0" y="94"/>
  <guideline angle="90" x="549" y="0"/>
  <guideline angle="0" x="0" y="9"/>
  <guideline angle="90" x="554" y="0"/>
  <guideline angle="90" x="537" y="0"/>
  <guideline angle="0" x="0" y="1262"/>
  <guideline angle="90" x="572" y="0"/>
  <guideline angle="0" x="0" y="-125"/>
</glyph>
<glyph name="Cha.dv" format="2">
  <advance width="866"/>
  <unicode hex="091B"/>
  <anchor x="467" y="20" name="bottom"/>
  <anchor x="428" y="20" name="bottom2"/>
  <anchor x="649" y="20" name="bottom3"/>
  <anchor x="433" y="-121" name="bottom4"/>
  <anchor x="447" y="41" name="bottom5"/>
  <anchor x="619" y="1262" name="top"/>
  <outline>
    <contour>
      <point x="502" y="1242" type="line"/>
      <point x="496" y="1271" type="line"/>
      <point x="756" y="1271" type="line"/>
      <point x="762" y="1242" type="line"/>
    </contour>
    <contour>
      <point x="637" y="1252" type="line"/>
      <point x="637" y="1016" type="line"/>
      <point x="603" y="1016" type="line"/>
      <point x="603" y="1252" type="line"/>
    </contour>
    <contour>
      <point x="883" y="1271" type="line"/>
      <point x="889" y="1242" type="line"/>
      <point x="-37" y="1242" type="line"/>
      <point x="-42" y="1271" type="line"/>
    </contour>
    <contour>
      <point x="602" y="1005" type="line"/>
      <point x="602" y="1253" type="line"/>
      <point x="637" y="1253" type="line"/>
      <point x="637" y="1005" type="line"/>
    </contour>
    <contour>
      <point x="429" y="11" type="curve" smooth="yes"/>
      <point x="226" y="11"/>
      <point x="112" y="123"/>
      <point x="112" y="366" type="curve" smooth="yes"/>
      <point x="112" y="401" type="line" smooth="yes"/>
      <point x="112" y="580"/>
      <point x="151" y="659"/>
      <point x="278" y="679" type="curve"/>
      <point x="278" y="681" type="line"/>
      <point x="151" y="705"/>
      <point x="112" y="795"/>
      <point x="112" y="977" type="curve" smooth="yes"/>
      <point x="112" y="1006" type="line" smooth="yes"/>
      <point x="112" y="1108"/>
      <point x="121" y="1187"/>
      <point x="156" y="1251" type="curve"/>
      <point x="193" y="1251" type="line"/>
      <point x="156" y="1183"/>
      <point x="147" y="1106"/>
      <point x="147" y="1005" type="curve" smooth="yes"/>
      <point x="147" y="979" type="line" smooth="yes"/>
      <point x="147" y="797"/>
      <point x="184" y="707"/>
      <point x="329" y="697" type="curve"/>
      <point x="357" y="696" type="line"/>
      <point x="357" y="664" type="line"/>
      <point x="326" y="662" type="line" smooth="yes"/>
      <point x="186" y="655"/>
      <point x="147" y="578"/>
      <point x="147" y="399" type="curve" smooth="yes"/>
      <point x="147" y="370" type="line" smooth="yes"/>
      <point x="147" y="147"/>
      <point x="246" y="45"/>
      <point x="429" y="45" type="curve" smooth="yes"/>
      <point x="624" y="45"/>
      <point x="723" y="166"/>
      <point x="723" y="436" type="curve" smooth="yes"/>
      <point x="723" y="486" type="line"/>
      <point x="723" y="502" type="line"/>
      <point x="723" y="815" type="line" smooth="yes"/>
      <point x="723" y="927"/>
      <point x="686" y="986"/>
      <point x="607" y="986" type="curve" smooth="yes"/>
      <point x="528" y="986"/>
      <point x="489" y="927"/>
      <point x="489" y="813" type="curve" smooth="yes"/>
      <point x="489" y="572" type="line" smooth="yes"/>
      <point x="489" y="445"/>
      <point x="526" y="399"/>
      <point x="598" y="399" type="curve" smooth="yes"/>
      <point x="666" y="399"/>
      <point x="705" y="442"/>
      <point x="725" y="526" type="curve"/>
      <point x="730" y="473" type="line"/>
      <point x="727" y="473" type="line"/>
      <point x="712" y="410"/>
      <point x="672" y="366"/>
      <point x="598" y="366" type="curve" smooth="yes"/>
      <point x="512" y="366"/>
      <point x="455" y="421"/>
      <point x="455" y="569" type="curve" smooth="yes"/>
      <point x="455" y="815" type="line" smooth="yes"/>
      <point x="455" y="949"/>
      <point x="509" y="1019"/>
      <point x="607" y="1019" type="curve" smooth="yes"/>
      <point x="705" y="1019"/>
      <point x="758" y="951"/>
      <point x="758" y="817" type="curve" smooth="yes"/>
      <point x="758" y="432" type="line" smooth="yes"/>
      <point x="758" y="138"/>
      <point x="648" y="11"/>
    </contour>
  </outline>
</glyph>
<glyph name="Ja.dv" format="2">
  <advance width="801"/>
  <unicode hex="091C"/>
  <anchor x="632" y="9" name="bottom"/>
  <anchor x="627" y="9" name="bottom2"/>
  <anchor x="650" y="9" name="bottom3"/>
  <anchor x="632" y="30" name="bottom5"/>
  <anchor x="632" y="1262" name="top"/>
  <outline>
    <contour>
      <point x="650" y="1251" type="line"/>
      <point x="650" y="0" type="line"/>
      <point x="615" y="0" type="line"/>
      <point x="615" y="1251" type="line"/>
    </contour>
    <contour>
      <point x="515" y="1242" type="line"/>
      <point x="509" y="1271" type="line"/>
      <point x="819" y="1271" type="line"/>
      <point x="825" y="1242" type="line"/>
    </contour>
    <contour>
      <point x="824" y="1242" type="line"/>
      <point x="-18" y="1242" type="line"/>
      <point x="-24" y="1271" type="line"/>
      <point x="819" y="1271" type="line"/>
    </contour>
    <contour>
      <point x="633" y="927" type="line"/>
      <point x="633" y="896" type="line"/>
      <point x="322" y="896" type="line"/>
      <point x="230" y="899" type="line"/>
      <point x="90" y="900" type="line"/>
      <point x="90" y="927" type="line"/>
    </contour>
    <contour>
      <point x="239" y="918" type="line"/>
      <point x="239" y="905" type="line"/>
      <point x="346" y="885"/>
      <point x="385" y="806"/>
      <point x="385" y="637" type="curve" smooth="yes"/>
      <point x="385" y="458" type="line" smooth="yes"/>
      <point x="385" y="250"/>
      <point x="315" y="171"/>
      <point x="184" y="171" type="curve" smooth="yes"/>
      <point x="124" y="171"/>
      <point x="75" y="190"/>
      <point x="42" y="219" type="curve"/>
      <point x="39" y="261" type="line"/>
      <point x="83" y="224"/>
      <point x="125" y="204"/>
      <point x="184" y="204" type="curve" smooth="yes"/>
      <point x="289" y="204"/>
      <point x="350" y="276"/>
      <point x="350" y="460" type="curve" smooth="yes"/>
      <point x="350" y="633" type="line" smooth="yes"/>
      <point x="350" y="826"/>
      <point x="304" y="890"/>
      <point x="169" y="896" type="curve" smooth="yes"/>
      <point x="90" y="900" type="line"/>
      <point x="90" y="918" type="line"/>
    </contour>
  </outline>
  <guideline angle="90" x="627" y="0"/>
  <guideline angle="0" x="0" y="9"/>
  <guideline angle="90" x="632" y="0"/>
  <guideline angle="90" x="615" y="0"/>
  <guideline angle="0" x="0" y="1262"/>
  <guideline angle="90" x="650" y="0"/>
  <guideline angle="0" x="0" y="-125"/>
</glyph>
<glyph name="Jha.dv" format="2">
  <advance width="916"/>
  <unicode hex="091D"/>
  <anchor x="747" y="9" name="bottom"/>
  <anchor x="742" y="9" name="bottom2"/>
  <anchor x="765" y="9" name="bottom3"/>
  <anchor x="747" y="30" name="bottom5"/>
  <anchor x="747" y="1262" name="top"/>
  <outline>
    <contour>
      <point x="765" y="1251" type="line"/>
      <point x="765" y="0" type="line"/>
      <point x="730" y="0" type="line"/>
      <point x="730" y="1251" type="line"/>
    </contour>
    <contour>
      <point x="630" y="1242" type="line"/>
      <point x="624" y="1271" type="line"/>
      <point x="934" y="1271" type="line"/>
      <point x="940" y="1242" type="line"/>
    </contour>
    <contour>
      <point x="940" y="1242" type="line"/>
      <point x="-18" y="1242" type="line"/>
      <point x="-24" y="1271" type="line"/>
      <point x="934" y="1271" type="line"/>
    </contour>
    <contour>
      <point x="429" y="1253" type="line"/>
      <point x="464" y="1253" type="line"/>
      <point x="464" y="951" type="line"/>
      <point x="429" y="970" type="line"/>
    </contour>
    <contour>
      <point x="745" y="553" type="line"/>
      <point x="745" y="522" type="line"/>
      <point x="572" y="522" type="line" smooth="yes"/>
      <point x="501" y="522"/>
      <point x="449" y="523"/>
      <point x="392" y="533" type="curve"/>
      <point x="392" y="553" type="line"/>
    </contour>
    <contour>
      <point x="398" y="-328" type="line"/>
      <point x="361" y="-328" type="line"/>
      <point x="178" y="32" type="line"/>
      <point x="85" y="89" type="line"/>
      <point x="209" y="45" type="line"/>
      <point x="209" y="40" type="line"/>
      <point x="237" y="-12"/>
      <point x="260" y="-57"/>
      <point x="290" y="-116" type="curve" smooth="yes"/>
      <point x="398" y="-326" type="line"/>
    </contour>
    <contour>
      <point x="81" y="132" type="line"/>
      <point x="155" y="78"/>
      <point x="208" y="46"/>
      <point x="281" y="46" type="curve" smooth="yes"/>
      <point x="405" y="46"/>
      <point x="464" y="125"/>
      <point x="464" y="293" type="curve" smooth="yes"/>
      <point x="464" y="315" type="line" smooth="yes"/>
      <point x="464" y="460"/>
      <point x="420" y="543"/>
      <point x="320" y="543" type="curve" smooth="yes"/>
      <point x="261" y="543"/>
      <point x="219" y="526"/>
      <point x="175" y="500" type="curve"/>
      <point x="120" y="565"/>
      <point x="98" y="627"/>
      <point x="98" y="734" type="curve" smooth="yes"/>
      <point x="98" y="760" type="line" smooth="yes"/>
      <point x="98" y="924"/>
      <point x="169" y="1003"/>
      <point x="322" y="1003" type="curve" smooth="yes"/>
      <point x="377" y="1003"/>
      <point x="420" y="995"/>
      <point x="464" y="981" type="curve"/>
      <point x="464" y="951" type="line"/>
      <point x="418" y="964"/>
      <point x="377" y="970"/>
      <point x="324" y="970" type="curve" smooth="yes"/>
      <point x="191" y="970"/>
      <point x="133" y="903"/>
      <point x="133" y="758" type="curve" smooth="yes"/>
      <point x="133" y="734" type="line" smooth="yes"/>
      <point x="133" y="637"/>
      <point x="149" y="591"/>
      <point x="186" y="542" type="curve"/>
      <point x="219" y="560"/>
      <point x="263" y="576"/>
      <point x="316" y="576" type="curve" smooth="yes"/>
      <point x="440" y="576"/>
      <point x="499" y="482"/>
      <point x="499" y="316" type="curve" smooth="yes"/>
      <point x="499" y="291" type="line" smooth="yes"/>
      <point x="499" y="98"/>
      <point x="430" y="13"/>
      <point x="284" y="13" type="curve" smooth="yes"/>
      <point x="230" y="13"/>
      <point x="188" y="27"/>
      <point x="155" y="53" type="curve"/>
      <point x="85" y="88" type="line"/>
    </contour>
  </outline>
  <guideline angle="90" x="742" y="0"/>
  <guideline angle="0" x="0" y="9"/>
  <guideline angle="90" x="747" y="0"/>
  <guideline angle="90" x="730" y="0"/>
  <guideline angle="0" x="0" y="1262"/>
  <guideline angle="90" x="765" y="0"/>
  <guideline angle="0" x="0" y="-125"/>
</glyph>
<glyph name="Nya.dv" format="2">
  <advance width="806"/>
  <unicode hex="091E"/>
  <anchor x="637" y="9" name="bottom"/>
  <anchor x="632" y="9" name="bottom2"/>
  <anchor x="655" y="9" name="bottom3"/>
  <anchor x="637" y="30" name="bottom5"/>
  <anchor x="637" y="1262" name="top"/>
  <outline>
    <contour>
      <point x="-18" y="1242" type="line"/>
      <point x="-24" y="1271" type="line"/>
      <point x="824" y="1271" type="line"/>
      <point x="830" y="1242" type="line"/>
    </contour>
    <contour>
      <point x="64" y="973" type="line"/>
      <point x="99" y="999"/>
      <point x="144" y="1014"/>
      <point x="197" y="1014" type="curve" smooth="yes"/>
      <point x="313" y="1014"/>
      <point x="377" y="944"/>
      <point x="377" y="747" type="curve" smooth="yes"/>
      <point x="377" y="454" type="line" smooth="yes"/>
      <point x="377" y="261"/>
      <point x="309" y="186"/>
      <point x="186" y="186" type="curve" smooth="yes"/>
      <point x="127" y="186"/>
      <point x="86" y="202"/>
      <point x="52" y="227" type="curve"/>
      <point x="48" y="269" type="line"/>
      <point x="90" y="236"/>
      <point x="133" y="219"/>
      <point x="186" y="219" type="curve" smooth="yes"/>
      <point x="285" y="219"/>
      <point x="342" y="285"/>
      <point x="342" y="458" type="curve" smooth="yes"/>
      <point x="342" y="743" type="line" smooth="yes"/>
      <point x="342" y="923"/>
      <point x="291" y="981"/>
      <point x="195" y="981" type="curve" smooth="yes"/>
      <point x="151" y="981"/>
      <point x="105" y="966"/>
      <point x="61" y="931" type="curve"/>
    </contour>
    <contour>
      <point x="364" y="624" type="line"/>
      <point x="635" y="624" type="line"/>
      <point x="635" y="593" type="line"/>
      <point x="364" y="593" type="line"/>
    </contour>
    <contour>
      <point x="655" y="1251" type="line"/>
      <point x="655" y="0" type="line"/>
      <point x="620" y="0" type="line"/>
      <point x="620" y="1251" type="line"/>
    </contour>
    <contour>
      <point x="520" y="1242" type="line"/>
      <point x="514" y="1271" type="line"/>
      <point x="824" y="1271" type="line"/>
      <point x="830" y="1242" type="line"/>
    </contour>
  </outline>
  <guideline angle="90" x="632" y="0"/>
  <guideline angle="0" x="0" y="9"/>
  <guideline angle="90" x="637" y="0"/>
  <guideline angle="90" x="620" y="0"/>
  <guideline angle="0" x="0" y="1262"/>
  <guideline angle="90" x="655" y="0"/>
  <guideline angle="0" x="0" y="-125"/>
</glyph>
<glyph name="Ddha.dv" format="2">
  <advance width="671"/>
  <unicode hex="0922"/>
  <anchor x="386" y="9" name="bottom"/>
  <anchor x="340" y="9" name="bottom2"/>
  <anchor x="576" y="9" name="bottom3"/>
  <anchor x="364" y="30" name="bottom5"/>
  <anchor x="516" y="1262" name="top"/>
  <outline>
    <contour>
      <point x="399" y="1242" type="line"/>
      <point x="393" y="1271" type="line"/>
      <point x="653" y="1271" type="line"/>
      <point x="659" y="1242" type="line"/>
    </contour>
    <contour>
      <point x="534" y="1252" type="line"/>
      <point x="534" y="1016" type="line"/>
      <point x="500" y="1016" type="line"/>
      <point x="500" y="1252" type="line"/>
    </contour>
    <contour>
      <point x="-10" y="1242" type="line"/>
      <point x="-16" y="1271" type="line"/>
      <point x="713" y="1271" type="line"/>
      <point x="718" y="1242" type="line"/>
    </contour>
    <contour>
      <point x="499" y="1253" type="line"/>
      <point x="534" y="1253" type="line"/>
      <point x="534" y="924" type="line"/>
      <point x="499" y="942" type="line"/>
    </contour>
    <contour>
      <point x="109" y="659" type="line" smooth="yes"/>
      <point x="109" y="878"/>
      <point x="194" y="977"/>
      <point x="378" y="977" type="curve" smooth="yes"/>
      <point x="435" y="977"/>
      <point x="481" y="972"/>
      <point x="534" y="957" type="curve"/>
      <point x="534" y="924" type="line"/>
      <point x="477" y="938"/>
      <point x="433" y="944"/>
      <point x="380" y="944" type="curve" smooth="yes"/>
      <point x="216" y="944"/>
      <point x="144" y="857"/>
      <point x="144" y="657" type="curve" smooth="yes"/>
      <point x="144" y="280" type="line" smooth="yes"/>
      <point x="144" y="110"/>
      <point x="209" y="31"/>
      <point x="350" y="31" type="curve" smooth="yes"/>
      <point x="490" y="31"/>
      <point x="555" y="110"/>
      <point x="555" y="278" type="curve" smooth="yes"/>
      <point x="555" y="495" type="line" smooth="yes"/>
      <point x="555" y="591"/>
      <point x="523" y="633"/>
      <point x="457" y="633" type="curve" smooth="yes"/>
      <point x="391" y="633"/>
      <point x="360" y="591"/>
      <point x="360" y="495" type="curve" smooth="yes"/>
      <point x="360" y="272" type="line" smooth="yes"/>
      <point x="360" y="131"/>
      <point x="393" y="90"/>
      <point x="465" y="42" type="curve"/>
      <point x="437" y="31" type="line"/>
      <point x="437" y="35" type="line"/>
      <point x="371" y="75"/>
      <point x="327" y="123"/>
      <point x="327" y="269" type="curve" smooth="yes"/>
      <point x="327" y="499" type="line" smooth="yes"/>
      <point x="327" y="609"/>
      <point x="371" y="664"/>
      <point x="457" y="664" type="curve" smooth="yes"/>
      <point x="544" y="664"/>
      <point x="588" y="609"/>
      <point x="588" y="499" type="curve" smooth="yes"/>
      <point x="588" y="276" type="line" smooth="yes"/>
      <point x="588" y="88"/>
      <point x="509" y="0"/>
      <point x="349" y="0" type="curve" smooth="yes"/>
      <point x="190" y="0"/>
      <point x="109" y="90"/>
      <point x="109" y="278" type="curve" smooth="yes"/>
    </contour>
  </outline>
</glyph>
<glyph name="Ta.dv" format="2">
  <advance width="692"/>
  <unicode hex="0924"/>
  <anchor x="523" y="9" name="bottom"/>
  <anchor x="518" y="9" name="bottom2"/>
  <anchor x="541" y="9" name="bottom3"/>
  <anchor x="523" y="30" name="bottom5"/>
  <anchor x="523" y="1262" name="top"/>
  <outline>
    <contour>
      <point x="541" y="1251" type="line"/>
      <point x="541" y="0" type="line"/>
      <point x="506" y="0" type="line"/>
      <point x="506" y="1251" type="line"/>
    </contour>
    <contour>
      <point x="406" y="1242" type="line"/>
      <point x="400" y="1271" type="line"/>
      <point x="710" y="1271" type="line"/>
      <point x="716" y="1242" type="line"/>
    </contour>
    <contour>
      <point x="-18" y="1242" type="line"/>
      <point x="-24" y="1271" type="line"/>
      <point x="710" y="1271" type="line"/>
      <point x="716" y="1242" type="line"/>
    </contour>
    <contour>
      <point x="217" y="0" type="line"/>
      <point x="139" y="268"/>
      <point x="99" y="482"/>
      <point x="99" y="659" type="curve" smooth="yes"/>
      <point x="99" y="848"/>
      <point x="169" y="924"/>
      <point x="342" y="924" type="curve" smooth="yes"/>
      <point x="519" y="924" type="line"/>
      <point x="519" y="892" type="line"/>
      <point x="348" y="892" type="line" smooth="yes"/>
      <point x="193" y="892"/>
      <point x="135" y="828"/>
      <point x="135" y="659" type="curve" smooth="yes"/>
      <point x="135" y="482"/>
      <point x="172" y="276"/>
      <point x="253" y="0" type="curve"/>
    </contour>
  </outline>
</glyph>
<glyph name="Tha.dv" format="2">
  <advance width="810"/>
  <unicode hex="0925"/>
  <anchor x="641" y="9" name="bottom"/>
  <anchor x="636" y="9" name="bottom2"/>
  <anchor x="659" y="9" name="bottom3"/>
  <anchor x="641" y="30" name="bottom5"/>
  <anchor x="641" y="1262" name="top"/>
  <outline>
    <contour>
      <point x="659" y="1251" type="line"/>
      <point x="659" y="0" type="line"/>
      <point x="624" y="0" type="line"/>
      <point x="624" y="1251" type="line"/>
    </contour>
    <contour>
      <point x="524" y="1242" type="line"/>
      <point x="518" y="1271" type="line"/>
      <point x="828" y="1271" type="line"/>
      <point x="834" y="1242" type="line"/>
    </contour>
    <contour>
      <point x="506" y="1271" type="line"/>
      <point x="826" y="1271" type="line"/>
      <point x="834" y="1242" type="line"/>
      <point x="512" y="1242" type="line"/>
    </contour>
    <contour>
      <point x="123" y="810" type="line"/>
      <point x="118" y="920"/>
      <point x="116" y="988"/>
      <point x="116" y="1069" type="curve" smooth="yes"/>
      <point x="116" y="1213"/>
      <point x="166" y="1281"/>
      <point x="272" y="1281" type="curve" smooth="yes"/>
      <point x="379" y="1281"/>
      <point x="427" y="1213"/>
      <point x="427" y="1067" type="curve" smooth="yes"/>
      <point x="427" y="872" type="line" smooth="yes"/>
      <point x="427" y="692"/>
      <point x="346" y="615"/>
      <point x="188" y="615" type="curve" smooth="yes"/>
      <point x="125" y="615" type="line"/>
      <point x="105" y="646" type="line"/>
      <point x="184" y="646" type="line" smooth="yes"/>
      <point x="322" y="646"/>
      <point x="392" y="714"/>
      <point x="392" y="874" type="curve" smooth="yes"/>
      <point x="392" y="1062" type="line" smooth="yes"/>
      <point x="392" y="1194"/>
      <point x="355" y="1248"/>
      <point x="272" y="1248" type="curve" smooth="yes"/>
      <point x="190" y="1248"/>
      <point x="151" y="1194"/>
      <point x="151" y="1064" type="curve" smooth="yes"/>
      <point x="151" y="810" type="line"/>
    </contour>
    <contour>
      <point x="105" y="519" type="line" smooth="yes"/>
      <point x="105" y="602"/>
      <point x="105" y="622"/>
      <point x="105" y="646" type="curve"/>
      <point x="140" y="631" type="line"/>
      <point x="140" y="513" type="line" smooth="yes"/>
      <point x="140" y="324"/>
      <point x="221" y="239"/>
      <point x="375" y="239" type="curve" smooth="yes"/>
      <point x="502" y="239"/>
      <point x="598" y="300"/>
      <point x="627" y="447" type="curve"/>
      <point x="634" y="388" type="line"/>
      <point x="630" y="388" type="line"/>
      <point x="608" y="280"/>
      <point x="519" y="206"/>
      <point x="375" y="206" type="curve" smooth="yes"/>
      <point x="199" y="206"/>
      <point x="105" y="305"/>
      <point x="105" y="510" type="curve" smooth="yes"/>
    </contour>
  </outline>
  <guideline angle="90" x="512" y="0"/>
  <guideline angle="90" x="636" y="0"/>
  <guideline angle="0" x="0" y="9"/>
  <guideline angle="90" x="641" y="0"/>
  <guideline angle="90" x="624" y="0"/>
  <guideline angle="0" x="0" y="1262"/>
  <guideline angle="90" x="659" y="0"/>
  <guideline angle="0" x="0" y="-125"/>
</glyph>
<glyph name="Dha.dv" format="2">
  <advance width="801"/>
  <unicode hex="0927"/>
  <anchor x="632" y="9" name="bottom"/>
  <anchor x="627" y="9" name="bottom2"/>
  <anchor x="650" y="9" name="bottom3"/>
  <anchor x="632" y="30" name="bottom5"/>
  <anchor x="632" y="1262" name="top"/>
  <outline>
    <contour>
      <point x="650" y="1251" type="line"/>
      <point x="650" y="0" type="line"/>
      <point x="615" y="0" type="line"/>
      <point x="615" y="1251" type="line"/>
    </contour>
    <contour>
      <point x="515" y="1242" type="line"/>
      <point x="509" y="1271" type="line"/>
      <point x="819" y="1271" type="line"/>
      <point x="825" y="1242" type="line"/>
    </contour>
    <contour>
      <point x="508" y="1242" type="line"/>
      <point x="502" y="1271" type="line"/>
      <point x="818" y="1271" type="line"/>
      <point x="824" y="1242" type="line"/>
    </contour>
    <contour>
      <point x="114" y="453" type="line" smooth="yes"/>
      <point x="114" y="588"/>
      <point x="172" y="652"/>
      <point x="300" y="662" type="curve"/>
      <point x="300" y="664" type="line"/>
      <point x="164" y="677"/>
      <point x="101" y="751"/>
      <point x="101" y="905" type="curve" smooth="yes"/>
      <point x="101" y="1067" type="line" smooth="yes"/>
      <point x="101" y="1211"/>
      <point x="160" y="1282"/>
      <point x="263" y="1282" type="curve" smooth="yes"/>
      <point x="372" y="1282"/>
      <point x="421" y="1213"/>
      <point x="421" y="1073" type="curve" smooth="yes"/>
      <point x="421" y="1006"/>
      <point x="419" y="946"/>
      <point x="414" y="856" type="curve"/>
      <point x="386" y="856" type="line"/>
      <point x="386" y="1071" type="line" smooth="yes"/>
      <point x="386" y="1194"/>
      <point x="350" y="1249"/>
      <point x="263" y="1249" type="curve" smooth="yes"/>
      <point x="182" y="1249"/>
      <point x="136" y="1192"/>
      <point x="136" y="1065" type="curve" smooth="yes"/>
      <point x="136" y="905" type="line" smooth="yes"/>
      <point x="136" y="754"/>
      <point x="197" y="686"/>
      <point x="351" y="681" type="curve" smooth="yes"/>
      <point x="407" y="679" type="line"/>
      <point x="407" y="650" type="line"/>
      <point x="351" y="648" type="line" smooth="yes"/>
      <point x="206" y="642"/>
      <point x="149" y="583"/>
      <point x="149" y="454" type="curve" smooth="yes"/>
      <point x="149" y="429" type="line" smooth="yes"/>
      <point x="149" y="296"/>
      <point x="224" y="226"/>
      <point x="375" y="226" type="curve" smooth="yes"/>
      <point x="491" y="226"/>
      <point x="591" y="276"/>
      <point x="616" y="407" type="curve"/>
      <point x="622" y="346" type="line"/>
      <point x="618" y="346" type="line"/>
      <point x="593" y="252"/>
      <point x="509" y="193"/>
      <point x="375" y="193" type="curve" smooth="yes"/>
      <point x="202" y="193"/>
      <point x="114" y="274"/>
      <point x="114" y="429" type="curve" smooth="yes"/>
    </contour>
  </outline>
  <guideline angle="90" x="508" y="0"/>
  <guideline angle="90" x="627" y="0"/>
  <guideline angle="0" x="0" y="9"/>
  <guideline angle="90" x="632" y="0"/>
  <guideline angle="90" x="615" y="0"/>
  <guideline angle="0" x="0" y="1262"/>
  <guideline angle="90" x="650" y="0"/>
  <guideline angle="0" x="0" y="-125"/>
</glyph>
<glyph name="Na.dv" format="2">
  <advance width="664"/>
  <unicode hex="0928"/>
  <anchor x="495" y="9" name="bottom"/>
  <anchor x="490" y="9" name="bottom2"/>
  <anchor x="513" y="9" name="bottom3"/>
  <anchor x="495" y="30" name="bottom5"/>
  <anchor x="495" y="1262" name="top"/>
  <outline>
    <contour>
      <point x="513" y="1251" type="line"/>
      <point x="513" y="0" type="line"/>
      <point x="478" y="0" type="line"/>
      <point x="478" y="1251" type="line"/>
    </contour>
    <contour>
      <point x="378" y="1242" type="line"/>
      <point x="372" y="1271" type="line"/>
      <point x="682" y="1271" type="line"/>
      <point x="688" y="1242" type="line"/>
    </contour>
    <contour>
      <point x="688" y="1242" type="line"/>
      <point x="-20" y="1242" type="line"/>
      <point x="-26" y="1271" type="line"/>
      <point x="682" y="1271" type="line"/>
    </contour>
    <contour>
      <point x="491" y="817" type="line"/>
      <point x="491" y="786" type="line"/>
      <point x="145" y="786" type="line"/>
      <point x="145" y="817" type="line"/>
    </contour>
    <contour>
      <point x="123" y="326" type="line"/>
      <point x="110" y="504"/>
      <point x="103" y="605"/>
      <point x="90" y="784" type="curve"/>
      <point x="130" y="817" type="line"/>
      <point x="158" y="817" type="line"/>
      <point x="158" y="326" type="line"/>
    </contour>
  </outline>
</glyph>
<glyph name="NaNukta.dv" format="2">
  <advance width="664"/>
  <unicode hex="0929"/>
  <anchor x="495" y="9" name="bottom"/>
  <anchor x="490" y="9" name="bottom2"/>
  <anchor x="513" y="9" name="bottom3"/>
  <anchor x="495" y="30" name="bottom5"/>
  <anchor x="495" y="1262" name="top"/>
  <outline>
    <contour>
      <point x="513" y="1251" type="line"/>
      <point x="513" y="0" type="line"/>
      <point x="478" y="0" type="line"/>
      <point x="478" y="1251" type="line"/>
    </contour>
    <contour>
      <point x="378" y="1242" type="line"/>
      <point x="372" y="1271" type="line"/>
      <point x="682" y="1271" type="line"/>
      <point x="688" y="1242" type="line"/>
    </contour>
    <contour>
      <point x="688" y="1242" type="line"/>
      <point x="-20" y="1242" type="line"/>
      <point x="-26" y="1271" type="line"/>
      <point x="682" y="1271" type="line"/>
    </contour>
    <contour>
      <point x="491" y="817" type="line"/>
      <point x="491" y="786" type="line"/>
      <point x="145" y="786" type="line"/>
      <point x="145" y="817" type="line"/>
    </contour>
    <contour>
      <point x="123" y="326" type="line"/>
      <point x="110" y="504"/>
      <point x="103" y="605"/>
      <point x="90" y="784" type="curve"/>
      <point x="130" y="817" type="line"/>
      <point x="158" y="817" type="line"/>
      <point x="158" y="326" type="line"/>
    </contour>
    <contour>
      <point x="136" y="-29" type="curve" smooth="yes"/>
      <point x="114" y="-29"/>
      <point x="107" y="-9"/>
      <point x="107" y="37" type="curve"/>
      <point x="107" y="38.6572"/>
      <point x="107" y="50.5645"/>
      <point x="107" y="52" type="curve"/>
      <point x="107" y="98"/>
      <point x="114" y="118"/>
      <point x="136" y="118" type="curve" smooth="yes"/>
      <point x="158" y="118"/>
      <point x="165" y="98"/>
      <point x="165" y="52" type="curve"/>
      <point x="165" y="50.3428"/>
      <point x="165" y="38.4355"/>
      <point x="165" y="37" type="curve"/>
      <point x="165" y="-9"/>
      <point x="158" y="-29"/>
    </contour>
  </outline>
</glyph>
<glyph name="Pa.dv" format="2">
  <advance width="700"/>
  <unicode hex="092A"/>
  <anchor x="531" y="9" name="bottom"/>
  <anchor x="526" y="9" name="bottom2"/>
  <anchor x="549" y="9" name="bottom3"/>
  <anchor x="531" y="30" name="bottom5"/>
  <anchor x="531" y="1262" name="top"/>
  <outline>
    <contour>
      <point x="549" y="1251" type="line"/>
      <point x="549" y="0" type="line"/>
      <point x="514" y="0" type="line"/>
      <point x="514" y="1251" type="line"/>
    </contour>
    <contour>
      <point x="414" y="1242" type="line"/>
      <point x="408" y="1271" type="line"/>
      <point x="718" y="1271" type="line"/>
      <point x="724" y="1242" type="line"/>
    </contour>
    <contour>
      <point x="-19" y="1242" type="line"/>
      <point x="-25" y="1271" type="line"/>
      <point x="718" y="1271" type="line"/>
      <point x="724" y="1242" type="line"/>
    </contour>
    <contour>
      <point x="334" y="333" type="curve" smooth="yes"/>
      <point x="201" y="333"/>
      <point x="131" y="414"/>
      <point x="131" y="598" type="curve" smooth="yes"/>
      <point x="131" y="1251" type="line"/>
      <point x="166" y="1251" type="line"/>
      <point x="166" y="602" type="line" smooth="yes"/>
      <point x="166" y="436"/>
      <point x="223" y="366"/>
      <point x="334" y="366" type="curve" smooth="yes"/>
      <point x="431" y="366"/>
      <point x="490" y="418"/>
      <point x="516" y="526" type="curve"/>
      <point x="520" y="462" type="line"/>
      <point x="516" y="462" type="line"/>
      <point x="496" y="392"/>
      <point x="444" y="333"/>
    </contour>
  </outline>
</glyph>
<glyph name="Pha.dv" format="2">
  <advance width="967"/>
  <unicode hex="092B"/>
  <anchor x="506" y="9" name="bottom"/>
  <anchor x="501" y="9" name="bottom2"/>
  <anchor x="729" y="9" name="bottom3"/>
  <anchor x="506" y="30" name="bottom5"/>
  <anchor x="506" y="1262" name="top"/>
  <outline>
    <contour>
      <point x="-19" y="1242" type="line"/>
      <point x="-25" y="1271" type="line"/>
      <point x="984" y="1271" type="line"/>
      <point x="989" y="1242" type="line"/>
    </contour>
    <contour>
      <point x="319" y="333" type="curve" smooth="yes"/>
      <point x="194" y="333"/>
      <point x="132" y="409"/>
      <point x="132" y="583" type="curve" smooth="yes"/>
      <point x="132" y="1251" type="line"/>
      <point x="167" y="1251" type="line"/>
      <point x="167" y="587" type="line" smooth="yes"/>
      <point x="167" y="429"/>
      <point x="216" y="366"/>
      <point x="317" y="366" type="curve" smooth="yes"/>
      <point x="409" y="366"/>
      <point x="465" y="414"/>
      <point x="490" y="523" type="curve"/>
      <point x="494" y="460" type="line"/>
      <point x="490" y="460" type="line"/>
      <point x="472" y="387"/>
      <point x="419" y="333"/>
    </contour>
    <contour>
      <point x="680" y="931" type="curve" smooth="yes"/>
      <point x="605" y="931"/>
      <point x="542" y="885"/>
      <point x="520" y="782" type="curve"/>
      <point x="514" y="834" type="line"/>
      <point x="518" y="834" type="line"/>
      <point x="532" y="907"/>
      <point x="592" y="964"/>
      <point x="682" y="964" type="curve" smooth="yes"/>
      <point x="807" y="964"/>
      <point x="860" y="876"/>
      <point x="860" y="692" type="curve" smooth="yes"/>
      <point x="860" y="405" type="line" smooth="yes"/>
      <point x="860" y="232"/>
      <point x="814" y="158"/>
      <point x="706" y="158" type="curve" smooth="yes"/>
      <point x="680" y="158"/>
      <point x="656" y="162"/>
      <point x="636" y="171" type="curve"/>
      <point x="632" y="206" type="line"/>
      <point x="652" y="197"/>
      <point x="674" y="191"/>
      <point x="704" y="191" type="curve" smooth="yes"/>
      <point x="794" y="191"/>
      <point x="825" y="258"/>
      <point x="825" y="410" type="curve" smooth="yes"/>
      <point x="825" y="688" type="line" smooth="yes"/>
      <point x="825" y="854"/>
      <point x="783" y="931"/>
    </contour>
    <contour>
      <point x="524" y="1251" type="line"/>
      <point x="524" y="0" type="line"/>
      <point x="489" y="0" type="line"/>
      <point x="489" y="1251" type="line"/>
    </contour>
  </outline>
</glyph>
<glyph name="Ba.dv" format="2">
  <advance width="699"/>
  <unicode hex="092C"/>
  <anchor x="530" y="9" name="bottom"/>
  <anchor x="525" y="9" name="bottom2"/>
  <anchor x="548" y="9" name="bottom3"/>
  <anchor x="530" y="30" name="bottom5"/>
  <anchor x="530" y="1262" name="top"/>
  <outline>
    <contour>
      <point x="548" y="1251" type="line"/>
      <point x="548" y="0" type="line"/>
      <point x="513" y="0" type="line"/>
      <point x="513" y="1251" type="line"/>
    </contour>
    <contour>
      <point x="413" y="1242" type="line"/>
      <point x="407" y="1271" type="line"/>
      <point x="717" y="1271" type="line"/>
      <point x="723" y="1242" type="line"/>
    </contour>
    <contour>
      <point x="-20" y="1242" type="line"/>
      <point x="-26" y="1271" type="line"/>
      <point x="617" y="1271" type="line"/>
      <point x="623" y="1242" type="line"/>
    </contour>
    <contour>
      <point x="170" y="938" type="line"/>
      <point x="199" y="951" type="line"/>
      <point x="504" y="307" type="line"/>
      <point x="479" y="285" type="line"/>
    </contour>
    <contour>
      <point x="109" y="469" type="curve" smooth="yes"/>
      <point x="109" y="734" type="line" smooth="yes"/>
      <point x="109" y="926"/>
      <point x="182" y="1019"/>
      <point x="326" y="1019" type="curve" smooth="yes"/>
      <point x="374" y="1019"/>
      <point x="403" y="1012"/>
      <point x="429" y="1001" type="curve"/>
      <point x="434" y="966" type="line"/>
      <point x="401" y="979"/>
      <point x="374" y="986"/>
      <point x="328" y="986" type="curve" smooth="yes"/>
      <point x="204" y="986"/>
      <point x="144" y="902"/>
      <point x="144" y="730" type="curve" smooth="yes"/>
      <point x="144" y="473" type="line" smooth="yes"/>
      <point x="144" y="304"/>
      <point x="201" y="219"/>
      <point x="324" y="219" type="curve" smooth="yes"/>
      <point x="418" y="219"/>
      <point x="491" y="269"/>
      <point x="515" y="392" type="curve"/>
      <point x="519" y="329" type="line"/>
      <point x="515" y="329" type="line"/>
      <point x="497" y="245"/>
      <point x="431" y="186"/>
      <point x="324" y="186" type="curve" smooth="yes"/>
      <point x="179" y="186"/>
      <point x="109" y="280"/>
    </contour>
  </outline>
</glyph>
<glyph name="Bha.dv" format="2">
  <advance width="707"/>
  <unicode hex="092D"/>
  <anchor x="538" y="9" name="bottom"/>
  <anchor x="533" y="9" name="bottom2"/>
  <anchor x="556" y="9" name="bottom3"/>
  <anchor x="538" y="30" name="bottom5"/>
  <anchor x="538" y="1262" name="top"/>
  <outline>
    <contour>
      <point x="556" y="1251" type="line"/>
      <point x="556" y="0" type="line"/>
      <point x="521" y="0" type="line"/>
      <point x="521" y="1251" type="line"/>
    </contour>
    <contour>
      <point x="421" y="1242" type="line"/>
      <point x="415" y="1271" type="line"/>
      <point x="725" y="1271" type="line"/>
      <point x="731" y="1242" type="line"/>
    </contour>
    <contour>
      <point x="421" y="1242" type="line"/>
      <point x="416" y="1271" type="line"/>
      <point x="724" y="1271" type="line"/>
      <point x="730" y="1242" type="line"/>
    </contour>
    <contour>
      <point x="166" y="589" type="line"/>
      <point x="166" y="620" type="line"/>
      <point x="539" y="620" type="line"/>
      <point x="539" y="589" type="line"/>
    </contour>
    <contour>
      <point x="158" y="164" type="line"/>
      <point x="144" y="329"/>
      <point x="136" y="421"/>
      <point x="121" y="587" type="curve"/>
      <point x="156" y="618" type="line"/>
      <point x="191" y="618" type="line"/>
      <point x="191" y="164" type="line"/>
    </contour>
    <contour>
      <point x="156" y="443" type="line"/>
      <point x="156" y="1056" type="line" smooth="yes"/>
      <point x="156" y="1194"/>
      <point x="129" y="1242"/>
      <point x="27" y="1242" type="curve" smooth="yes"/>
      <point x="-20" y="1242" type="line"/>
      <point x="-26" y="1271" type="line"/>
      <point x="28" y="1271" type="line" smooth="yes"/>
      <point x="153" y="1271"/>
      <point x="191" y="1209"/>
      <point x="191" y="1058" type="curve" smooth="yes"/>
      <point x="191" y="443" type="line"/>
    </contour>
  </outline>
  <guideline angle="90" x="421" y="0"/>
  <guideline angle="90" x="533" y="0"/>
  <guideline angle="0" x="0" y="9"/>
  <guideline angle="90" x="538" y="0"/>
  <guideline angle="90" x="521" y="0"/>
  <guideline angle="0" x="0" y="1262"/>
  <guideline angle="90" x="556" y="0"/>
  <guideline angle="0" x="0" y="-125"/>
</glyph>
<glyph name="Ma.dv" format="2">
  <advance width="720"/>
  <unicode hex="092E"/>
  <anchor x="551" y="9" name="bottom"/>
  <anchor x="546" y="9" name="bottom2"/>
  <anchor x="569" y="9" name="bottom3"/>
  <anchor x="551" y="30" name="bottom5"/>
  <anchor x="551" y="1262" name="top"/>
  <outline>
    <contour>
      <point x="569" y="1251" type="line"/>
      <point x="569" y="0" type="line"/>
      <point x="534" y="0" type="line"/>
      <point x="534" y="1251" type="line"/>
    </contour>
    <contour>
      <point x="434" y="1242" type="line"/>
      <point x="428" y="1271" type="line"/>
      <point x="738" y="1271" type="line"/>
      <point x="744" y="1242" type="line"/>
    </contour>
    <contour>
      <point x="743" y="1242" type="line"/>
      <point x="-20" y="1242" type="line"/>
      <point x="-26" y="1271" type="line"/>
      <point x="737" y="1271" type="line"/>
    </contour>
    <contour>
      <point x="552" y="620" type="line"/>
      <point x="552" y="589" type="line"/>
      <point x="175" y="589" type="line"/>
      <point x="175" y="620" type="line"/>
    </contour>
    <contour>
      <point x="191" y="1253" type="line"/>
      <point x="191" y="506" type="line"/>
      <point x="156" y="506" type="line"/>
      <point x="156" y="1253" type="line"/>
    </contour>
    <contour>
      <point x="158" y="164" type="line"/>
      <point x="144" y="329"/>
      <point x="136" y="421"/>
      <point x="121" y="587" type="curve"/>
      <point x="156" y="618" type="line"/>
      <point x="191" y="618" type="line"/>
      <point x="191" y="164" type="line"/>
    </contour>
  </outline>
</glyph>
<glyph name="Ra.dv" format="2">
  <advance width="420"/>
  <unicode hex="0930"/>
  <anchor x="210" y="9" name="bottom2"/>
  <anchor x="474" y="9" name="bottom3"/>
  <anchor x="246" y="30" name="bottom5"/>
  <anchor x="255" y="1262" name="top"/>
  <outline>
    <contour>
      <point x="456" y="1242" type="line"/>
      <point x="-19" y="1242" type="line"/>
      <point x="-24" y="1271" type="line"/>
      <point x="450" y="1271" type="line"/>
    </contour>
    <contour>
      <point x="315" y="0" type="line"/>
      <point x="280" y="0" type="line"/>
      <point x="102" y="585" type="line"/>
      <point x="35" y="589" type="line"/>
      <point x="35" y="620" type="line"/>
      <point x="130" y="613" type="line"/>
      <point x="130" y="604" type="line"/>
      <point x="158" y="517"/>
      <point x="179" y="446"/>
      <point x="203" y="368" type="curve" smooth="yes"/>
      <point x="315" y="2" type="line"/>
    </contour>
    <contour>
      <point x="278" y="1249" type="line"/>
      <point x="308" y="1198"/>
      <point x="319" y="1130"/>
      <point x="319" y="999" type="curve" smooth="yes"/>
      <point x="319" y="896" type="line" smooth="yes"/>
      <point x="319" y="675"/>
      <point x="238" y="589"/>
      <point x="78" y="589" type="curve" smooth="yes"/>
      <point x="59" y="589" type="line"/>
      <point x="35" y="620" type="line"/>
      <point x="78" y="620" type="line" smooth="yes"/>
      <point x="210" y="620"/>
      <point x="284" y="696"/>
      <point x="284" y="898" type="curve" smooth="yes"/>
      <point x="284" y="997" type="line" smooth="yes"/>
      <point x="284" y="1128"/>
      <point x="273" y="1200"/>
      <point x="241" y="1249" type="curve"/>
    </contour>
  </outline>
</glyph>
<glyph name="La.dv" format="2">
  <advance width="876"/>
  <unicode hex="0932"/>
  <anchor x="707" y="9" name="bottom"/>
  <anchor x="702" y="9" name="bottom2"/>
  <anchor x="725" y="9" name="bottom3"/>
  <anchor x="707" y="30" name="bottom5"/>
  <anchor x="707" y="1262" name="top"/>
  <outline>
    <contour>
      <point x="725" y="1251" type="line"/>
      <point x="725" y="0" type="line"/>
      <point x="690" y="0" type="line"/>
      <point x="690" y="1251" type="line"/>
    </contour>
    <contour>
      <point x="590" y="1242" type="line"/>
      <point x="584" y="1271" type="line"/>
      <point x="894" y="1271" type="line"/>
      <point x="900" y="1242" type="line"/>
    </contour>
    <contour>
      <point x="-20" y="1242" type="line"/>
      <point x="-26" y="1271" type="line"/>
      <point x="894" y="1271" type="line"/>
      <point x="900" y="1242" type="line"/>
    </contour>
    <contour>
      <point x="282" y="955" type="curve" smooth="yes"/>
      <point x="366" y="955"/>
      <point x="416" y="903"/>
      <point x="427" y="817" type="curve"/>
      <point x="431" y="817" type="line"/>
      <point x="442" y="903"/>
      <point x="495" y="955"/>
      <point x="574" y="955" type="curve" smooth="yes"/>
      <point x="638" y="955"/>
      <point x="683" y="927"/>
      <point x="701" y="874" type="curve"/>
      <point x="697" y="837" type="line"/>
      <point x="666" y="900"/>
      <point x="629" y="922"/>
      <point x="574" y="922" type="curve" smooth="yes"/>
      <point x="500" y="922"/>
      <point x="448" y="867"/>
      <point x="447" y="727" type="curve" smooth="yes"/>
      <point x="445" y="283" type="line"/>
      <point x="414" y="283" type="line"/>
      <point x="412" y="727" type="line" smooth="yes"/>
      <point x="411" y="867"/>
      <point x="359" y="922"/>
      <point x="283" y="922" type="curve" smooth="yes"/>
      <point x="182" y="922"/>
      <point x="135" y="846"/>
      <point x="135" y="683" type="curve" smooth="yes"/>
      <point x="135" y="461"/>
      <point x="183" y="250"/>
      <point x="288" y="2" type="curve"/>
      <point x="288" y="0" type="line"/>
      <point x="252" y="0" type="line"/>
      <point x="150" y="245"/>
      <point x="99" y="463"/>
      <point x="99" y="684" type="curve" smooth="yes"/>
      <point x="99" y="870"/>
      <point x="162" y="955"/>
    </contour>
  </outline>
</glyph>
<glyph name="Va.dv" format="2">
  <advance width="688"/>
  <unicode hex="0935"/>
  <anchor x="519" y="9" name="bottom"/>
  <anchor x="514" y="9" name="bottom2"/>
  <anchor x="537" y="9" name="bottom3"/>
  <anchor x="519" y="30" name="bottom5"/>
  <anchor x="519" y="1262" name="top"/>
  <outline>
    <contour>
      <point x="537" y="1251" type="line"/>
      <point x="537" y="0" type="line"/>
      <point x="502" y="0" type="line"/>
      <point x="502" y="1251" type="line"/>
    </contour>
    <contour>
      <point x="402" y="1242" type="line"/>
      <point x="396" y="1271" type="line"/>
      <point x="706" y="1271" type="line"/>
      <point x="712" y="1242" type="line"/>
    </contour>
    <contour>
      <point x="-16" y="1242" type="line"/>
      <point x="-22" y="1271" type="line"/>
      <point x="706" y="1271" type="line"/>
      <point x="712" y="1242" type="line"/>
    </contour>
    <contour>
      <point x="109" y="475" type="curve" smooth="yes"/>
      <point x="109" y="736" type="line" smooth="yes"/>
      <point x="109" y="924"/>
      <point x="177" y="1016"/>
      <point x="318" y="1016" type="curve" smooth="yes"/>
      <point x="362" y="1016"/>
      <point x="392" y="1009"/>
      <point x="414" y="999" type="curve"/>
      <point x="420" y="964" type="line"/>
      <point x="390" y="976"/>
      <point x="362" y="983"/>
      <point x="320" y="983" type="curve" smooth="yes"/>
      <point x="199" y="983"/>
      <point x="145" y="900"/>
      <point x="145" y="732" type="curve" smooth="yes"/>
      <point x="145" y="478" type="line" smooth="yes"/>
      <point x="145" y="311"/>
      <point x="201" y="228"/>
      <point x="320" y="228" type="curve" smooth="yes"/>
      <point x="409" y="228"/>
      <point x="480" y="278"/>
      <point x="504" y="401" type="curve"/>
      <point x="511" y="342" type="line"/>
      <point x="507" y="342" type="line"/>
      <point x="491" y="256"/>
      <point x="424" y="195"/>
      <point x="320" y="195" type="curve" smooth="yes"/>
      <point x="179" y="195"/>
      <point x="109" y="287"/>
    </contour>
  </outline>
  <guideline angle="90" x="514" y="0"/>
  <guideline angle="0" x="0" y="9"/>
  <guideline angle="90" x="519" y="0"/>
  <guideline angle="90" x="502" y="0"/>
  <guideline angle="0" x="0" y="1262"/>
  <guideline angle="90" x="537" y="0"/>
  <guideline angle="0" x="0" y="-125"/>
</glyph>
<glyph name="Sha.dv" format="2">
  <advance width="863"/>
  <unicode hex="0936"/>
  <anchor x="694" y="9" name="bottom"/>
  <anchor x="689" y="9" name="bottom2"/>
  <anchor x="712" y="9" name="bottom3"/>
  <anchor x="694" y="30" name="bottom5"/>
  <anchor x="694" y="1262" name="top"/>
  <outline>
    <contour>
      <point x="712" y="1251" type="line"/>
      <point x="712" y="0" type="line"/>
      <point x="677" y="0" type="line"/>
      <point x="677" y="1251" type="line"/>
    </contour>
    <contour>
      <point x="577" y="1242" type="line"/>
      <point x="571" y="1271" type="line"/>
      <point x="881" y="1271" type="line"/>
      <point x="887" y="1242" type="line"/>
    </contour>
    <contour>
      <point x="541" y="1271" type="line"/>
      <point x="881" y="1271" type="line"/>
      <point x="887" y="1242" type="line"/>
      <point x="547" y="1242" type="line"/>
    </contour>
    <contour>
      <point x="425" y="0" type="line"/>
      <point x="388" y="0" type="line"/>
      <point x="155" y="453" type="line"/>
      <point x="67" y="456" type="line"/>
      <point x="67" y="488" type="line"/>
      <point x="181" y="480" type="line"/>
      <point x="181" y="473" type="line"/>
      <point x="220" y="399"/>
      <point x="243" y="354"/>
      <point x="285" y="273" type="curve" smooth="yes"/>
      <point x="425" y="2" type="line"/>
    </contour>
    <contour>
      <point x="457" y="1008" type="curve" smooth="yes"/>
      <point x="457" y="828" type="line" smooth="yes"/>
      <point x="457" y="561"/>
      <point x="353" y="457"/>
      <point x="144" y="457" type="curve" smooth="yes"/>
      <point x="124" y="457"/>
      <point x="109" y="457"/>
      <point x="85" y="459" type="curve"/>
      <point x="67" y="488" type="line"/>
      <point x="102" y="488"/>
      <point x="122" y="488"/>
      <point x="146" y="488" type="curve" smooth="yes"/>
      <point x="329" y="488"/>
      <point x="422" y="583"/>
      <point x="422" y="830" type="curve" smooth="yes"/>
      <point x="422" y="1006" type="line" smooth="yes"/>
      <point x="422" y="1189"/>
      <point x="378" y="1248"/>
      <point x="284" y="1248" type="curve" smooth="yes"/>
      <point x="188" y="1248"/>
      <point x="140" y="1183"/>
      <point x="140" y="1029" type="curve" smooth="yes"/>
      <point x="140" y="966" type="line" smooth="yes"/>
      <point x="140" y="880"/>
      <point x="146" y="817"/>
      <point x="168" y="747" type="curve"/>
      <point x="134" y="747" type="line"/>
      <point x="113" y="817"/>
      <point x="106" y="878"/>
      <point x="106" y="966" type="curve" smooth="yes"/>
      <point x="106" y="1030" type="line" smooth="yes"/>
      <point x="106" y="1200"/>
      <point x="164" y="1281"/>
      <point x="284" y="1281" type="curve" smooth="yes"/>
      <point x="402" y="1281"/>
      <point x="457" y="1206"/>
    </contour>
  </outline>
  <guideline angle="90" x="689" y="0"/>
  <guideline angle="0" x="0" y="9"/>
  <guideline angle="90" x="694" y="0"/>
  <guideline angle="90" x="677" y="0"/>
  <guideline angle="0" x="0" y="1262"/>
  <guideline angle="90" x="712" y="0"/>
  <guideline angle="0" x="0" y="-125"/>
</glyph>
<glyph name="Ssa.dv" format="2">
  <advance width="713"/>
  <unicode hex="0937"/>
  <anchor x="544" y="9" name="bottom"/>
  <anchor x="539" y="9" name="bottom2"/>
  <anchor x="562" y="9" name="bottom3"/>
  <anchor x="544" y="30" name="bottom5"/>
  <anchor x="544" y="1262" name="top"/>
  <outline>
    <contour>
      <point x="562" y="1251" type="line"/>
      <point x="562" y="0" type="line"/>
      <point x="527" y="0" type="line"/>
      <point x="527" y="1251" type="line"/>
    </contour>
    <contour>
      <point x="427" y="1242" type="line"/>
      <point x="421" y="1271" type="line"/>
      <point x="731" y="1271" type="line"/>
      <point x="737" y="1242" type="line"/>
    </contour>
    <contour>
      <point x="-19" y="1242" type="line"/>
      <point x="-25" y="1271" type="line"/>
      <point x="731" y="1271" type="line"/>
      <point x="737" y="1242" type="line"/>
    </contour>
    <contour>
      <point x="336" y="320" type="curve" smooth="yes"/>
      <point x="203" y="320"/>
      <point x="131" y="401"/>
      <point x="131" y="585" type="curve" smooth="yes"/>
      <point x="131" y="1251" type="line"/>
      <point x="166" y="1251" type="line"/>
      <point x="166" y="589" type="line" smooth="yes"/>
      <point x="166" y="423"/>
      <point x="225" y="353"/>
      <point x="336" y="353" type="curve" smooth="yes"/>
      <point x="441" y="353"/>
      <point x="503" y="397"/>
      <point x="529" y="510" type="curve"/>
      <point x="534" y="453" type="line"/>
      <point x="530" y="453" type="line"/>
      <point x="513" y="375"/>
      <point x="450" y="320"/>
    </contour>
    <contour>
      <point x="148" y="1236" type="curve"/>
      <point x="163" y="1249" type="line"/>
      <point x="485" y="620" type="line" smooth="yes"/>
      <point x="506" y="579"/>
      <point x="524" y="539"/>
      <point x="544" y="486" type="curve"/>
      <point x="527" y="467" type="line"/>
      <point x="207" y="1094" type="line" smooth="yes"/>
      <point x="178" y="1150"/>
      <point x="166" y="1177"/>
    </contour>
  </outline>
</glyph>
<glyph name="Sa.dv" format="2">
  <advance width="773"/>
  <unicode hex="0938"/>
  <anchor x="604" y="9" name="bottom"/>
  <anchor x="599" y="9" name="bottom2"/>
  <anchor x="622" y="9" name="bottom3"/>
  <anchor x="604" y="30" name="bottom5"/>
  <anchor x="604" y="1262" name="top"/>
  <outline>
    <contour>
      <point x="622" y="1251" type="line"/>
      <point x="622" y="0" type="line"/>
      <point x="587" y="0" type="line"/>
      <point x="587" y="1251" type="line"/>
    </contour>
    <contour>
      <point x="487" y="1242" type="line"/>
      <point x="481" y="1271" type="line"/>
      <point x="791" y="1271" type="line"/>
      <point x="797" y="1242" type="line"/>
    </contour>
    <contour>
      <point x="796" y="1242" type="line"/>
      <point x="-18" y="1242" type="line"/>
      <point x="-24" y="1271" type="line"/>
      <point x="791" y="1271" type="line"/>
    </contour>
    <contour>
      <point x="193" y="629" type="line"/>
      <point x="598" y="629" type="line"/>
      <point x="598" y="598" type="line"/>
      <point x="202" y="598" type="line"/>
    </contour>
    <contour>
      <point x="320" y="0" type="line"/>
      <point x="284" y="0" type="line"/>
      <point x="102" y="585" type="line"/>
      <point x="35" y="589" type="line"/>
      <point x="35" y="620" type="line"/>
      <point x="129" y="610" type="line"/>
      <point x="129" y="606" type="line"/>
      <point x="158" y="518"/>
      <point x="176" y="460"/>
      <point x="211" y="348" type="curve" smooth="yes"/>
      <point x="320" y="2" type="line"/>
    </contour>
    <contour>
      <point x="259" y="1249" type="line"/>
      <point x="289" y="1200"/>
      <point x="300" y="1130"/>
      <point x="300" y="999" type="curve" smooth="yes"/>
      <point x="300" y="896" type="line" smooth="yes"/>
      <point x="300" y="677"/>
      <point x="226" y="589"/>
      <point x="68" y="589" type="curve" smooth="yes"/>
      <point x="59" y="589" type="line"/>
      <point x="35" y="620" type="line"/>
      <point x="68" y="620" type="line" smooth="yes"/>
      <point x="198" y="620"/>
      <point x="265" y="697"/>
      <point x="265" y="898" type="curve" smooth="yes"/>
      <point x="265" y="997" type="line" smooth="yes"/>
      <point x="265" y="1128"/>
      <point x="254" y="1202"/>
      <point x="222" y="1249" type="curve"/>
    </contour>
  </outline>
  <guideline angle="0" x="0" y="337"/>
  <guideline angle="90" x="53" y="0"/>
  <guideline angle="90" x="628" y="0"/>
  <guideline angle="90" x="599" y="0"/>
  <guideline angle="0" x="0" y="9"/>
  <guideline angle="90" x="604" y="0"/>
  <guideline angle="90" x="587" y="0"/>
  <guideline angle="0" x="0" y="1262"/>
  <guideline angle="90" x="622" y="0"/>
  <guideline angle="0" x="0" y="-125"/>
</glyph>
<glyph name="Ha.dv" format="2">
  <advance width="614"/>
  <unicode hex="0939"/>
  <anchor x="357" y="-99" name="bottom"/>
  <anchor x="301" y="-111" name="bottom2"/>
  <anchor x="530" y="-111" name="bottom3"/>
  <anchor x="156" y="-227" name="bottom4"/>
  <anchor x="347" y="-90" name="bottom5"/>
  <anchor x="475" y="1262" name="top"/>
  <outline>
    <contour>
      <point x="358" y="1242" type="line"/>
      <point x="352" y="1271" type="line"/>
      <point x="612" y="1271" type="line"/>
      <point x="618" y="1242" type="line"/>
    </contour>
    <contour>
      <point x="493" y="1252" type="line"/>
      <point x="493" y="1016" type="line"/>
      <point x="459" y="1016" type="line"/>
      <point x="459" y="1252" type="line"/>
    </contour>
    <contour>
      <point x="646" y="1242" type="line"/>
      <point x="-15" y="1242" type="line"/>
      <point x="-20" y="1271" type="line"/>
      <point x="640" y="1271" type="line"/>
    </contour>
    <contour>
      <point x="458" y="1253" type="line"/>
      <point x="493" y="1253" type="line"/>
      <point x="493" y="951" type="line"/>
      <point x="458" y="970" type="line"/>
    </contour>
    <contour>
      <point x="191" y="521" type="line"/>
      <point x="131" y="569"/>
      <point x="101" y="638"/>
      <point x="101" y="738" type="curve" smooth="yes"/>
      <point x="101" y="758" type="line" smooth="yes"/>
      <point x="101" y="922"/>
      <point x="177" y="1003"/>
      <point x="344" y="1003" type="curve" smooth="yes"/>
      <point x="403" y="1003"/>
      <point x="449" y="995"/>
      <point x="493" y="981" type="curve"/>
      <point x="493" y="951" type="line"/>
      <point x="447" y="964"/>
      <point x="403" y="970"/>
      <point x="346" y="970" type="curve" smooth="yes"/>
      <point x="199" y="970"/>
      <point x="136" y="902"/>
      <point x="136" y="756" type="curve" smooth="yes"/>
      <point x="136" y="738" type="line" smooth="yes"/>
      <point x="136" y="651"/>
      <point x="158" y="585"/>
      <point x="213" y="545" type="curve"/>
    </contour>
    <contour>
      <point x="469" y="-98" type="line"/>
      <point x="436" y="-112"/>
      <point x="401" y="-120"/>
      <point x="353" y="-120" type="curve" smooth="yes"/>
      <point x="199" y="-120"/>
      <point x="103" y="-20"/>
      <point x="103" y="204" type="curve" smooth="yes"/>
      <point x="103" y="283" type="line" smooth="yes"/>
      <point x="103" y="410"/>
      <point x="127" y="489"/>
      <point x="182" y="539" type="curve"/>
      <point x="190" y="545" type="line"/>
      <point x="223" y="572"/>
      <point x="269" y="587"/>
      <point x="324" y="587" type="curve" smooth="yes"/>
      <point x="453" y="587"/>
      <point x="523" y="510"/>
      <point x="523" y="340" type="curve" smooth="yes"/>
      <point x="523" y="289"/>
      <point x="521" y="228"/>
      <point x="515" y="177" type="curve"/>
      <point x="488" y="177" type="line"/>
      <point x="488" y="337" type="line" smooth="yes"/>
      <point x="488" y="489"/>
      <point x="431" y="554"/>
      <point x="324" y="554" type="curve" smooth="yes"/>
      <point x="201" y="554"/>
      <point x="138" y="480"/>
      <point x="138" y="282" type="curve" smooth="yes"/>
      <point x="138" y="204" type="line" smooth="yes"/>
      <point x="138" y="4"/>
      <point x="217" y="-87"/>
      <point x="353" y="-87" type="curve" smooth="yes"/>
      <point x="399" y="-87"/>
      <point x="434" y="-78"/>
      <point x="473" y="-62" type="curve"/>
    </contour>
  </outline>
</glyph>
<glyph name="uni093A" format="2">
  <unicode hex="093A"/>
  <anchor x="-169" y="1262" name="_top"/>
  <outline>
    <contour>
      <point x="-186" y="1663" type="line"/>
      <point x="-153" y="1663" type="line"/>
      <point x="-153" y="1260" type="line"/>
      <point x="-186" y="1260" type="line"/>
    </contour>
  </outline>
  <guideline angle="90" x="-98" y="0"/>
</glyph>
<glyph name="uni093B" format="2">
  <advance width="337"/>
  <unicode hex="093B"/>
  <outline>
    <contour>
      <point x="186" y="0" type="line"/>
      <point x="151" y="0" type="line"/>
      <point x="151" y="1251" type="line"/>
      <point x="186" y="1251" type="line"/>
    </contour>
    <contour>
      <point x="361" y="1242" type="line"/>
      <point x="-18" y="1242" type="line"/>
      <point x="-24" y="1271" type="line"/>
      <point x="355" y="1271" type="line"/>
    </contour>
    <contour>
      <point x="151" y="1663" type="line"/>
      <point x="184" y="1663" type="line"/>
      <point x="184" y="1260" type="line"/>
      <point x="151" y="1260" type="line"/>
    </contour>
  </outline>
</glyph>
<glyph name="Nukta.dv" format="2">
  <unicode hex="093C"/>
  <anchor x="-471" y="18" name="_bottom4"/>
  <outline>
    <contour>
      <point x="-471" y="-147" type="curve" smooth="yes"/>
      <point x="-493" y="-147"/>
      <point x="-500" y="-127"/>
      <point x="-500" y="-81" type="curve"/>
      <point x="-500" y="-79.3428"/>
      <point x="-500" y="-67.4355"/>
      <point x="-500" y="-66" type="curve"/>
      <point x="-500" y="-20"/>
      <point x="-493" y="0"/>
      <point x="-471" y="0" type="curve" smooth="yes"/>
      <point x="-449" y="0"/>
      <point x="-442" y="-20"/>
      <point x="-442" y="-66" type="curve"/>
      <point x="-442" y="-67.6572"/>
      <point x="-442" y="-79.5645"/>
      <point x="-442" y="-81" type="curve"/>
      <point x="-442" y="-127"/>
      <point x="-449" y="-147"/>
    </contour>
  </outline>
</glyph>
<glyph name="matraA.dv" format="2">
  <advance width="337"/>
  <unicode hex="093E"/>
  <outline>
    <contour>
      <point x="186" y="0" type="line"/>
      <point x="151" y="0" type="line"/>
      <point x="151" y="1251" type="line"/>
      <point x="186" y="1251" type="line"/>
    </contour>
    <contour>
      <point x="361" y="1242" type="line"/>
      <point x="-18" y="1242" type="line"/>
      <point x="-24" y="1271" type="line"/>
      <point x="355" y="1271" type="line"/>
    </contour>
  </outline>
</glyph>
<glyph name="matraI.dv" format="2">
  <advance width="337"/>
  <unicode hex="093F"/>
  <outline>
    <contour>
      <point x="186" y="0" type="line"/>
      <point x="151" y="0" type="line"/>
      <point x="151" y="1251" type="line"/>
      <point x="186" y="1251" type="line"/>
    </contour>
    <contour>
      <point x="361" y="1242" type="line"/>
      <point x="-18" y="1242" type="line"/>
      <point x="-24" y="1271" type="line"/>
      <point x="355" y="1271" type="line"/>
    </contour>
    <contour>
      <point x="461.71" y="1713" type="curve" smooth="yes"/>
      <point x="649.95" y="1713"/>
      <point x="784.027" y="1600.83"/>
      <point x="856.915" y="1443" type="curve"/>
      <point x="863" y="1382" type="line"/>
      <point x="856" y="1381" type="line"/>
      <point x="768.33" y="1574.9"/>
      <point x="635.92" y="1680"/>
      <point x="461.643" y="1680" type="curve" smooth="yes"/>
      <point x="299.946" y="1680"/>
      <point x="185" y="1594.41"/>
      <point x="185" y="1383" type="curve" smooth="yes"/>
      <point x="185" y="1260" type="line"/>
      <point x="151" y="1260" type="line"/>
      <point x="151" y="1385" type="line" smooth="yes"/>
      <point x="151" y="1616.28"/>
      <point x="276.386" y="1713"/>
    </contour>
  </outline>
  <guideline angle="90" x="857" y="0"/>
  <guideline angle="0" x="0" y="1567"/>
</glyph>
<glyph name="matraIi.dv" format="2">
  <advance width="337"/>
  <unicode hex="0940"/>
  <outline>
    <contour>
      <point x="186" y="0" type="line"/>
      <point x="151" y="0" type="line"/>
      <point x="151" y="1251" type="line"/>
      <point x="186" y="1251" type="line"/>
    </contour>
    <contour>
      <point x="361" y="1242" type="line"/>
      <point x="-18" y="1242" type="line"/>
      <point x="-24" y="1271" type="line"/>
      <point x="355" y="1271" type="line"/>
    </contour>
    <contour>
      <point x="-4" y="1733" type="curve" smooth="yes"/>
      <point x="121" y="1733"/>
      <point x="185" y="1664"/>
      <point x="185" y="1480" type="curve" smooth="yes"/>
      <point x="185" y="1264" type="line"/>
      <point x="151" y="1264" type="line"/>
      <point x="151" y="1476" type="line" smooth="yes"/>
      <point x="151" y="1645"/>
      <point x="99" y="1700"/>
      <point x="-4" y="1700" type="curve" smooth="yes"/>
      <point x="-105" y="1700"/>
      <point x="-155" y="1641"/>
      <point x="-155" y="1511" type="curve" smooth="yes"/>
      <point x="-155" y="1372" type="line"/>
      <point x="-182" y="1380" type="line"/>
      <point x="-186" y="1433"/>
      <point x="-189" y="1482"/>
      <point x="-189" y="1524" type="curve" smooth="yes"/>
      <point x="-189" y="1656"/>
      <point x="-125" y="1733"/>
    </contour>
  </outline>
</glyph>
<glyph name="matraUu.dv" format="2">
  <unicode hex="0942"/>
  <anchor x="-169" y="9" name="_bottom"/>
  <outline>
    <contour>
      <point x="-115" y="-460" type="line"/>
      <point x="-137" y="-477"/>
      <point x="-166" y="-486"/>
      <point x="-207" y="-486" type="curve" smooth="yes"/>
      <point x="-306" y="-486"/>
      <point x="-361" y="-414"/>
      <point x="-361" y="-256" type="curve" smooth="yes"/>
      <point x="-361" y="-221" type="line" smooth="yes"/>
      <point x="-361" y="-63"/>
      <point x="-295" y="9"/>
      <point x="-190" y="9" type="curve" smooth="yes"/>
      <point x="-43" y="9"/>
      <point x="7" y="-118"/>
      <point x="42" y="-489" type="curve"/>
      <point x="7" y="-489" type="line"/>
      <point x="-24" y="-147"/>
      <point x="-69" y="-24"/>
      <point x="-190" y="-24" type="curve" smooth="yes"/>
      <point x="-273" y="-24"/>
      <point x="-326" y="-85"/>
      <point x="-326" y="-221" type="curve" smooth="yes"/>
      <point x="-326" y="-254" type="line" smooth="yes"/>
      <point x="-326" y="-394"/>
      <point x="-286" y="-453"/>
      <point x="-207" y="-453" type="curve" smooth="yes"/>
      <point x="-170" y="-453"/>
      <point x="-140" y="-444"/>
      <point x="-111" y="-420" type="curve"/>
    </contour>
  </outline>
</glyph>
<glyph name="matraRuu.dv" format="2">
  <unicode hex="0944"/>
  <anchor x="-169" y="9" name="_bottom"/>
  <outline>
    <contour>
      <point x="-151" y="15" type="line"/>
      <point x="-151" y="-16" type="line"/>
      <point x="-186" y="-16" type="line" smooth="yes"/>
      <point x="-289" y="-16"/>
      <point x="-350" y="-57"/>
      <point x="-350" y="-160" type="curve" smooth="yes"/>
      <point x="-350" y="-165" type="line" smooth="yes"/>
      <point x="-350" y="-246"/>
      <point x="-306" y="-296"/>
      <point x="-225" y="-296" type="curve" smooth="yes"/>
      <point x="-182" y="-296"/>
      <point x="-145" y="-287"/>
      <point x="-103" y="-257" type="curve"/>
      <point x="-107" y="-297" type="line"/>
      <point x="-134" y="-317"/>
      <point x="-177" y="-329"/>
      <point x="-226" y="-329" type="curve" smooth="yes"/>
      <point x="-326" y="-329"/>
      <point x="-385" y="-265"/>
      <point x="-385" y="-165" type="curve" smooth="yes"/>
      <point x="-385" y="-158" type="line" smooth="yes"/>
      <point x="-385" y="-42"/>
      <point x="-317" y="15"/>
      <point x="-191" y="15" type="curve" smooth="yes"/>
    </contour>
    <contour>
      <point x="-237" y="-325" type="line"/>
      <point x="-315" y="-336"/>
      <point x="-350" y="-386"/>
      <point x="-350" y="-460" type="curve" smooth="yes"/>
      <point x="-350" y="-467" type="line" smooth="yes"/>
      <point x="-350" y="-552"/>
      <point x="-298" y="-593"/>
      <point x="-225" y="-593" type="curve" smooth="yes"/>
      <point x="-177" y="-593"/>
      <point x="-142" y="-583"/>
      <point x="-101" y="-555" type="curve"/>
      <point x="-105" y="-593" type="line"/>
      <point x="-137" y="-615"/>
      <point x="-173" y="-625"/>
      <point x="-225" y="-625" type="curve" smooth="yes"/>
      <point x="-322" y="-625"/>
      <point x="-385" y="-568"/>
      <point x="-385" y="-469" type="curve" smooth="yes"/>
      <point x="-385" y="-460" type="line" smooth="yes"/>
      <point x="-385" y="-381"/>
      <point x="-342" y="-324"/>
      <point x="-269" y="-313" type="curve"/>
      <point x="-269" y="-305" type="line"/>
    </contour>
  </outline>
</glyph>
<glyph name="Chandra.dv" format="2">
  <unicode hex="0945"/>
  <anchor x="-169" y="1262" name="_top"/>
  <outline>
    <contour>
      <point x="0" y="1702" type="line"/>
      <point x="0" y="1684"/>
      <point x="0" y="1672"/>
      <point x="0" y="1660" type="curve" smooth="yes"/>
      <point x="0" y="1488"/>
      <point x="-57" y="1424"/>
      <point x="-169" y="1424" type="curve" smooth="yes"/>
      <point x="-282" y="1424"/>
      <point x="-338" y="1488"/>
      <point x="-338" y="1660" type="curve" smooth="yes"/>
      <point x="-338" y="1672"/>
      <point x="-338" y="1684"/>
      <point x="-338" y="1702" type="curve"/>
      <point x="-305" y="1702" type="line"/>
      <point x="-305" y="1697.72"/>
      <point x="-305" y="1667.49"/>
      <point x="-305" y="1665" type="curve" smooth="yes"/>
      <point x="-305" y="1509"/>
      <point x="-259" y="1456"/>
      <point x="-169" y="1456" type="curve" smooth="yes"/>
      <point x="-79" y="1456"/>
      <point x="-33" y="1509"/>
      <point x="-33" y="1665" type="curve" smooth="yes"/>
      <point x="-33" y="1667.72"/>
      <point x="-33" y="1698.67"/>
      <point x="-33" y="1702" type="curve"/>
    </contour>
  </outline>
  <guideline angle="90" x="-88" y="0"/>
  <guideline angle="0" x="0" y="1424"/>
  <guideline angle="90" x="-169" y="0"/>
  <guideline angle="0" x="0" y="1262"/>
</glyph>
<glyph name="matraAChandra.dv" format="2">
  <advance width="337"/>
  <unicode hex="0949"/>
  <outline>
    <contour>
      <point x="186" y="0" type="line"/>
      <point x="151" y="0" type="line"/>
      <point x="151" y="1251" type="line"/>
      <point x="186" y="1251" type="line"/>
    </contour>
    <contour>
      <point x="361" y="1242" type="line"/>
      <point x="-18" y="1242" type="line"/>
      <point x="-24" y="1271" type="line"/>
      <point x="355" y="1271" type="line"/>
    </contour>
    <contour>
      <point x="177" y="1702" type="line"/>
      <point x="177" y="1684"/>
      <point x="177" y="1672"/>
      <point x="177" y="1660" type="curve" smooth="yes"/>
      <point x="177" y="1488"/>
      <point x="120" y="1424"/>
      <point x="8" y="1424" type="curve" smooth="yes"/>
      <point x="-105" y="1424"/>
      <point x="-161" y="1488"/>
      <point x="-161" y="1660" type="curve" smooth="yes"/>
      <point x="-161" y="1672"/>
      <point x="-161" y="1684"/>
      <point x="-161" y="1702" type="curve"/>
      <point x="-128" y="1702" type="line"/>
      <point x="-128" y="1697.72"/>
      <point x="-128" y="1667.49"/>
      <point x="-128" y="1665" type="curve" smooth="yes"/>
      <point x="-128" y="1509"/>
      <point x="-82" y="1456"/>
      <point x="8" y="1456" type="curve" smooth="yes"/>
      <point x="98" y="1456"/>
      <point x="144" y="1509"/>
      <point x="144" y="1665" type="curve" smooth="yes"/>
      <point x="144" y="1667.72"/>
      <point x="144" y="1698.67"/>
      <point x="144" y="1702" type="curve"/>
    </contour>
  </outline>
</glyph>
<glyph name="matraO.dv" format="2">
  <advance width="337"/>
  <unicode hex="094B"/>
  <outline>
    <contour>
      <point x="186" y="0" type="line"/>
      <point x="151" y="0" type="line"/>
      <point x="151" y="1251" type="line"/>
      <point x="186" y="1251" type="line"/>
    </contour>
    <contour>
      <point x="361" y="1242" type="line"/>
      <point x="-18" y="1242" type="line"/>
      <point x="-24" y="1271" type="line"/>
      <point x="355" y="1271" type="line"/>
    </contour>
    <contour>
      <point x="-224" y="1746" type="line"/>
      <point x="-186" y="1746" type="line"/>
      <point x="-109.788" y="1647.42"/>
      <point x="107.14" y="1366.83"/>
      <point x="182" y="1270" type="curve"/>
      <point x="182" y="1262" type="line"/>
      <point x="152" y="1262" type="line"/>
      <point x="152" y="1266" type="line"/>
      <point x="81" y="1353"/>
      <point x="3" y="1448"/>
      <point x="-52" y="1519" type="curve" smooth="yes"/>
      <point x="-224" y="1741" type="line"/>
    </contour>
  </outline>
</glyph>
<glyph name="matraAu.dv" format="2">
  <advance width="337"/>
  <unicode hex="094C"/>
  <outline>
    <contour>
      <point x="186" y="0" type="line"/>
      <point x="151" y="0" type="line"/>
      <point x="151" y="1251" type="line"/>
      <point x="186" y="1251" type="line"/>
    </contour>
    <contour>
      <point x="361" y="1242" type="line"/>
      <point x="-18" y="1242" type="line"/>
      <point x="-24" y="1271" type="line"/>
      <point x="355" y="1271" type="line"/>
    </contour>
    <contour>
      <point x="-207" y="1604" type="line"/>
      <point x="151" y="1292" type="line"/>
      <point x="153" y="1294" type="line"/>
      <point x="102" y="1413"/>
      <point x="72" y="1495"/>
      <point x="29" y="1610" type="curve" smooth="yes"/>
      <point x="-55" y="1835" type="line"/>
      <point x="-55" y="1840" type="line"/>
      <point x="-20" y="1840" type="line"/>
      <point x="184" y="1270" type="line"/>
      <point x="184" y="1262" type="line"/>
      <point x="146" y="1262" type="line"/>
      <point x="146" y="1271" type="line"/>
      <point x="67" y="1330"/>
      <point x="-13" y="1394"/>
      <point x="-81" y="1453" type="curve" smooth="yes"/>
      <point x="-248" y="1597" type="line"/>
      <point x="-248" y="1604" type="line"/>
    </contour>
  </outline>
</glyph>
<glyph name="Halant.dv" format="2">
  <unicode hex="094D"/>
  <anchor x="-174" y="9" name="_bottom2"/>
  <outline>
    <contour>
      <point x="-188" y="-121" type="line"/>
      <point x="-149" y="-121" type="line"/>
      <point x="20" y="-508" type="line"/>
      <point x="20" y="-512" type="line"/>
      <point x="-13" y="-512" type="line"/>
      <point x="-188" y="-125" type="line"/>
    </contour>
  </outline>
  <guideline angle="90" x="-169" y="0"/>
  <guideline angle="90" x="-45" y="0"/>
  <guideline angle="90" x="-174" y="0"/>
  <guideline angle="0" x="0" y="9"/>
</glyph>
<glyph name="uni094E" format="2">
  <advance width="337"/>
  <unicode hex="094E"/>
  <outline>
    <contour>
      <point x="186" y="1251" type="line"/>
      <point x="186" y="0" type="line"/>
      <point x="151" y="0" type="line"/>
      <point x="151" y="1251" type="line"/>
    </contour>
    <contour>
      <point x="151" y="1242" type="line"/>
      <point x="151" y="1271" type="line"/>
      <point x="355" y="1271" type="line"/>
      <point x="361" y="1242" type="line"/>
    </contour>
  </outline>
</glyph>
<glyph name="uni094F" format="2">
  <advance width="337"/>
  <unicode hex="094F"/>
  <outline>
    <contour>
      <point x="-250" y="1563" type="curve" smooth="yes"/>
      <point x="-250" y="1573"/>
      <point x="-249" y="1584"/>
      <point x="-246" y="1597" type="curve"/>
      <point x="-217" y="1597" type="line"/>
      <point x="-217" y="1581" type="line" smooth="yes"/>
      <point x="-217" y="1501"/>
      <point x="-174" y="1482"/>
      <point x="-53" y="1459" type="curve" smooth="yes"/>
      <point x="-24" y="1454" type="line" smooth="yes"/>
      <point x="95" y="1431"/>
      <point x="132" y="1400"/>
      <point x="156" y="1352" type="curve"/>
      <point x="158" y="1352" type="line"/>
      <point x="156" y="1508"/>
      <point x="139" y="1569"/>
      <point x="47" y="1618" type="curve" smooth="yes"/>
      <point x="4" y="1641" type="line" smooth="yes"/>
      <point x="-78.9441" y="1685.37"/>
      <point x="-107" y="1731"/>
      <point x="-107" y="1797" type="curve" smooth="yes"/>
      <point x="-107" y="1808"/>
      <point x="-106" y="1822"/>
      <point x="-103" y="1834" type="curve"/>
      <point x="-74" y="1834" type="line"/>
      <point x="-74" y="1822" type="line" smooth="yes"/>
      <point x="-74" y="1744"/>
      <point x="-53" y="1710"/>
      <point x="20" y="1671" type="curve" smooth="yes"/>
      <point x="59" y="1650" type="line" smooth="yes"/>
      <point x="163" y="1594"/>
      <point x="184" y="1543"/>
      <point x="184" y="1349" type="curve" smooth="yes"/>
      <point x="184" y="1260" type="line"/>
      <point x="151" y="1260" type="line"/>
      <point x="151" y="1281" type="line" smooth="yes"/>
      <point x="151" y="1358"/>
      <point x="99" y="1401"/>
      <point x="-28" y="1422" type="curve" smooth="yes"/>
      <point x="-61" y="1428" type="line" smooth="yes"/>
      <point x="-196" y="1450"/>
      <point x="-250" y="1487"/>
    </contour>
    <contour>
      <point x="186" y="0" type="line"/>
      <point x="151" y="0" type="line"/>
      <point x="151" y="1251" type="line"/>
      <point x="186" y="1251" type="line"/>
    </contour>
    <contour>
      <point x="361" y="1242" type="line"/>
      <point x="-18" y="1242" type="line"/>
      <point x="-24" y="1271" type="line"/>
      <point x="355" y="1271" type="line"/>
    </contour>
  </outline>
</glyph>
<glyph name="Om.dv" format="2">
  <advance width="1013"/>
  <unicode hex="0950"/>
  <outline>
    <contour>
      <point x="637" y="1387" type="curve" smooth="yes"/>
      <point x="617" y="1387"/>
      <point x="609" y="1408"/>
      <point x="609" y="1452" type="curve" smooth="yes"/>
      <point x="609" y="1466" type="line" smooth="yes"/>
      <point x="609" y="1511"/>
      <point x="617" y="1531"/>
      <point x="637" y="1531" type="curve" smooth="yes"/>
      <point x="657" y="1531"/>
      <point x="664" y="1511"/>
      <point x="664" y="1466" type="curve" smooth="yes"/>
      <point x="664" y="1452" type="line" smooth="yes"/>
      <point x="664" y="1408"/>
      <point x="657" y="1387"/>
    </contour>
    <contour>
      <point x="806" y="1448" type="line"/>
      <point x="806" y="1430"/>
      <point x="806" y="1418"/>
      <point x="806" y="1406" type="curve" smooth="yes"/>
      <point x="806" y="1234"/>
      <point x="750" y="1170"/>
      <point x="637" y="1170" type="curve" smooth="yes"/>
      <point x="525" y="1170"/>
      <point x="468" y="1234"/>
      <point x="468" y="1406" type="curve" smooth="yes"/>
      <point x="468" y="1418"/>
      <point x="468" y="1430"/>
      <point x="468" y="1448" type="curve"/>
      <point x="501" y="1448" type="line"/>
      <point x="501" y="1411" type="line" smooth="yes"/>
      <point x="501" y="1255"/>
      <point x="548" y="1202"/>
      <point x="637" y="1202" type="curve" smooth="yes"/>
      <point x="728" y="1202"/>
      <point x="773" y="1255"/>
      <point x="773" y="1411" type="curve" smooth="yes"/>
      <point x="773" y="1448" type="line"/>
    </contour>
    <contour>
      <point x="585" y="301" type="line"/>
      <point x="625" y="270"/>
      <point x="663" y="254"/>
      <point x="716" y="254" type="curve" smooth="yes"/>
      <point x="825" y="254"/>
      <point x="872" y="324"/>
      <point x="872" y="523" type="curve" smooth="yes"/>
      <point x="872" y="762" type="line" smooth="yes"/>
      <point x="872" y="922"/>
      <point x="839" y="995"/>
      <point x="751" y="995" type="curve" smooth="yes"/>
      <point x="676" y="995"/>
      <point x="639" y="950"/>
      <point x="611" y="788" type="curve" smooth="yes"/>
      <point x="604" y="743" type="line" smooth="yes"/>
      <point x="580" y="596"/>
      <point x="541" y="567"/>
      <point x="460" y="567" type="curve" smooth="yes"/>
      <point x="418" y="567"/>
      <point x="377" y="574"/>
      <point x="333" y="622" type="curve"/>
      <point x="328" y="644" type="line"/>
      <point x="372" y="609"/>
      <point x="405" y="596"/>
      <point x="453" y="596" type="curve" smooth="yes"/>
      <point x="517" y="596"/>
      <point x="550" y="615"/>
      <point x="572" y="751" type="curve" smooth="yes"/>
      <point x="580" y="797" type="line" smooth="yes"/>
      <point x="608" y="968"/>
      <point x="659" y="1029"/>
      <point x="751" y="1029" type="curve" smooth="yes"/>
      <point x="856" y="1029"/>
      <point x="907" y="953"/>
      <point x="907" y="765" type="curve" smooth="yes"/>
      <point x="907" y="521" type="line" smooth="yes"/>
      <point x="907" y="304"/>
      <point x="849" y="221"/>
      <point x="718" y="221" type="curve" smooth="yes"/>
      <point x="665" y="221"/>
      <point x="622" y="236"/>
      <point x="589" y="259" type="curve"/>
    </contour>
    <contour>
      <point x="29" y="136" type="line"/>
      <point x="79" y="95"/>
      <point x="131" y="73"/>
      <point x="195" y="73" type="curve" smooth="yes"/>
      <point x="322" y="73"/>
      <point x="377" y="149"/>
      <point x="377" y="311" type="curve" smooth="yes"/>
      <point x="377" y="342"/>
      <point x="377" y="405"/>
      <point x="377" y="418" type="curve" smooth="yes"/>
      <point x="377" y="585"/>
      <point x="320" y="658"/>
      <point x="178" y="662" type="curve" smooth="yes"/>
      <point x="116" y="664" type="line"/>
      <point x="116" y="694" type="line"/>
      <point x="178" y="696" type="line" smooth="yes"/>
      <point x="318" y="700"/>
      <point x="375" y="772"/>
      <point x="375" y="938" type="curve" smooth="yes"/>
      <point x="375" y="949"/>
      <point x="375" y="1005"/>
      <point x="375" y="1029" type="curve" smooth="yes"/>
      <point x="375" y="1180"/>
      <point x="328" y="1248"/>
      <point x="219" y="1248" type="curve" smooth="yes"/>
      <point x="160" y="1248"/>
      <point x="120" y="1232"/>
      <point x="68" y="1192" type="curve"/>
      <point x="72" y="1235" type="line"/>
      <point x="112" y="1264"/>
      <point x="156" y="1281"/>
      <point x="219" y="1281" type="curve" smooth="yes"/>
      <point x="348" y="1281"/>
      <point x="410" y="1199"/>
      <point x="410" y="1030" type="curve" smooth="yes"/>
      <point x="410" y="1021"/>
      <point x="410" y="971"/>
      <point x="410" y="938" type="curve" smooth="yes"/>
      <point x="410" y="769"/>
      <point x="349" y="681"/>
      <point x="224" y="679" type="curve"/>
      <point x="224" y="677" type="line"/>
      <point x="349" y="668"/>
      <point x="412" y="591"/>
      <point x="412" y="418" type="curve" smooth="yes"/>
      <point x="412" y="381"/>
      <point x="412" y="320"/>
      <point x="412" y="309" type="curve" smooth="yes"/>
      <point x="412" y="123"/>
      <point x="340" y="40"/>
      <point x="195" y="40" type="curve" smooth="yes"/>
      <point x="126" y="40"/>
      <point x="75" y="60"/>
      <point x="33" y="94" type="curve"/>
    </contour>
  </outline>
</glyph>
<glyph name="Udatta.dv" format="2">
  <unicode hex="0951"/>
  <anchor x="-169" y="1262" name="_top"/>
  <outline>
    <contour>
      <point x="-185" y="1487" type="line"/>
      <point x="-185" y="1890" type="line"/>
      <point x="-152" y="1890" type="line"/>
      <point x="-152" y="1487" type="line"/>
    </contour>
  </outline>
</glyph>
<glyph name="Anudatta.dv" format="2">
  <unicode hex="0952"/>
  <anchor x="-151" y="9" name="_bottom3"/>
  <outline>
    <contour>
      <point x="-575" y="-326" type="line"/>
      <point x="-582" y="-293" type="line"/>
      <point x="-151" y="-293" type="line"/>
      <point x="-145" y="-326" type="line"/>
    </contour>
  </outline>
</glyph>
<glyph name="uni0953" format="2">
  <unicode hex="0953"/>
  <anchor x="-169" y="1262" name="_top"/>
  <outline>
    <contour>
      <point x="-184" y="1424" type="line"/>
      <point x="-355" y="1739" type="line"/>
      <point x="-355" y="1742" type="line"/>
      <point x="-318" y="1742" type="line"/>
      <point x="-153" y="1428" type="line"/>
      <point x="-153" y="1424" type="line"/>
    </contour>
  </outline>
  <guideline angle="90" x="-169" y="0"/>
  <guideline angle="0" x="0" y="1262"/>
</glyph>
<glyph name="uni0954" format="2">
  <unicode hex="0954"/>
  <anchor x="-169" y="1262" name="_top"/>
  <outline>
    <contour>
      <point x="-148" y="1424" type="line"/>
      <point x="-179" y="1424" type="line"/>
      <point x="-179" y="1428" type="line"/>
      <point x="-14" y="1742" type="line"/>
      <point x="23" y="1742" type="line"/>
      <point x="23" y="1739" type="line"/>
    </contour>
  </outline>
</glyph>
<glyph name="uni0955" format="2">
  <unicode hex="0955"/>
  <anchor x="-169" y="1262" name="_top"/>
  <outline>
    <contour>
      <point x="-49" y="1788" type="line"/>
      <point x="-18" y="1788" type="line"/>
      <point x="-18" y="1771"/>
      <point x="-18" y="1762"/>
      <point x="-18" y="1751" type="curve" smooth="yes"/>
      <point x="-18" y="1606"/>
      <point x="-67" y="1551"/>
      <point x="-169" y="1551" type="curve" smooth="yes"/>
      <point x="-268" y="1551"/>
      <point x="-319" y="1606"/>
      <point x="-319" y="1751" type="curve" smooth="yes"/>
      <point x="-319" y="1762"/>
      <point x="-319" y="1771"/>
      <point x="-319" y="1788" type="curve"/>
      <point x="-287" y="1788" type="line"/>
      <point x="-287" y="1753" type="line" smooth="yes"/>
      <point x="-287" y="1624"/>
      <point x="-250" y="1580"/>
      <point x="-169" y="1580" type="curve" smooth="yes"/>
      <point x="-88" y="1580"/>
      <point x="-49" y="1624"/>
      <point x="-49" y="1753" type="curve" smooth="yes"/>
    </contour>
    <contour>
      <point x="-329" y="1409" type="line"/>
      <point x="-329" y="1438" type="line"/>
      <point x="-9" y="1438" type="line"/>
      <point x="-9" y="1409" type="line"/>
    </contour>
  </outline>
</glyph>
<glyph name="uni0957" format="2">
  <unicode hex="0957"/>
  <anchor x="-169" y="30" name="_bottom5"/>
  <outline>
    <contour>
      <point x="-178.002" y="-272" type="curve" smooth="yes"/>
      <point x="-255.25" y="-272"/>
      <point x="-334" y="-255"/>
      <point x="-389" y="-227" type="curve"/>
      <point x="-392" y="-191" type="line"/>
      <point x="-330" y="-223"/>
      <point x="-256" y="-239"/>
      <point x="-178" y="-239" type="curve" smooth="yes"/>
      <point x="-100" y="-239"/>
      <point x="-27" y="-223"/>
      <point x="37" y="-191" type="curve"/>
      <point x="34" y="-227" type="line"/>
      <point x="-22" y="-255"/>
      <point x="-100.753" y="-272"/>
    </contour>
    <contour>
      <point x="-178.002" y="-522" type="curve" smooth="yes"/>
      <point x="-255.25" y="-522"/>
      <point x="-334" y="-505"/>
      <point x="-389" y="-477" type="curve"/>
      <point x="-392" y="-441" type="line"/>
      <point x="-330" y="-473"/>
      <point x="-256" y="-489"/>
      <point x="-178" y="-489" type="curve" smooth="yes"/>
      <point x="-100" y="-489"/>
      <point x="-27" y="-473"/>
      <point x="37" y="-441" type="curve"/>
      <point x="34" y="-477" type="line"/>
      <point x="-22" y="-505"/>
      <point x="-100.753" y="-522"/>
    </contour>
  </outline>
</glyph>
<glyph name="KaNukta.dv" format="2">
  <advance width="924"/>
  <unicode hex="0958"/>
  <anchor x="468" y="9" name="bottom"/>
  <anchor x="463" y="9" name="bottom2"/>
  <anchor x="690" y="9" name="bottom3"/>
  <anchor x="468" y="30" name="bottom5"/>
  <anchor x="468" y="1262" name="top"/>
  <outline>
    <contour>
      <point x="-16" y="1242" type="line"/>
      <point x="-22" y="1271" type="line"/>
      <point x="940" y="1271" type="line"/>
      <point x="946" y="1242" type="line"/>
    </contour>
    <contour>
      <point x="107" y="451" type="curve" smooth="yes"/>
      <point x="107" y="758" type="line" smooth="yes"/>
      <point x="107" y="929"/>
      <point x="168" y="1014"/>
      <point x="295" y="1014" type="curve" smooth="yes"/>
      <point x="326" y="1014"/>
      <point x="352" y="1008"/>
      <point x="372" y="998" type="curve"/>
      <point x="376" y="962" type="line"/>
      <point x="350" y="975"/>
      <point x="328" y="981"/>
      <point x="295" y="981" type="curve" smooth="yes"/>
      <point x="193" y="981"/>
      <point x="142" y="909"/>
      <point x="142" y="754" type="curve" smooth="yes"/>
      <point x="142" y="454" type="line" smooth="yes"/>
      <point x="142" y="304"/>
      <point x="192" y="228"/>
      <point x="295" y="228" type="curve" smooth="yes"/>
      <point x="372" y="228"/>
      <point x="436" y="272"/>
      <point x="455" y="381" type="curve"/>
      <point x="459" y="319" type="line"/>
      <point x="456" y="319" type="line"/>
      <point x="441" y="246"/>
      <point x="383" y="195"/>
      <point x="295" y="195" type="curve" smooth="yes"/>
      <point x="169" y="195"/>
      <point x="107" y="280"/>
    </contour>
    <contour>
      <point x="817" y="765" type="curve" smooth="yes"/>
      <point x="817" y="443" type="line" smooth="yes"/>
      <point x="817" y="276"/>
      <point x="762" y="195"/>
      <point x="646" y="195" type="curve" smooth="yes"/>
      <point x="615" y="195"/>
      <point x="586" y="201"/>
      <point x="565" y="212" type="curve"/>
      <point x="560" y="248" type="line"/>
      <point x="586" y="235"/>
      <point x="611" y="228"/>
      <point x="644" y="228" type="curve" smooth="yes"/>
      <point x="742" y="228"/>
      <point x="782" y="298"/>
      <point x="782" y="447" type="curve" smooth="yes"/>
      <point x="782" y="762" type="line" smooth="yes"/>
      <point x="782" y="909"/>
      <point x="734" y="981"/>
      <point x="639" y="981" type="curve" smooth="yes"/>
      <point x="565" y="981"/>
      <point x="504" y="940"/>
      <point x="484" y="837" type="curve"/>
      <point x="478" y="891" type="line"/>
      <point x="481" y="891" type="line"/>
      <point x="496" y="964"/>
      <point x="555" y="1014"/>
      <point x="639" y="1014" type="curve" smooth="yes"/>
      <point x="755" y="1014"/>
      <point x="817" y="933"/>
    </contour>
    <contour>
      <point x="486" y="1251" type="line"/>
      <point x="486" y="0" type="line"/>
      <point x="451" y="0" type="line"/>
      <point x="451" y="1251" type="line"/>
    </contour>
    <contour>
      <point x="228" y="-128" type="curve" smooth="yes"/>
      <point x="206" y="-128"/>
      <point x="199" y="-108"/>
      <point x="199" y="-62" type="curve"/>
      <point x="199" y="-60.3428"/>
      <point x="199" y="-48.4355"/>
      <point x="199" y="-47" type="curve"/>
      <point x="199" y="-1"/>
      <point x="206" y="19"/>
      <point x="228" y="19" type="curve" smooth="yes"/>
      <point x="250" y="19"/>
      <point x="257" y="-1"/>
      <point x="257" y="-47" type="curve"/>
      <point x="257" y="-48.6572"/>
      <point x="257" y="-60.5645"/>
      <point x="257" y="-62" type="curve"/>
      <point x="257" y="-108"/>
      <point x="250" y="-128"/>
    </contour>
  </outline>
</glyph>
<glyph name="DdhaNukta.dv" format="2">
  <advance width="671"/>
  <unicode hex="095D"/>
  <anchor x="378" y="-426" name="bottom"/>
  <anchor x="345" y="-311" name="bottom2"/>
  <anchor x="576" y="9" name="bottom3"/>
  <anchor x="364" y="30" name="bottom5"/>
  <anchor x="516" y="1262" name="top"/>
  <outline>
    <contour>
      <point x="399" y="1242" type="line"/>
      <point x="393" y="1271" type="line"/>
      <point x="653" y="1271" type="line"/>
      <point x="659" y="1242" type="line"/>
    </contour>
    <contour>
      <point x="534" y="1252" type="line"/>
      <point x="534" y="1016" type="line"/>
      <point x="500" y="1016" type="line"/>
      <point x="500" y="1252" type="line"/>
    </contour>
    <contour>
      <point x="-10" y="1242" type="line"/>
      <point x="-16" y="1271" type="line"/>
      <point x="713" y="1271" type="line"/>
      <point x="718" y="1242" type="line"/>
    </contour>
    <contour>
      <point x="499" y="1253" type="line"/>
      <point x="534" y="1253" type="line"/>
      <point x="534" y="924" type="line"/>
      <point x="499" y="942" type="line"/>
    </contour>
    <contour>
      <point x="109" y="659" type="line" smooth="yes"/>
      <point x="109" y="878"/>
      <point x="194" y="977"/>
      <point x="378" y="977" type="curve" smooth="yes"/>
      <point x="435" y="977"/>
      <point x="481" y="972"/>
      <point x="534" y="957" type="curve"/>
      <point x="534" y="924" type="line"/>
      <point x="477" y="938"/>
      <point x="433" y="944"/>
      <point x="380" y="944" type="curve" smooth="yes"/>
      <point x="216" y="944"/>
      <point x="144" y="857"/>
      <point x="144" y="657" type="curve" smooth="yes"/>
      <point x="144" y="280" type="line" smooth="yes"/>
      <point x="144" y="110"/>
      <point x="209" y="31"/>
      <point x="350" y="31" type="curve" smooth="yes"/>
      <point x="490" y="31"/>
      <point x="555" y="110"/>
      <point x="555" y="278" type="curve" smooth="yes"/>
      <point x="555" y="495" type="line" smooth="yes"/>
      <point x="555" y="591"/>
      <point x="523" y="633"/>
      <point x="457" y="633" type="curve" smooth="yes"/>
      <point x="391" y="633"/>
      <point x="360" y="591"/>
      <point x="360" y="495" type="curve" smooth="yes"/>
      <point x="360" y="272" type="line" smooth="yes"/>
      <point x="360" y="131"/>
      <point x="393" y="90"/>
      <point x="465" y="42" type="curve"/>
      <point x="437" y="31" type="line"/>
      <point x="437" y="35" type="line"/>
      <point x="371" y="75"/>
      <point x="327" y="123"/>
      <point x="327" y="269" type="curve" smooth="yes"/>
      <point x="327" y="499" type="line" smooth="yes"/>
      <point x="327" y="609"/>
      <point x="371" y="664"/>
      <point x="457" y="664" type="curve" smooth="yes"/>
      <point x="544" y="664"/>
      <point x="588" y="609"/>
      <point x="588" y="499" type="curve" smooth="yes"/>
      <point x="588" y="276" type="line" smooth="yes"/>
      <point x="588" y="88"/>
      <point x="509" y="0"/>
      <point x="349" y="0" type="curve" smooth="yes"/>
      <point x="190" y="0"/>
      <point x="109" y="90"/>
      <point x="109" y="278" type="curve" smooth="yes"/>
    </contour>
    <contour>
      <point x="349" y="-305" type="curve" smooth="yes"/>
      <point x="327" y="-305"/>
      <point x="320" y="-285"/>
      <point x="320" y="-239" type="curve"/>
      <point x="320" y="-237.343"/>
      <point x="320" y="-225.435"/>
      <point x="320" y="-224" type="curve"/>
      <point x="320" y="-178"/>
      <point x="327" y="-158"/>
      <point x="349" y="-158" type="curve" smooth="yes"/>
      <point x="371" y="-158"/>
      <point x="378" y="-178"/>
      <point x="378" y="-224" type="curve"/>
      <point x="378" y="-225.657"/>
      <point x="378" y="-237.565"/>
      <point x="378" y="-239" type="curve"/>
      <point x="378" y="-285"/>
      <point x="371" y="-305"/>
    </contour>
  </outline>
  <guideline angle="0" x="0" y="9"/>
  <guideline angle="0" x="0" y="30"/>
  <guideline angle="90" x="516" y="0"/>
</glyph>
<glyph name="YaNukta.dv" format="2">
  <advance width="740"/>
  <unicode hex="095F"/>
  <anchor x="571" y="9" name="bottom"/>
  <anchor x="566" y="9" name="bottom2"/>
  <anchor x="589" y="9" name="bottom3"/>
  <anchor x="571" y="30" name="bottom5"/>
  <anchor x="571" y="1262" name="top"/>
  <outline>
    <contour>
      <point x="589" y="1251" type="line"/>
      <point x="589" y="0" type="line"/>
      <point x="554" y="0" type="line"/>
      <point x="554" y="1251" type="line"/>
    </contour>
    <contour>
      <point x="454" y="1242" type="line"/>
      <point x="448" y="1271" type="line"/>
      <point x="758" y="1271" type="line"/>
      <point x="764" y="1242" type="line"/>
    </contour>
    <contour>
      <point x="-24" y="1271" type="line"/>
      <point x="658" y="1271" type="line"/>
      <point x="664" y="1242" type="line"/>
      <point x="-18" y="1242" type="line"/>
    </contour>
    <contour>
      <point x="254" y="1249" type="line"/>
      <point x="289" y="1202"/>
      <point x="298" y="1133"/>
      <point x="298" y="1018" type="curve" smooth="yes"/>
      <point x="298" y="931" type="line" smooth="yes"/>
      <point x="298" y="754"/>
      <point x="239" y="686"/>
      <point x="116" y="686" type="curve" smooth="yes"/>
      <point x="99" y="686" type="line"/>
      <point x="83" y="718" type="line"/>
      <point x="109" y="718" type="line" smooth="yes"/>
      <point x="210" y="718"/>
      <point x="263" y="767"/>
      <point x="263" y="933" type="curve" smooth="yes"/>
      <point x="263" y="1016" type="line" smooth="yes"/>
      <point x="263" y="1133"/>
      <point x="254" y="1198"/>
      <point x="217" y="1249" type="curve"/>
    </contour>
    <contour>
      <point x="83" y="552" type="line" smooth="yes"/>
      <point x="83" y="637"/>
      <point x="83" y="677"/>
      <point x="83" y="718" type="curve"/>
      <point x="118" y="699" type="line"/>
      <point x="118" y="543" type="line" smooth="yes"/>
      <point x="118" y="342"/>
      <point x="193" y="261"/>
      <point x="331" y="261" type="curve" smooth="yes"/>
      <point x="456" y="261"/>
      <point x="528" y="324"/>
      <point x="558" y="460" type="curve"/>
      <point x="563" y="397" type="line"/>
      <point x="559" y="397" type="line"/>
      <point x="537" y="295"/>
      <point x="466" y="228"/>
      <point x="331" y="228" type="curve" smooth="yes"/>
      <point x="169" y="228"/>
      <point x="83" y="329"/>
      <point x="83" y="539" type="curve" smooth="yes"/>
    </contour>
    <contour>
      <point x="140" y="-46" type="curve" smooth="yes"/>
      <point x="118" y="-46"/>
      <point x="111" y="-26"/>
      <point x="111" y="20" type="curve"/>
      <point x="111" y="21.6572"/>
      <point x="111" y="33.5645"/>
      <point x="111" y="35" type="curve"/>
      <point x="111" y="81"/>
      <point x="118" y="101"/>
      <point x="140" y="101" type="curve" smooth="yes"/>
      <point x="162" y="101"/>
      <point x="169" y="81"/>
      <point x="169" y="35" type="curve"/>
      <point x="169" y="33.3428"/>
      <point x="169" y="21.4355"/>
      <point x="169" y="20" type="curve"/>
      <point x="169" y="-26"/>
      <point x="162" y="-46"/>
    </contour>
  </outline>
  <guideline angle="90" x="139" y="0"/>
  <guideline angle="0" x="0" y="-163"/>
  <guideline angle="90" x="95" y="0"/>
  <guideline angle="90" x="566" y="0"/>
  <guideline angle="0" x="0" y="9"/>
  <guideline angle="90" x="571" y="0"/>
  <guideline angle="90" x="554" y="0"/>
  <guideline angle="0" x="0" y="1262"/>
  <guideline angle="90" x="589" y="0"/>
  <guideline angle="0" x="0" y="-125"/>
</glyph>
<glyph name="vowelRuu.dv" format="2">
  <advance width="1000"/>
  <unicode hex="0960"/>
  <anchor x="726" y="9" name="bottom3"/>
  <anchor x="512" y="30" name="bottom5"/>
  <anchor x="511" y="1262" name="top"/>
  <outline>
    <contour>
      <point x="529" y="0" type="line"/>
      <point x="494" y="0" type="line"/>
      <point x="494" y="1248" type="line"/>
      <point x="529" y="1248" type="line"/>
    </contour>
    <contour>
      <point x="509" y="443" type="line"/>
      <point x="68" y="110" type="line"/>
      <point x="68" y="151" type="line"/>
      <point x="209" y="259" type="line"/>
      <point x="226" y="263" type="line"/>
      <point x="257" y="294"/>
      <point x="284" y="315"/>
      <point x="323" y="344" type="curve" smooth="yes"/>
      <point x="504" y="480" type="line"/>
    </contour>
    <contour>
      <point x="235" y="258" type="line"/>
      <point x="198" y="245" type="line"/>
      <point x="257" y="333"/>
      <point x="270" y="408"/>
      <point x="270" y="583" type="curve" smooth="yes"/>
      <point x="270" y="745" type="line" smooth="yes"/>
      <point x="270" y="918"/>
      <point x="233" y="975"/>
      <point x="156" y="975" type="curve" smooth="yes"/>
      <point x="118" y="975"/>
      <point x="89" y="963"/>
      <point x="57" y="942" type="curve"/>
      <point x="60" y="982" type="line"/>
      <point x="86" y="998"/>
      <point x="119" y="1008"/>
      <point x="156" y="1008" type="curve" smooth="yes"/>
      <point x="257" y="1008"/>
      <point x="305" y="939"/>
      <point x="305" y="749" type="curve" smooth="yes"/>
      <point x="305" y="581" type="line" smooth="yes"/>
      <point x="305" y="386"/>
      <point x="277" y="320"/>
      <point x="235" y="263" type="curve"/>
    </contour>
    <contour>
      <point x="1017" y="1242" type="line"/>
      <point x="-19" y="1242" type="line"/>
      <point x="-24" y="1271" type="line"/>
      <point x="1011" y="1271" type="line"/>
    </contour>
    <contour>
      <point x="795" y="696" type="line"/>
      <point x="800" y="659" type="line"/>
      <point x="524" y="454" type="line"/>
      <point x="517" y="489" type="line"/>
    </contour>
    <contour>
      <point x="801" y="1005" type="line"/>
      <point x="811" y="911"/>
      <point x="817" y="858"/>
      <point x="827" y="764" type="curve"/>
      <point x="800" y="663" type="line"/>
      <point x="769" y="657" type="line"/>
      <point x="769" y="1005" type="line"/>
    </contour>
    <contour>
      <point x="879" y="-6" type="curve" smooth="yes"/>
      <point x="789" y="-6"/>
      <point x="734" y="39"/>
      <point x="734" y="223" type="curve" smooth="yes"/>
      <point x="734" y="243" type="line" smooth="yes"/>
      <point x="734" y="401"/>
      <point x="778.377" y="469"/>
      <point x="881" y="486" type="curve"/>
      <point x="881" y="488" type="line"/>
      <point x="832.836" y="536"/>
      <point x="795.31" y="594.107"/>
      <point x="766" y="668" type="curve"/>
      <point x="796" y="681" type="line"/>
      <point x="820.426" y="605.912"/>
      <point x="862.401" y="548.461"/>
      <point x="918" y="490" type="curve"/>
      <point x="918" y="461" type="line"/>
      <point x="817.033" y="455.977"/>
      <point x="769" y="405.747"/>
      <point x="769" y="243" type="curve" smooth="yes"/>
      <point x="769" y="226" type="line" smooth="yes"/>
      <point x="769" y="64"/>
      <point x="805" y="28"/>
      <point x="881" y="28" type="curve" smooth="yes"/>
      <point x="912" y="28"/>
      <point x="938" y="37"/>
      <point x="958" y="48" type="curve"/>
      <point x="954" y="13" type="line"/>
      <point x="936" y="2"/>
      <point x="910" y="-6"/>
    </contour>
  </outline>
</glyph>
<glyph name="matraLru.dv" format="2">
  <unicode hex="0962"/>
  <outline>
    <contour>
      <point x="-68" y="-164" type="line"/>
      <point x="-68" y="-201" type="line" smooth="yes"/>
      <point x="-68" y="-269"/>
      <point x="-85" y="-314"/>
      <point x="-127" y="-374" type="curve" smooth="yes"/>
      <point x="-162" y="-425"/>
      <point x="-188" y="-461"/>
      <point x="-188" y="-515" type="curve" smooth="yes"/>
      <point x="-188" y="-567"/>
      <point x="-162" y="-588"/>
      <point x="-118" y="-588" type="curve" smooth="yes"/>
      <point x="-90" y="-588"/>
      <point x="-68" y="-579"/>
      <point x="-52" y="-566" type="curve"/>
      <point x="-53" y="-598" type="line"/>
      <point x="-68" y="-609"/>
      <point x="-89" y="-616"/>
      <point x="-120" y="-616" type="curve" smooth="yes"/>
      <point x="-175" y="-616"/>
      <point x="-218" y="-585"/>
      <point x="-218" y="-514" type="curve" smooth="yes"/>
      <point x="-218" y="-457"/>
      <point x="-193" y="-417"/>
      <point x="-153" y="-359" type="curve" smooth="yes"/>
      <point x="-112" y="-300"/>
      <point x="-100" y="-261"/>
      <point x="-100" y="-200" type="curve" smooth="yes"/>
      <point x="-100" y="-165" type="line"/>
    </contour>
    <contour>
      <point x="-307" y="-342" type="line"/>
      <point x="-309" y="-144" type="line" smooth="yes"/>
      <point x="-310" y="-58"/>
      <point x="-342" y="-20"/>
      <point x="-398" y="-20" type="curve" smooth="yes"/>
      <point x="-462" y="-20"/>
      <point x="-492" y="-72"/>
      <point x="-492" y="-166" type="curve" smooth="yes"/>
      <point x="-492" y="-216" type="line" smooth="yes"/>
      <point x="-492" y="-344"/>
      <point x="-475" y="-414"/>
      <point x="-390" y="-506" type="curve"/>
      <point x="-430" y="-506" type="line"/>
      <point x="-501" y="-424"/>
      <point x="-524" y="-348"/>
      <point x="-524" y="-218" type="curve" smooth="yes"/>
      <point x="-524" y="-162" type="line" smooth="yes"/>
      <point x="-524" y="-50"/>
      <point x="-479" y="9"/>
      <point x="-398" y="9" type="curve" smooth="yes"/>
      <point x="-341" y="9"/>
      <point x="-304" y="-20"/>
      <point x="-294" y="-75" type="curve"/>
      <point x="-293" y="-75" type="line"/>
      <point x="-284" y="-20"/>
      <point x="-244" y="9"/>
      <point x="-188" y="9" type="curve" smooth="yes"/>
      <point x="-106" y="9"/>
      <point x="-68" y="-49"/>
      <point x="-68" y="-153" type="curve" smooth="yes"/>
      <point x="-68" y="-167" type="line"/>
      <point x="-100" y="-169" type="line"/>
      <point x="-100" y="-156" type="line" smooth="yes"/>
      <point x="-100" y="-69"/>
      <point x="-126" y="-20"/>
      <point x="-185" y="-20" type="curve" smooth="yes"/>
      <point x="-246" y="-20"/>
      <point x="-276" y="-58"/>
      <point x="-278" y="-144" type="curve" smooth="yes"/>
      <point x="-282" y="-342" type="line"/>
    </contour>
  </outline>
</glyph>
<glyph name="Doubledanda.dv" format="2">
  <advance width="880"/>
  <unicode hex="0965"/>
  <outline>
    <contour>
      <point x="622" y="1308" type="line"/>
      <point x="622" y="0" type="line"/>
      <point x="587" y="0" type="line"/>
      <point x="587" y="1321" type="line"/>
    </contour>
    <contour>
      <point x="293" y="1308" type="line"/>
      <point x="293" y="0" type="line"/>
      <point x="258" y="0" type="line"/>
      <point x="258" y="1321" type="line"/>
    </contour>
  </outline>
</glyph>
<glyph name="Ek.dv" format="2">
  <advance width="642"/>
  <unicode hex="0967"/>
  <outline>
    <contour>
      <point x="498.8" y="1010.16" type="curve" smooth="yes"/>
      <point x="498.8" y="0" type="line"/>
      <point x="463.84" y="0" type="line"/>
      <point x="463.84" y="1008.32" type="line" smooth="yes"/>
      <point x="463.84" y="1168.4"/>
      <point x="416" y="1243.84"/>
      <point x="305.6" y="1243.84" type="curve" smooth="yes"/>
      <point x="191.52" y="1243.84"/>
      <point x="136.32" y="1168.4"/>
      <point x="136.32" y="1008.32" type="curve" smooth="yes"/>
      <point x="136.32" y="824.32" type="line" smooth="yes"/>
      <point x="136.32" y="638.48"/>
      <point x="197.04" y="575.92"/>
      <point x="294.56" y="575.92" type="curve" smooth="yes"/>
      <point x="382.88" y="575.92"/>
      <point x="438.08" y="620.08"/>
      <point x="465.68" y="741.52" type="curve"/>
      <point x="469.36" y="675.28" type="line"/>
      <point x="465.68" y="675.28" type="line"/>
      <point x="445.44" y="592.48"/>
      <point x="390.24" y="542.8"/>
      <point x="294.56" y="542.8" type="curve" smooth="yes"/>
      <point x="176.8" y="542.8"/>
      <point x="101.36" y="618.24"/>
      <point x="101.36" y="822.48" type="curve" smooth="yes"/>
      <point x="101.36" y="1010.16" type="line" smooth="yes"/>
      <point x="101.36" y="1186.8"/>
      <point x="165.76" y="1276.96"/>
      <point x="305.6" y="1276.96" type="curve" smooth="yes"/>
      <point x="439.92" y="1276.96"/>
      <point x="498.8" y="1186.8"/>
    </contour>
  </outline>
</glyph>
<glyph name="Don.dv" format="2">
  <advance width="557"/>
  <unicode hex="0968"/>
  <outline>
    <contour>
      <point x="66" y="533" type="line"/>
      <point x="66" y="567" type="line"/>
      <point x="140" y="546" type="line"/>
      <point x="174" y="545" type="line"/>
      <point x="208" y="459"/>
      <point x="236.439" y="393.575"/>
      <point x="277" y="290" type="curve" smooth="yes"/>
      <point x="389" y="4" type="line"/>
      <point x="389" y="0" type="line"/>
      <point x="354" y="0" type="line"/>
      <point x="148" y="524" type="line"/>
    </contour>
    <contour>
      <point x="66.24" y="566.56" type="line"/>
      <point x="93.68" y="563.04"/>
      <point x="126.96" y="559.36"/>
      <point x="161.08" y="559.36" type="curve" smooth="yes"/>
      <point x="336.72" y="559.36"/>
      <point x="419.52" y="653.2"/>
      <point x="419.52" y="874" type="curve" smooth="yes"/>
      <point x="419.52" y="988.08" type="line" smooth="yes"/>
      <point x="419.52" y="1171.4"/>
      <point x="353.28" y="1242"/>
      <point x="250.08" y="1242" type="curve" smooth="yes"/>
      <point x="187.68" y="1242"/>
      <point x="140.68" y="1223.76"/>
      <point x="88.32" y="1184.96" type="curve"/>
      <point x="92" y="1227.28" type="line"/>
      <point x="133.32" y="1257.06"/>
      <point x="184" y="1275.12"/>
      <point x="250.24" y="1275.12" type="curve" smooth="yes"/>
      <point x="379.04" y="1275.12"/>
      <point x="454.48" y="1189.8"/>
      <point x="454.48" y="988.08" type="curve" smooth="yes"/>
      <point x="454.48" y="866.64" type="line" smooth="yes"/>
      <point x="454.48" y="625.6"/>
      <point x="364.32" y="526.24"/>
      <point x="147.2" y="526.24" type="curve" smooth="yes"/>
      <point x="141.68" y="526.24"/>
      <point x="139.84" y="526.24"/>
      <point x="134.32" y="526.24" type="curve"/>
    </contour>
  </outline>
</glyph>
<glyph name="Teen.dv" format="2">
  <advance width="567"/>
  <unicode hex="0969"/>
  <outline>
    <contour>
      <point x="50" y="161" type="line"/>
      <point x="105" y="122"/>
      <point x="161" y="91"/>
      <point x="236" y="91" type="curve" smooth="yes"/>
      <point x="366" y="91"/>
      <point x="425.04" y="169.988"/>
      <point x="425.04" y="349.6" type="curve" smooth="yes"/>
      <point x="425.04" y="423.2" type="line" smooth="yes"/>
      <point x="425.04" y="570.4"/>
      <point x="380.88" y="667.92"/>
      <point x="202.4" y="677.12" type="curve" smooth="yes"/>
      <point x="130.64" y="680.8" type="line"/>
      <point x="130.64" y="713.92" type="line"/>
      <point x="206.08" y="715.76" type="line" smooth="yes"/>
      <point x="401.12" y="721.28"/>
      <point x="421.36" y="842.72"/>
      <point x="421.36" y="977.04" type="curve" smooth="yes"/>
      <point x="421.36" y="1019.84" type="line" smooth="yes"/>
      <point x="421.36" y="1190.48"/>
      <point x="353.28" y="1242"/>
      <point x="250.72" y="1242" type="curve" smooth="yes"/>
      <point x="189.52" y="1242"/>
      <point x="138" y="1222.44"/>
      <point x="88.32" y="1184.96" type="curve"/>
      <point x="92" y="1227.28" type="line"/>
      <point x="126.96" y="1253.67"/>
      <point x="182.16" y="1275.12"/>
      <point x="249.868" y="1275.12" type="curve" smooth="yes"/>
      <point x="382.72" y="1275.12"/>
      <point x="456.32" y="1201.52"/>
      <point x="456.32" y="1021.68" type="curve" smooth="yes"/>
      <point x="456.32" y="973.36" type="line" smooth="yes"/>
      <point x="456.32" y="805.92"/>
      <point x="406.64" y="706.56"/>
      <point x="252.08" y="697.36" type="curve"/>
      <point x="252.08" y="694.52" type="line"/>
      <point x="406.64" y="677.12"/>
      <point x="460" y="583.28"/>
      <point x="460" y="412.16" type="curve" smooth="yes"/>
      <point x="460" y="344.08" type="line" smooth="yes"/>
      <point x="460" y="147.059"/>
      <point x="391" y="57"/>
      <point x="237.36" y="57.04" type="curve" smooth="yes"/>
      <point x="186" y="57"/>
      <point x="152" y="67"/>
      <point x="119.6" y="88.32" type="curve"/>
      <point x="53.36" y="117.76" type="line"/>
    </contour>
    <contour>
      <point x="331" y="-267" type="line"/>
      <point x="293" y="-267" type="line"/>
      <point x="120" y="81" type="line"/>
      <point x="53" y="118" type="line"/>
      <point x="75" y="114" type="line"/>
      <point x="153" y="88" type="line"/>
      <point x="153" y="84" type="line"/>
      <point x="185" y="22"/>
      <point x="209" y="-25"/>
      <point x="239" y="-84" type="curve" smooth="yes"/>
      <point x="331" y="-265" type="line"/>
    </contour>
  </outline>
</glyph>
<glyph name="Chaar.dv" format="2">
  <advance width="651"/>
  <unicode hex="096A"/>
  <outline>
    <contour>
      <point x="128.8" y="349.6" type="line" smooth="yes"/>
      <point x="128.8" y="511.52"/>
      <point x="180.32" y="575.92"/>
      <point x="303.6" y="636.64" type="curve"/>
      <point x="320.16" y="644" type="line"/>
      <point x="456.32" y="712.08"/>
      <point x="507.84" y="776.48"/>
      <point x="507.84" y="949.44" type="curve" smooth="yes"/>
      <point x="507.84" y="1019.36" type="line" smooth="yes"/>
      <point x="507.84" y="1122.4"/>
      <point x="507.84" y="1192.32"/>
      <point x="507.84" y="1260.4" type="curve"/>
      <point x="542.8" y="1260.4" type="line"/>
      <point x="542.8" y="1194.16"/>
      <point x="542.8" y="1124.24"/>
      <point x="542.8" y="1019.36" type="curve" smooth="yes"/>
      <point x="542.8" y="947.6" type="line" smooth="yes"/>
      <point x="542.8" y="765.44"/>
      <point x="489.44" y="695.52"/>
      <point x="349.6" y="623.76" type="curve"/>
      <point x="333.04" y="618.24" type="line"/>
      <point x="213.44" y="559.36"/>
      <point x="163.76" y="500.48"/>
      <point x="163.76" y="344.08" type="curve" smooth="yes"/>
      <point x="163.76" y="268.64" type="line" smooth="yes"/>
      <point x="163.76" y="97.52"/>
      <point x="217.12" y="33.12"/>
      <point x="327.52" y="33.12" type="curve" smooth="yes"/>
      <point x="434.24" y="33.12"/>
      <point x="487.6" y="97.52"/>
      <point x="487.6" y="268.64" type="curve" smooth="yes"/>
      <point x="487.6" y="344.08" type="line" smooth="yes"/>
      <point x="487.6" y="500.48"/>
      <point x="447.12" y="552"/>
      <point x="320.16" y="618.24" type="curve"/>
      <point x="301.76" y="625.6" type="line"/>
      <point x="152.72" y="697.36"/>
      <point x="108.56" y="772.8"/>
      <point x="108.56" y="947.6" type="curve" smooth="yes"/>
      <point x="108.56" y="1019.36" type="line" smooth="yes"/>
      <point x="108.56" y="1122.4"/>
      <point x="108.56" y="1196"/>
      <point x="108.56" y="1260.4" type="curve"/>
      <point x="143.52" y="1260.4" type="line"/>
      <point x="143.52" y="1196"/>
      <point x="143.52" y="1120.56"/>
      <point x="143.52" y="1019.36" type="curve" smooth="yes"/>
      <point x="143.52" y="949.44" type="line" smooth="yes"/>
      <point x="143.52" y="780.16"/>
      <point x="184" y="713.92"/>
      <point x="329.36" y="644" type="curve"/>
      <point x="342.24" y="640.32" type="line"/>
      <point x="476.56" y="570.4"/>
      <point x="522.56" y="513.36"/>
      <point x="522.56" y="349.6" type="curve" smooth="yes"/>
      <point x="522.56" y="266.8" type="line" smooth="yes"/>
      <point x="522.56" y="73.6"/>
      <point x="456.32" y="0"/>
      <point x="327.52" y="0" type="curve" smooth="yes"/>
      <point x="198.72" y="0"/>
      <point x="128.8" y="73.6"/>
      <point x="128.8" y="266.8" type="curve" smooth="yes"/>
    </contour>
  </outline>
</glyph>
